<svg width="36" height="36" viewBox="0 0 36 36" fill="none" xmlns="http://www.w3.org/2000/svg">
<rect width="36" height="36" rx="18" fill="white"/>
<path d="M13.2297 17.4242C13.2075 17.8292 13.347 18.2264 13.6174 18.5287C13.8878 18.8309 14.2671 19.0136 14.672 19.0364H14.7634C15.0624 19.0354 15.3545 18.9468 15.6037 18.7816C15.8529 18.6164 16.0482 18.3818 16.1656 18.1068C16.2829 17.8319 16.3172 17.5285 16.2641 17.2343C16.211 16.9401 16.0729 16.6678 15.8669 16.4512C15.6608 16.2346 15.3958 16.0831 15.1046 16.0154C14.8134 15.9476 14.5087 15.9667 14.2282 16.0702C13.9477 16.1737 13.7037 16.3571 13.5262 16.5977C13.3488 16.8383 13.2457 17.1257 13.2297 17.4242Z" fill="#0033AD"/>
<path d="M7.52249 17.032C7.42475 17.0266 7.32758 17.0502 7.24328 17.1C7.15898 17.1498 7.09134 17.2234 7.04891 17.3117C7.00647 17.3999 6.99116 17.4987 7.0049 17.5956C7.01864 17.6926 7.06082 17.7832 7.1261 17.8562C7.19138 17.9291 7.27683 17.9811 7.37165 18.0055C7.46646 18.0299 7.56637 18.0256 7.65875 17.9932C7.75113 17.9608 7.83182 17.9017 7.89062 17.8234C7.94941 17.7451 7.98368 17.6512 7.98907 17.5534C7.99321 17.4884 7.98437 17.4233 7.96307 17.3617C7.94177 17.3002 7.90844 17.2435 7.86501 17.195C7.82159 17.1465 7.76894 17.1071 7.71013 17.0791C7.65133 17.0511 7.58754 17.0351 7.52249 17.032Z" fill="#0033AD"/>
<path d="M13.1343 8.53977C13.2515 8.4803 13.3404 8.37669 13.3813 8.25171C13.4222 8.12673 13.4118 7.99062 13.3523 7.87332C13.2929 7.75602 13.1893 7.66713 13.0643 7.6262C12.9394 7.58527 12.8033 7.59565 12.686 7.65505C12.5687 7.71452 12.4798 7.81814 12.4389 7.94312C12.398 8.0681 12.4084 8.2042 12.4679 8.3215C12.5273 8.43881 12.6309 8.5277 12.7559 8.56863C12.8808 8.60956 13.0169 8.59918 13.1343 8.53977Z" fill="#0033AD"/>
<path d="M14.6857 11.2482C14.8206 11.1806 14.9325 11.0745 15.0072 10.9433C15.0818 10.8121 15.1159 10.6618 15.1051 10.5112C15.0943 10.3607 15.039 10.2167 14.9464 10.0975C14.8538 9.97834 14.7279 9.88932 14.5846 9.8417C14.4414 9.79409 14.2873 9.79001 14.1417 9.83C13.9962 9.86999 13.8657 9.95224 13.7669 10.0664C13.6681 10.1805 13.6054 10.3213 13.5866 10.4711C13.5679 10.6209 13.594 10.7728 13.6616 10.9078C13.7524 11.0885 13.9113 11.2259 14.1032 11.2897C14.2952 11.3536 14.5047 11.3386 14.6857 11.2482Z" fill="#0033AD"/>
<path d="M9.46194 13.1099C9.56627 13.1781 9.68848 13.2138 9.8131 13.2125C9.93773 13.2112 10.0592 13.173 10.1621 13.1027C10.265 13.0324 10.3448 12.9331 10.3913 12.8175C10.4378 12.7019 10.449 12.5751 10.4234 12.4531C10.3978 12.3311 10.3367 12.2194 10.2477 12.1322C10.1587 12.045 10.0458 11.9861 9.92329 11.963C9.80082 11.94 9.67425 11.9537 9.55959 12.0026C9.44494 12.0514 9.34734 12.1332 9.27915 12.2375C9.23338 12.3066 9.20178 12.3842 9.18619 12.4656C9.1706 12.547 9.17133 12.6307 9.18833 12.7119C9.20534 12.793 9.23828 12.87 9.28524 12.9383C9.33221 13.0066 9.39227 13.065 9.46194 13.1099Z" fill="#0033AD"/>
<path d="M10.3892 16.758C10.2381 16.7496 10.0879 16.7861 9.95753 16.8631C9.82721 16.94 9.72264 17.0539 9.65704 17.1903C9.59145 17.3266 9.56778 17.4794 9.58903 17.6293C9.61028 17.7791 9.6755 17.9193 9.77643 18.032C9.87736 18.1448 10.0095 18.2251 10.1561 18.2627C10.3026 18.3004 10.4571 18.2938 10.5999 18.2436C10.7427 18.1935 10.8674 18.1021 10.9582 17.9811C11.0491 17.8601 11.102 17.7148 11.1103 17.5637C11.1214 17.3613 11.0517 17.1627 10.9165 17.0116C10.7812 16.8606 10.5916 16.7694 10.3892 16.758Z" fill="#0033AD"/>
<path d="M9.54646 21.8914C9.43518 21.9479 9.34314 22.0362 9.28197 22.145C9.22081 22.2538 9.19326 22.3783 9.20281 22.5027C9.21236 22.6272 9.25857 22.746 9.33562 22.8443C9.41267 22.9425 9.51709 23.0156 9.6357 23.0545C9.75431 23.0934 9.88179 23.0963 10.002 23.0628C10.1223 23.0293 10.2299 22.9609 10.3113 22.8663C10.3927 22.7717 10.4442 22.655 10.4594 22.5311C10.4745 22.4072 10.4526 22.2816 10.3965 22.1701C10.3204 22.0211 10.1886 21.9081 10.0296 21.8559C9.87061 21.8037 9.69744 21.8164 9.54783 21.8914H9.54646Z" fill="#0033AD"/>
<path d="M12.516 15.1762C12.6646 15.2733 12.8386 15.3241 13.0162 15.3223C13.1937 15.3205 13.3667 15.2661 13.5132 15.1659C13.6598 15.0658 13.7734 14.9244 13.8396 14.7597C13.9059 14.595 13.9218 14.4144 13.8853 14.2406C13.8489 14.0669 13.7618 13.9079 13.6349 13.7837C13.5081 13.6594 13.3473 13.5756 13.1728 13.5428C12.9984 13.51 12.8181 13.5297 12.6548 13.5993C12.4915 13.669 12.3526 13.7855 12.2555 13.9341C12.1903 14.0325 12.1454 14.1429 12.1232 14.2589C12.101 14.3748 12.1021 14.494 12.1263 14.6095C12.1505 14.7251 12.1974 14.8347 12.2643 14.9319C12.3312 15.0292 12.4168 15.1122 12.516 15.1762Z" fill="#0033AD"/>
<path d="M21.9399 11.1887C22.0664 11.272 22.2148 11.316 22.3663 11.315C22.5177 11.314 22.6655 11.2681 22.7909 11.1831C22.9163 11.0981 23.0137 10.9778 23.0708 10.8375C23.1278 10.6971 23.1419 10.543 23.1114 10.3946C23.0808 10.2462 23.0069 10.1102 22.8991 10.0039C22.7912 9.89746 22.6542 9.82545 22.5055 9.79691C22.3567 9.76838 22.2028 9.78461 22.0632 9.84355C21.9237 9.90249 21.8047 10.0015 21.7214 10.128C21.665 10.2117 21.6258 10.3057 21.6063 10.4047C21.5867 10.5037 21.5871 10.6055 21.6075 10.7043C21.6278 10.8031 21.6677 10.8969 21.7248 10.9801C21.7819 11.0632 21.855 11.1342 21.9399 11.1887Z" fill="#0033AD"/>
<path d="M23.5032 8.49172C23.5853 8.54434 23.6812 8.57151 23.7787 8.56983C23.8762 8.56815 23.9711 8.53769 24.0513 8.48227C24.1316 8.42686 24.1937 8.34896 24.2298 8.25837C24.266 8.16777 24.2745 8.06851 24.2545 7.97307C24.2344 7.87762 24.1865 7.79023 24.1169 7.72189C24.0473 7.65354 23.9591 7.60729 23.8633 7.58893C23.7675 7.57057 23.6684 7.58092 23.5785 7.61869C23.4886 7.65646 23.4118 7.71996 23.3579 7.80122C23.2883 7.91282 23.2646 8.047 23.2917 8.17569C23.3187 8.30439 23.3945 8.41762 23.5032 8.49172Z" fill="#0033AD"/>
<path d="M22.055 15.9643C21.8544 15.9531 21.6536 15.9816 21.4641 16.048C21.2745 16.1144 21.0999 16.2176 20.9502 16.3515C20.8005 16.4854 20.6786 16.6475 20.5915 16.8285C20.5045 17.0096 20.4539 17.206 20.4428 17.4065C20.4316 17.6071 20.4601 17.8079 20.5265 17.9974C20.5929 18.187 20.6961 18.3616 20.83 18.5113C20.9639 18.661 21.126 18.7829 21.307 18.87C21.488 18.957 21.6844 19.0076 21.885 19.0188H21.97C22.367 19.0171 22.7477 18.8611 23.0317 18.5838C23.3157 18.3064 23.4807 17.9295 23.4917 17.5327C23.5028 17.1359 23.359 16.7503 23.0909 16.4576C22.8227 16.1649 22.4512 15.988 22.055 15.9643Z" fill="#0033AD"/>
<path d="M15.1889 15.0672C15.3256 15.3372 15.5394 15.5606 15.803 15.7092C16.0667 15.8578 16.3685 15.9249 16.6702 15.9021C16.972 15.8793 17.2603 15.7676 17.4986 15.5811C17.737 15.3945 17.9147 15.1416 18.0094 14.8541C18.104 14.5667 18.1114 14.2576 18.0305 13.966C17.9497 13.6743 17.7842 13.4132 17.555 13.2155C17.3259 13.0178 17.0433 12.8925 16.7429 12.8553C16.4425 12.8182 16.1379 12.8708 15.8675 13.0067C15.6875 13.0973 15.5272 13.2225 15.3956 13.3752C15.2641 13.5278 15.1639 13.7049 15.1009 13.8963C15.0379 14.0876 15.0132 14.2896 15.0283 14.4905C15.0434 14.6914 15.0979 14.8874 15.1889 15.0672Z" fill="#0033AD"/>
<path d="M27.1819 13.1094C27.2921 13.0522 27.383 12.9638 27.4431 12.8551C27.5032 12.7464 27.5298 12.6224 27.5197 12.4987C27.5096 12.3749 27.4631 12.2569 27.3861 12.1595C27.3092 12.062 27.2051 11.9895 27.0871 11.951C26.969 11.9125 26.8422 11.9097 26.7226 11.943C26.603 11.9763 26.4958 12.0442 26.4147 12.1382C26.3335 12.2322 26.2819 12.3481 26.2664 12.4713C26.2509 12.5945 26.2721 12.7195 26.3274 12.8307C26.4045 12.9802 26.5375 13.0932 26.6974 13.1454C26.8574 13.1976 27.0314 13.1847 27.1819 13.1094Z" fill="#0033AD"/>
<path d="M23.303 13.5944C23.1442 13.6741 23.0126 13.7991 22.9248 13.9536C22.837 14.108 22.797 14.2851 22.8098 14.4623C22.8226 14.6395 22.8877 14.809 22.9968 14.9492C23.106 15.0894 23.2542 15.1942 23.4229 15.2501C23.5915 15.3061 23.7729 15.3108 23.9443 15.2637C24.1156 15.2165 24.2691 15.1197 24.3853 14.9853C24.5016 14.8509 24.5754 14.6851 24.5974 14.5088C24.6194 14.3324 24.5887 14.1536 24.509 13.9947C24.4561 13.8893 24.383 13.7952 24.2937 13.718C24.2045 13.6408 24.1009 13.5819 23.9889 13.5448C23.8769 13.5076 23.7587 13.4928 23.641 13.5014C23.5234 13.5099 23.4085 13.5415 23.303 13.5944Z" fill="#0033AD"/>
<path d="M18.3023 8.26118C18.4266 8.2682 18.5502 8.23829 18.6576 8.1752C18.7649 8.11212 18.8512 8.01869 18.9056 7.90667C18.96 7.79465 18.98 7.66905 18.9631 7.54567C18.9463 7.4223 18.8933 7.30667 18.8109 7.21334C18.7284 7.12 18.6202 7.05314 18.4999 7.02116C18.3796 6.98919 18.2524 6.99353 18.1346 7.03363C18.0167 7.07374 17.9133 7.14783 17.8374 7.24656C17.7615 7.3453 17.7166 7.46427 17.7082 7.5885C17.6991 7.75615 17.7563 7.92064 17.8675 8.04648C17.9786 8.17232 18.1348 8.24943 18.3023 8.26118Z" fill="#0033AD"/>
<path d="M18.2977 12.2185C18.4751 12.228 18.6512 12.1847 18.804 12.0941C18.9567 12.0034 19.0792 11.8695 19.1558 11.7093C19.2325 11.5491 19.2599 11.3698 19.2346 11.194C19.2093 11.0182 19.1325 10.8538 19.0138 10.7217C18.8951 10.5896 18.7399 10.4956 18.5678 10.4517C18.3957 10.4078 18.2144 10.4159 18.0469 10.475C17.8794 10.5341 17.7332 10.6416 17.6268 10.7838C17.5204 10.926 17.4586 11.0965 17.4491 11.2739C17.4419 11.3919 17.4582 11.5101 17.4971 11.6218C17.5359 11.7334 17.5966 11.8362 17.6756 11.9242C17.7546 12.0122 17.8502 12.0836 17.957 12.1342C18.0638 12.1849 18.1796 12.2139 18.2977 12.2194V12.2185Z" fill="#0033AD"/>
<path d="M13.4249 21.4061C13.5837 21.3262 13.7152 21.201 13.8028 21.0464C13.8904 20.8918 13.9302 20.7146 13.9171 20.5374C13.904 20.3601 13.8387 20.1907 13.7293 20.0507C13.6199 19.9106 13.4715 19.806 13.3027 19.7503C13.1339 19.6946 12.9524 19.6902 12.7811 19.7377C12.6099 19.7852 12.4565 19.8824 12.3405 20.017C12.2245 20.1517 12.151 20.3177 12.1294 20.4941C12.1077 20.6705 12.1389 20.8494 12.2189 21.0081C12.3262 21.2206 12.5135 21.3819 12.7396 21.4565C12.9657 21.5311 13.2121 21.513 13.4249 21.4061Z" fill="#0033AD"/>
<path d="M18.8794 13.5337C18.6928 13.8184 18.6065 14.1572 18.6341 14.4965C18.6617 14.8357 18.8018 15.1561 19.032 15.4068C19.2622 15.6575 19.5695 15.8243 19.9052 15.8807C20.2409 15.9371 20.5858 15.8799 20.8853 15.7181C21.1848 15.5564 21.4219 15.2994 21.5588 14.9877C21.6958 14.6761 21.7249 14.3277 21.6415 13.9977C21.5581 13.6677 21.3671 13.3749 21.0985 13.1657C20.83 12.9565 20.4994 12.8429 20.159 12.8428C19.905 12.8423 19.655 12.9053 19.4316 13.026C19.2081 13.1466 19.0183 13.3212 18.8794 13.5337Z" fill="#0033AD"/>
<path d="M21.5395 19.933C21.4035 19.6627 21.1903 19.4387 20.927 19.2896C20.6637 19.1404 20.362 19.0727 20.0602 19.095C19.7584 19.1173 19.47 19.2285 19.2314 19.4148C18.9929 19.601 18.8149 19.8538 18.72 20.1411C18.6252 20.4285 18.6176 20.7376 18.6984 21.0292C18.7792 21.3209 18.9447 21.582 19.1739 21.7796C19.4031 21.9772 19.6858 22.1024 19.9862 22.1393C20.2865 22.1763 20.5911 22.1233 20.8614 21.9871C21.0405 21.898 21.2003 21.7746 21.3317 21.6237C21.4631 21.4729 21.5635 21.2976 21.6271 21.108C21.6908 20.9183 21.7165 20.718 21.7027 20.5184C21.6889 20.3189 21.636 20.124 21.5469 19.9449C21.5469 19.9389 21.5469 19.9389 21.5395 19.933Z" fill="#0033AD"/>
<path d="M24.2124 19.8239C24.0638 19.7268 23.8898 19.676 23.7122 19.6778C23.5347 19.6796 23.3617 19.734 23.2152 19.8342C23.0686 19.9343 22.955 20.0757 22.8888 20.2404C22.8225 20.4051 22.8066 20.5857 22.8431 20.7595C22.8795 20.9332 22.9666 21.0922 23.0935 21.2165C23.2203 21.3407 23.3811 21.4245 23.5556 21.4573C23.73 21.4901 23.9103 21.4705 24.0736 21.4008C24.2369 21.3312 24.3758 21.2146 24.4729 21.066C24.5381 20.9676 24.583 20.8572 24.6052 20.7412C24.6274 20.6253 24.6263 20.5061 24.6021 20.3906C24.5779 20.275 24.531 20.1655 24.4641 20.0682C24.3972 19.9709 24.3116 19.8879 24.2124 19.8239Z" fill="#0033AD"/>
<path d="M27.1453 17.5274C27.1538 17.3763 27.1172 17.2261 27.0403 17.0958C26.9634 16.9655 26.8495 16.861 26.7132 16.7954C26.5768 16.7298 26.4241 16.7061 26.2743 16.7273C26.1244 16.7485 25.9843 16.8137 25.8715 16.9146C25.7587 17.0154 25.6784 17.1475 25.6407 17.2941C25.603 17.4406 25.6096 17.595 25.6596 17.7378C25.7097 17.8806 25.801 18.0054 25.922 18.0963C26.0429 18.1872 26.1881 18.2402 26.3392 18.2485C26.5414 18.2585 26.7394 18.1885 26.8903 18.0535C27.0412 17.9185 27.1328 17.7295 27.1453 17.5274Z" fill="#0033AD"/>
<path d="M29.2603 16.9822C29.1625 16.9768 29.0653 17.0004 28.981 17.0502C28.8967 17.1 28.8291 17.1736 28.7867 17.2618C28.7442 17.3501 28.7289 17.4489 28.7427 17.5458C28.7564 17.6428 28.7986 17.7334 28.8639 17.8064C28.9291 17.8793 29.0146 17.9313 29.1094 17.9557C29.2042 17.9801 29.3041 17.9758 29.3965 17.9434C29.4889 17.911 29.5696 17.8519 29.6284 17.7736C29.6872 17.6953 29.7214 17.6014 29.7268 17.5036C29.7331 17.3729 29.6877 17.2449 29.6004 17.1473C29.5131 17.0498 29.3909 16.9905 29.2603 16.9822Z" fill="#0033AD"/>
<path d="M27.2664 21.8906C27.1621 21.8225 27.0399 21.7868 26.9153 21.7881C26.7907 21.7894 26.6693 21.8277 26.5664 21.898C26.4635 21.9683 26.3838 22.0675 26.3373 22.1831C26.2908 22.2987 26.2796 22.4255 26.3052 22.5474C26.3307 22.6694 26.3918 22.781 26.4808 22.8683C26.5698 22.9555 26.6826 23.0144 26.8051 23.0375C26.9275 23.0606 27.054 23.0469 27.1687 22.9981C27.2834 22.9493 27.381 22.8677 27.4492 22.7634C27.54 22.6232 27.5717 22.4528 27.5375 22.2894C27.5032 22.1259 27.4058 21.9826 27.2664 21.8906Z" fill="#0033AD"/>
<path d="M13.2192 26.5089C13.1379 26.4546 13.0422 26.4257 12.9444 26.4258C12.8466 26.4259 12.751 26.4549 12.6698 26.5094C12.5885 26.5638 12.5252 26.6411 12.4878 26.7315C12.4505 26.8219 12.4408 26.9213 12.46 27.0172C12.4792 27.1131 12.5264 27.2012 12.5956 27.2703C12.6648 27.3393 12.753 27.3863 12.849 27.4053C12.9449 27.4243 13.0443 27.4144 13.1346 27.3768C13.225 27.3393 13.3021 27.2758 13.3563 27.1944C13.3933 27.1407 13.4191 27.0801 13.4322 27.0163C13.4453 26.9524 13.4455 26.8866 13.4327 26.8227C13.4199 26.7587 13.3945 26.698 13.3578 26.6441C13.3211 26.5902 13.274 26.5443 13.2192 26.5089Z" fill="#0033AD"/>
<path d="M23.5941 26.4597C23.536 26.4892 23.4843 26.5298 23.4418 26.5792C23.3994 26.6286 23.3671 26.6859 23.3469 26.7478C23.3266 26.8097 23.3187 26.875 23.3237 26.9399C23.3286 27.0049 23.3463 27.0682 23.3758 27.1263C23.4052 27.1844 23.4458 27.2361 23.4953 27.2786C23.5447 27.321 23.602 27.3532 23.6639 27.3735C23.7258 27.3937 23.7911 27.4016 23.856 27.3966C23.921 27.3916 23.9843 27.3739 24.0424 27.3445C24.1597 27.285 24.2486 27.1814 24.2895 27.0564C24.3304 26.9314 24.3199 26.7953 24.2605 26.678C24.2011 26.5607 24.0975 26.4718 23.9725 26.4309C23.8475 26.39 23.7114 26.4003 23.5941 26.4597Z" fill="#0033AD"/>
<path d="M17.8489 21.4647C18.015 21.2112 18.1022 20.9141 18.0994 20.6111C18.0967 20.308 18.0041 20.0126 17.8334 19.7621C17.6627 19.5117 17.4216 19.3175 17.1405 19.2041C16.8595 19.0907 16.5511 19.0632 16.2544 19.1251C15.9577 19.1869 15.686 19.3354 15.4737 19.5517C15.2614 19.768 15.118 20.0424 15.0617 20.3402C15.0053 20.638 15.0386 20.9458 15.1572 21.2247C15.2758 21.5036 15.4745 21.7411 15.7281 21.9071C16.0684 22.1281 16.4824 22.2057 16.8796 22.1228C17.2769 22.04 17.6253 21.8034 17.8489 21.4647Z" fill="#0033AD"/>
<path d="M14.7885 23.8117C14.6621 23.7284 14.5138 23.6845 14.3624 23.6856C14.211 23.6866 14.0633 23.7325 13.938 23.8175C13.8127 23.9024 13.7154 24.0226 13.6585 24.1629C13.6015 24.3032 13.5874 24.4572 13.6179 24.6055C13.6485 24.7537 13.7223 24.8896 13.8301 24.9959C13.9379 25.1023 14.0748 25.1742 14.2234 25.2027C14.3721 25.2313 14.5259 25.215 14.6654 25.1561C14.8049 25.0973 14.9237 24.9983 15.007 24.8719C15.0633 24.7882 15.1023 24.6942 15.1218 24.5953C15.1413 24.4964 15.1409 24.3946 15.1205 24.2959C15.1002 24.1971 15.0603 24.1034 15.0033 24.0203C14.9463 23.9372 14.8733 23.8662 14.7885 23.8117Z" fill="#0033AD"/>
<path d="M18.358 26.7393C18.2337 26.7323 18.1101 26.7622 18.0027 26.8253C17.8954 26.8883 17.8091 26.9818 17.7547 27.0938C17.7003 27.2058 17.6803 27.3314 17.6972 27.4548C17.714 27.5782 17.767 27.6938 17.8494 27.7871C17.9318 27.8805 18.04 27.9473 18.1604 27.9793C18.2807 28.0113 18.4078 28.0069 18.5257 27.9668C18.6436 27.9267 18.747 27.8526 18.8229 27.7539C18.8987 27.6552 18.9437 27.5362 18.9521 27.412C18.9611 27.2443 18.9039 27.0798 18.7928 26.954C18.6816 26.8281 18.5255 26.751 18.358 26.7393Z" fill="#0033AD"/>
<path d="M18.364 22.7816C18.1865 22.772 18.0102 22.8152 17.8574 22.9058C17.7045 22.9964 17.5819 23.1303 17.5052 23.2906C17.4284 23.4509 17.4009 23.6303 17.4261 23.8062C17.4513 23.9821 17.5281 24.1466 17.6468 24.2788C17.7655 24.4111 17.9208 24.5051 18.0929 24.5491C18.2651 24.5932 18.4464 24.5851 18.614 24.5261C18.7816 24.467 18.928 24.3596 19.0345 24.2174C19.141 24.0751 19.203 23.9045 19.2126 23.7271C19.2197 23.6091 19.2034 23.4909 19.1645 23.3793C19.1256 23.2677 19.0649 23.1649 18.9859 23.0769C18.907 22.989 18.8113 22.9176 18.7046 22.8669C18.5978 22.8162 18.482 22.7872 18.364 22.7816Z" fill="#0033AD"/>
<path d="M22.0427 23.7494C21.9084 23.8185 21.7976 23.9258 21.7242 24.0578C21.6508 24.1898 21.618 24.3405 21.63 24.4911C21.642 24.6416 21.6982 24.7853 21.7917 24.904C21.8851 25.0226 22.0115 25.111 22.155 25.158C22.2985 25.2051 22.4528 25.2086 22.5983 25.1682C22.7438 25.1278 22.8742 25.0453 22.9729 24.931C23.0717 24.8168 23.1345 24.6759 23.1534 24.526C23.1722 24.3762 23.1464 24.2241 23.0791 24.0889C22.9862 23.9069 22.8251 23.7691 22.6309 23.7054C22.4367 23.6418 22.2253 23.6576 22.0427 23.7494Z" fill="#0033AD"/>
</svg>
