<svg width="36" height="36" viewBox="0 0 36 36" fill="none" xmlns="http://www.w3.org/2000/svg">
<rect width="36" height="36" rx="18" fill="white"/>
<path d="M9.38918 15.125L7 17.494L9.38918 19.8631L11.7849 17.494L9.38918 15.125Z" fill="#EAB300"/>
<path d="M17.6105 11.7381L21.7212 15.8069L24.1103 13.4378L17.6105 7L11.1107 13.4378L13.4998 15.8069L17.6105 11.7381Z" fill="#EAB300"/>
<path d="M25.8319 15.125L23.4362 17.494L25.8319 19.8631L28.2211 17.494L25.8319 15.125Z" fill="#EAB300"/>
<path d="M17.6105 23.2621L13.4998 19.1934L11.1107 21.5624L17.6105 28.0002L24.1103 21.5624L21.7212 19.1934L17.6105 23.2621Z" fill="#EAB300"/>
<path d="M17.6105 19.8758L19.9996 17.5067L17.6105 15.1377L15.2213 17.5067L17.6105 19.8758Z" fill="#EAB300"/>
</svg>
