<svg width="36" height="36" viewBox="0 0 36 36" fill="none" xmlns="http://www.w3.org/2000/svg">
<rect width="36" height="36" rx="18" fill="white"/>
<path d="M24.0293 11.9235C23.112 9.99448 21.004 9.58204 18.4234 9.98159L17.5941 7L15.639 7.46829L16.4544 10.4413C15.9402 10.5616 15.412 10.6647 14.8885 10.8022L14.0731 7.84636L12.118 8.31465L12.9473 11.2962C12.5257 11.4079 9 12.2457 9 12.2457L9.53742 14.1876C9.53742 14.1876 10.9736 13.8138 10.9597 13.8439C11.7566 13.6506 12.1319 14.02 12.3079 14.368L14.5873 22.5395C14.6151 22.7758 14.5688 23.1796 14.0221 23.3171C14.0545 23.3343 12.5998 23.6565 12.5998 23.6565L12.8129 25.9206C12.8129 25.9206 16.3062 25.0914 16.7648 24.984L17.6034 28L19.5585 27.5317L18.7199 24.4943C19.2573 24.3783 19.7809 24.258 20.2905 24.1334L21.1244 27.1536L23.0795 26.6853L22.241 23.6737C25.2524 22.9949 27.3789 21.2334 26.9434 18.5397C26.6654 16.9157 24.752 15.5839 23.1629 15.4335C24.1405 14.6301 24.6362 13.4572 24.0293 11.9235ZM23.0888 19.0338C23.478 21.7017 19.4797 22.0282 18.1593 22.3504L17.0104 18.3592C18.3354 18.037 22.4309 16.6837 23.0888 19.0338ZM20.6797 13.599C21.092 15.9705 17.6729 16.2455 16.5702 16.5076L15.5232 12.8858C16.6305 12.6324 19.8411 11.4036 20.6797 13.599Z" fill="#F7931A"/>
</svg>
