<svg width="36" height="36" viewBox="0 0 36 36" fill="none" xmlns="http://www.w3.org/2000/svg">
<g clip-path="url(#clip0_7599_27727)">
<rect width="36" height="36" rx="18" fill="white"/>
<path fill-rule="evenodd" clip-rule="evenodd" d="M9.97124 15.8729C9.89524 15.8037 9.814 15.7345 9.74167 15.6632C9.66935 15.592 9.5923 15.5244 9.5163 15.4536L9.29093 15.2392C9.25372 15.202 9.21494 15.1695 9.17825 15.1344C9.14156 15.0993 9.09806 15.0652 9.06085 15.0322C8.76157 14.7508 8.46073 14.4667 8.16408 14.1826C8.46964 14.4625 8.76891 14.7398 9.07447 15.0212L9.1793 15.126C9.21598 15.1627 9.25529 15.1952 9.29198 15.2309L9.51735 15.4405C9.59335 15.5097 9.66673 15.5794 9.74272 15.6549C9.81872 15.7303 9.89262 15.8 9.96809 15.8692L9.97124 15.8729ZM6.00052 15.8304C6.00052 15.8304 7.08859 15.9431 7.61952 16.0186C8.11167 16.0883 9.65048 16.3242 9.65048 16.3242L6.00052 15.8304ZM6.00052 15.8304C6.30608 15.8561 6.61165 15.8886 6.91721 15.9211C7.07444 15.9363 7.22277 15.9536 7.37266 15.9688L7.60223 15.995L7.8276 16.0275L8.74061 16.1727L9.19554 16.2487C9.34544 16.2744 9.49482 16.3011 9.651 16.3289C9.50163 16.3137 9.34544 16.2922 9.19554 16.2702L8.74061 16.2052L7.8276 16.071C7.7516 16.06 7.67822 16.0448 7.60223 16.0338L7.37214 16.0076C7.22277 15.9924 7.06658 15.9709 6.91721 15.9552C6.61165 15.9185 6.30608 15.8797 6 15.832L6.00052 15.8304ZM9.54199 16.6077C9.54199 16.6077 8.38054 16.9028 7.98798 17.0155C7.59541 17.1282 6.43449 17.4772 6.43449 17.4772L9.54251 16.6082L9.54199 16.6077Z" fill="#CFB66C"/>
<path fill-rule="evenodd" clip-rule="evenodd" d="M9.54198 16.6085C9.28411 16.6845 9.02782 16.7584 8.76628 16.8276L7.99007 17.0372C7.7322 17.1132 7.47591 17.1871 7.21856 17.2626L6.83281 17.3674C6.70493 17.4041 6.57495 17.4366 6.44287 17.4722C6.57023 17.4292 6.70074 17.3852 6.82862 17.3485L7.21437 17.2248C7.47224 17.1446 7.72853 17.0676 7.98587 16.9885C8.24793 16.9235 8.5058 16.8543 8.76838 16.7914C9.01734 16.7285 9.27992 16.6656 9.54198 16.6074V16.6085ZM6.59644 18.1934C6.72432 18.1457 8.19814 17.4596 8.54091 17.2982C8.7123 17.2175 9.21074 17.0409 9.21074 17.0409L6.59644 18.1934Z" fill="#CFB66C"/>
<path fill-rule="evenodd" clip-rule="evenodd" d="M6.59647 18.194C6.70915 18.1511 6.81555 18.0987 6.92352 18.0489L7.24428 17.899L7.88842 17.5892C8.10278 17.4875 8.31085 17.3749 8.53203 17.2789C8.64472 17.2318 8.7574 17.1925 8.87009 17.1558L9.04147 17.1034C9.10017 17.0887 9.15416 17.0709 9.21286 17.0557C8.9985 17.1579 8.77313 17.2443 8.55824 17.3439C8.34335 17.4435 8.12479 17.5373 7.90361 17.6322L7.24899 17.9205C7.02939 18.0096 6.81502 18.1049 6.59647 18.1961V18.194ZM6.73955 18.7942C6.73955 18.7942 8.07448 18.0117 8.53413 17.7601C8.7747 17.6259 9.55301 17.2396 9.55301 17.2396L6.73955 18.7942Z" fill="#CFB66C"/>
<path fill-rule="evenodd" clip-rule="evenodd" d="M6.73954 18.7941C6.96491 18.6553 7.19447 18.5148 7.42456 18.3717L7.76733 18.1621C7.88421 18.0924 7.9969 18.0274 8.11639 17.9582C8.23589 17.889 8.34596 17.8193 8.46546 17.7543C8.52213 17.7193 8.58155 17.689 8.64313 17.6636L8.825 17.5724C9.06557 17.4556 9.30614 17.3361 9.55877 17.2344C9.3292 17.3796 9.09282 17.5032 8.85645 17.6311C8.73957 17.6961 8.62007 17.7543 8.50319 17.8193C8.38631 17.8843 8.27363 17.954 8.15413 18.0169C8.03463 18.0798 7.92457 18.1511 7.80507 18.214L7.45181 18.4068L6.73901 18.7926L6.73954 18.7941ZM9.54199 17.4115C9.54199 17.4115 8.71179 18.0483 8.44135 18.2501C8.1709 18.4519 7.38315 19.0284 7.38315 19.0284L9.54199 17.4115Z" fill="#CFB66C"/>
<path fill-rule="evenodd" clip-rule="evenodd" d="M14.3067 22.5493L13.8817 21.7453L14.1285 20.7396L15.8911 20.0587L15.1411 18.5199L15.5117 16.9659L16.2077 15.5744L18.3576 15.2363L19.9379 13.7295L23.3499 13.9879L24.0192 17.6357L22.7298 22.2286L21.995 24.6065L19.0165 24.7192L17.6338 23.7611L16.0143 23.085L14.3067 22.5493Z" fill="#E2CC85"/>
<path fill-rule="evenodd" clip-rule="evenodd" d="M19.5301 22.5236C19.5301 22.5236 19.1182 22.7123 18.4158 22.6688C18.2125 22.3957 16.7885 22.2679 16.7885 22.2679C16.7885 22.2679 16.6108 22.2154 16.2963 22.3439C15.9818 22.4723 15.681 22.4565 15.4011 22.5262C15.1212 22.596 14.844 22.2312 14.6296 22.1552C14.4552 22.0801 14.2883 21.9887 14.1312 21.8821L13.5311 21.8239L12.3256 21.3145L10.411 19.4072L9.89369 20.2212L9.73331 21.2296L10.3098 22.4235L11.8686 23.8434L14.9084 24.6149L16.7072 24.0844L18.9609 23.1306L19.5301 22.5236Z" fill="#F1D789"/>
<path fill-rule="evenodd" clip-rule="evenodd" d="M8.73379 15.7825L9.11954 14.6142L9.57919 13.86L11.0593 13.7363L10.6154 15.0325L9.37741 17.2348L9.89104 19.2008L8.98117 19.6557L8.70129 19.2265L8.47592 18.2427L8.46072 17.1373L8.73379 15.7825Z" fill="#F4ECB4"/>
<path fill-rule="evenodd" clip-rule="evenodd" d="M10.3942 22.4439L10.1101 22.0471C10.0668 21.9346 10.0555 21.8123 10.0776 21.6938C10.1206 21.5266 10.1143 21.5156 10.0928 21.4527C10.0714 21.3899 9.88896 21.1734 9.89997 20.9868C9.91098 20.8002 9.88477 20.7352 10.0231 20.5859C10.1615 20.4365 10.128 20.1891 10.128 20.1891L10.3166 20.3065L10.3591 20.2415C10.3797 20.2585 10.3965 20.2795 10.4085 20.3033C10.4205 20.3272 10.4274 20.3532 10.4288 20.3799C10.4435 20.263 10.3811 19.7211 10.5237 19.5974C10.6662 19.4737 10.9204 20.1765 10.9204 20.1765L10.7632 19.1576L10.3617 18.1131L9.64892 17.1592L9.60594 16.1078V16.0166C9.60594 16.0166 9.27837 16.5198 9.18665 16.917C9.12166 17.1901 9.27732 17.5219 9.24482 17.9129C9.21233 18.3038 9.18665 18.2729 9.28151 18.4275C9.37638 18.5822 9.60909 18.8992 9.51789 19.1299C9.4377 19.3269 9.16463 19.188 9.16463 19.188C9.16463 19.188 9.11222 19.3484 9.03675 19.4071C9.02032 19.328 8.98427 19.2543 8.93193 19.1928C8.92721 19.2294 8.91673 19.2798 8.91673 19.2798C8.91673 19.2798 8.86903 19.1299 8.82134 18.9412C8.75635 18.6901 8.68664 18.3584 8.62374 18.1807C8.59701 18.2834 8.53098 18.5926 8.53098 18.5926L8.56766 19.0696L8.74534 19.7237L8.91673 20.1524L9.08392 20.6765L9.22858 21.0287L9.34598 21.2976L9.44766 21.9024L9.9398 22.4224L10.2019 22.5398L10.3926 22.4423L10.3942 22.4439Z" fill="#F3E19D"/>
<path fill-rule="evenodd" clip-rule="evenodd" d="M8.99168 14.829C8.99168 14.829 8.63842 15.4291 8.53622 16.0345C8.43402 16.6398 8.34335 17.2787 8.40781 18.1026C8.44624 18.6787 8.54282 19.2494 8.69608 19.806C8.86746 20.4108 9.31191 21.252 9.31191 21.252L9.32711 21.2196C9.25238 21.078 9.19266 20.9291 9.14891 20.7751C9.09074 20.5455 9.06872 20.2725 9.01474 20.1488C8.96076 20.0251 8.88685 19.9192 8.84807 19.7672C8.80929 19.6152 8.80509 19.3925 8.69084 19.2211C8.64314 19.1519 8.58601 18.9695 8.56714 18.7876C8.54565 18.5146 8.57815 18.2111 8.55194 17.9574C8.50425 17.5382 8.47175 17.2551 8.51526 17.036C8.55876 16.817 8.78413 16.1975 8.92302 15.7011C9.01369 15.3867 8.95971 15.1178 9.12638 14.8426C9.26278 14.6326 9.36586 14.4028 9.43194 14.1613C9.47491 14.0098 8.99011 14.829 8.99011 14.829H8.99168Z" fill="#F2E8B0"/>
<path fill-rule="evenodd" clip-rule="evenodd" d="M10.6673 14.5879C10.6673 14.5879 10.4849 14.6403 10.3984 14.7373C10.3119 14.8342 10.2747 14.9045 10.1578 15.058C10.041 15.2116 10.0341 15.3379 9.93875 15.5297C9.84336 15.7216 9.63319 16.0014 9.60698 16.1063C9.58078 16.2111 9.5378 16.6828 9.48382 16.9103C9.42983 17.1377 9.53623 17.4134 9.53623 17.4134L9.65992 17.3872C9.66408 17.4895 9.70832 17.5861 9.78309 17.6561C9.90678 17.7609 9.92827 17.296 9.92827 17.296L10.39 15.7378L11.086 15.2661L11.1615 14.8845L10.6652 14.59L10.6673 14.5879Z" fill="#F5EEC0"/>
<path fill-rule="evenodd" clip-rule="evenodd" d="M11.0053 15.295C11.0053 15.295 10.6777 15.317 10.5174 15.4339C10.4524 15.4816 10.4267 15.5204 10.357 15.5791C10.2291 15.6839 10.0991 15.7829 10.0362 15.9218C9.97332 16.0607 9.89365 16.2709 9.84124 16.6676C9.81975 16.8343 9.81975 16.9884 9.80455 17.1226C9.78254 17.305 9.75214 17.4502 9.76734 17.5513C9.78935 17.761 10.0037 17.8658 10.0247 18.1043L10.4691 17.8789L10.8884 16.229L11.7794 15.6718L11.2763 15.1084L11.01 15.2939L11.0053 15.295Z" fill="#E6DB9D"/>
<path fill-rule="evenodd" clip-rule="evenodd" d="M8.66092 26.4023C8.66092 26.3861 8.66459 26.3698 8.66668 26.353C8.73115 25.7959 8.74216 25.3735 8.78985 25.1088C8.85904 24.734 8.90673 24.5946 8.89468 24.4542C8.87948 24.2288 8.86218 24.0642 8.88367 23.8907C8.91616 23.6612 9.14153 23.3881 9.13525 23.1994C9.13105 23.0495 9.05506 22.952 8.99006 22.8614C8.92507 22.7707 8.87266 22.6942 8.87266 22.6942C8.87266 22.6942 9.31711 22.3897 9.31711 21.1611C9.32624 21.1638 9.33503 21.1675 9.34332 21.1721L9.55926 21.7901L9.70915 21.9725L10.2857 23.0432L11.0247 23.7608L12.1169 24.4945L12.802 25.2398L12.8712 27.2273L11.9739 28.394L11.8276 28.656C10.663 28.0712 9.59501 27.3111 8.66092 26.4023Z" fill="#E5CB7A"/>
<path fill-rule="evenodd" clip-rule="evenodd" d="M11.3953 28.3051C11.4122 28.1459 11.4908 27.9997 11.6143 27.8978C11.6454 27.9399 11.6621 27.9908 11.662 28.043C11.7584 27.8883 11.8865 27.7558 12.0378 27.6542C12.1892 27.5525 12.3603 27.4841 12.5399 27.4534C13.1233 27.3486 13.2637 26.9224 13.2637 26.9224L14.5017 25.7972L15.9168 24.4947L17.638 23.8899L18.442 23.6923C18.4506 23.7556 18.4454 23.8199 18.4268 23.881C18.5767 23.8705 18.908 23.7945 19.2528 23.6713C19.3917 23.6189 19.5217 23.5959 19.5909 23.6672C19.6957 23.7625 19.7078 23.9879 19.7146 24.1221C19.8812 24.0854 20.0741 23.925 20.2287 23.9402C20.4761 23.9664 20.6947 24.2547 20.9463 24.2547C21.278 24.2547 21.4274 24.0508 21.6596 23.8904C21.7985 23.795 21.9976 23.6761 22.1103 23.5959C22.3792 23.3983 25.2231 22.5293 25.2231 22.5293L26.2189 22.5943L26.3793 23.6651L26.2938 26.4638L26.2619 26.4948L21.7293 28.8659L15.4451 29.8292C14.0374 29.599 12.679 29.1315 11.4278 28.4466L11.3958 28.304L11.3953 28.3051Z" fill="#D8C173"/>
<path fill-rule="evenodd" clip-rule="evenodd" d="M9.04199 26.7587C9.13109 26.5721 9.21181 26.4159 9.22596 26.3604C9.23696 26.4725 9.2574 26.7199 9.29829 26.9825C9.21233 26.9091 9.12638 26.8342 9.04199 26.7587Z" fill="#F1D789"/>
<path fill-rule="evenodd" clip-rule="evenodd" d="M13.6322 29.3928L14.4451 29.1669L14.5143 29.189C14.5143 29.189 14.5515 29.2104 14.5515 29.2838C14.6532 29.2256 14.7402 29.2361 14.8025 29.1973C14.835 29.2665 14.8675 29.4966 15.0122 29.5249C15.1568 29.5532 15.3225 29.4594 15.4839 29.3362C15.6453 29.2131 15.8267 29.048 15.965 28.983C16.0158 29.0762 16.0606 29.1724 16.0992 29.2712C16.2816 29.1261 16.5982 28.5375 17.0489 28.5469C17.1792 28.2391 17.3967 27.9762 17.6747 27.7906C18.094 27.5065 18.356 27.4851 18.6826 27.5113C18.8122 27.3423 18.9722 27.1988 19.1543 27.0883C19.2067 27.1103 19.3582 27.201 19.5442 27.1145C19.7303 27.028 19.9452 26.6915 20.2256 26.6486C20.3762 26.6278 20.5293 26.6599 20.659 26.7392C20.659 26.7392 21.4735 25.931 22.0353 25.6622C22.0139 25.5972 21.9704 25.3524 22.6292 24.81C22.6664 24.843 22.6402 24.9337 22.6664 24.9389C22.8014 24.8821 22.9276 24.8062 23.0411 24.7135C23.2927 24.5248 23.5935 24.3278 23.7749 24.2733C24.1177 24.1716 24.4814 24.3781 24.4814 24.3781C24.5122 24.3564 24.5467 24.3402 24.5831 24.3304C24.6499 24.321 24.716 24.3067 24.7807 24.2874C24.776 24.4001 24.8388 24.593 24.7807 24.7591C24.8484 24.7976 24.9203 24.8282 24.995 24.8503C24.9583 24.9305 24.8776 25.1344 24.7435 25.2319C24.8561 25.2843 24.8713 25.3488 25.0317 25.4033C24.9517 25.5129 24.8785 25.6274 24.8126 25.746C24.7649 25.8509 24.5936 26.2702 24.5181 26.4311C24.4426 26.592 24.3294 26.8865 24.277 26.9457C24.2246 27.005 24.0364 27.2555 23.8912 27.3787C24.0202 27.331 24.5464 27.169 24.7691 27.1103L24.0448 28.19C22.4946 29.1191 20.7642 29.7072 18.969 29.915C17.1737 30.1229 15.3547 29.9458 13.6332 29.3955L13.6322 29.3928Z" fill="#E0CD81"/>
<path fill-rule="evenodd" clip-rule="evenodd" d="M11.0588 15.2383C11.0588 15.2383 10.8701 15.2383 10.8334 15.264C10.7967 15.2897 11.0221 15.3442 11.0913 15.3688C11.1605 15.3934 11.3104 15.514 11.3491 15.6094C11.3879 15.7048 12.704 16.2341 12.704 16.2341L13.6359 16.1817L13.9572 15.7378L13.346 15.2021L13.7748 13.9385L13.2071 14.0328L11.8413 14.8473L11.1563 15.1094L11.0588 15.2383Z" fill="#DFC57C"/>
<path fill-rule="evenodd" clip-rule="evenodd" d="M13.1054 15.6573C13.119 15.6792 13.138 15.6971 13.1606 15.7092C13.1833 15.7214 13.2087 15.7273 13.2344 15.7265C13.4272 15.7265 13.6049 15.7742 13.6783 15.8717C13.802 16.0289 14.1448 16.5263 14.1448 16.5263L14.964 16.8214L15.0164 15.8565L14.1212 15.2344L13.1028 15.6049V15.6573H13.1054Z" fill="#E5CC7C"/>
<path fill-rule="evenodd" clip-rule="evenodd" d="M12.9451 16.0122C13.0605 16.0148 13.1754 15.9949 13.2832 15.9535C13.4713 15.8843 13.7816 15.735 13.9158 15.7937C14.1044 15.8733 14.0651 16.1249 14.2695 16.3508C14.3927 16.4892 14.6181 16.485 14.746 16.6349C14.8739 16.7848 15.3141 16.715 15.3141 16.715L15.4808 17.615L14.811 18.4735L14.5919 19.54H13.6862L12.8591 19.2114L12.4519 18.2256L12.6553 17.2297L12.9451 16.0133V16.0122Z" fill="#D2C281"/>
<path fill-rule="evenodd" clip-rule="evenodd" d="M14.6967 16.0568C14.7191 16.0636 14.7424 16.0673 14.7659 16.0678C14.7402 16.0893 14.6857 16.137 14.7072 16.2607C14.7287 16.3844 14.7984 16.54 14.7402 16.6354C14.7868 16.6864 14.8215 16.7471 14.8419 16.8131C14.8785 16.9179 14.8896 17.017 15.1301 17.0322C15.0953 17.0535 15.0633 17.079 15.0347 17.1082C15.1293 17.1911 15.2137 17.2848 15.2863 17.3875C15.3929 17.3708 15.4981 17.3457 15.6008 17.3126L15.6485 17.3451L15.7507 17.3021C15.7507 17.3021 15.6553 17.2654 15.7245 17.0332C15.7895 16.8293 15.8482 16.8403 15.8529 16.8236C15.877 16.7201 15.8931 16.615 15.9011 16.5091C15.9295 16.3587 15.9489 16.2068 15.9593 16.0542L15.8901 15.2979L15.5017 15.061L15.1841 14.7549L14.8848 15.3183L14.6883 15.5149L14.6731 16.0023L14.6967 16.0547V16.0568Z" fill="#E2C270"/>
<path fill-rule="evenodd" clip-rule="evenodd" d="M15.6348 15.4229C15.6747 15.537 15.7068 15.6536 15.7307 15.772C15.7398 15.7424 15.7448 15.7117 15.7454 15.6808C15.7454 15.6808 15.7978 15.9801 15.8104 16.1038C15.8324 16.0996 15.8534 16.0928 15.8581 16.1148C15.8874 16.2448 15.9018 16.3777 15.9011 16.511C15.9914 16.3622 16.1164 16.2374 16.2653 16.1473C16.3521 16.0839 16.4534 16.0436 16.5599 16.0299C16.7271 16.0257 16.8482 16.1347 17.0478 16.1347C17.529 16.1347 17.9645 15.7814 18.2853 15.6729C18.5217 15.5927 18.7255 15.534 18.8686 15.4041C18.9904 15.2942 19.0936 15.1653 19.1742 15.0225C19.3236 14.7657 19.4798 14.5414 19.6359 14.5136C19.5652 14.5262 19.4934 14.5313 19.4216 14.5288C19.4624 14.4889 19.5053 14.4511 19.55 14.4156C19.6312 14.3506 19.7277 14.2704 19.8645 14.2704C20.1113 14.2704 20.235 14.3071 20.3739 14.3071C20.4482 14.3067 20.5221 14.2943 20.5925 14.2704C20.5925 14.2704 20.7382 14.3726 21.0642 14.3726C21.3902 14.3726 21.6103 14.4051 21.7817 14.4203C21.9531 14.4355 22.5275 14.3726 22.6921 14.3773C22.7994 14.3814 22.9048 14.4072 23.0018 14.4533L22.4725 12.9119L20.5647 11.2441L19.4326 12.0481L17.6852 13.7955L15.9949 14.4219L15.6395 14.8191V15.4235L15.6348 15.4229Z" fill="#CCB360"/>
<path fill-rule="evenodd" clip-rule="evenodd" d="M19.4284 14.5381C19.4284 14.5381 19.4761 14.4904 19.5563 14.4254C19.6365 14.3604 19.734 14.2802 19.8708 14.2802C20.1176 14.2802 20.2413 14.3169 20.3797 14.3169C20.4542 14.3166 20.5282 14.3042 20.5988 14.2802C20.5988 14.2802 20.7445 14.3819 21.0705 14.3819C21.3965 14.3819 21.6166 14.4144 21.788 14.4296C21.9594 14.4448 22.5333 14.3819 22.6984 14.3866C22.8057 14.3908 22.9111 14.4166 23.0081 14.4626L22.7676 13.7666L22.4882 13.2356L21.6905 12.3619L20.7288 11.7943C20.7246 11.7901 20.397 11.7031 20.397 11.7031L19.5301 12.2272L18.7439 14.2624L18.7287 14.6911L19.2382 14.9317C19.3661 14.7173 19.507 14.5459 19.6391 14.5244C19.5196 14.5376 19.4295 14.5376 19.4295 14.5376L19.4284 14.5381Z" fill="#D5B457"/>
<path fill-rule="evenodd" clip-rule="evenodd" d="M19.4174 14.6838C19.3414 14.688 19.279 14.6728 19.2602 14.6188C19.1952 14.4369 19.1428 14.4092 19.0883 14.4092C19.0338 14.4092 18.9604 14.526 18.9169 14.537C18.8734 14.5481 18.8215 14.4029 18.8215 14.4029L18.7738 14.3809C18.6012 14.4957 18.4415 14.6287 18.2974 14.7776C18.0998 14.992 17.7769 15.3541 17.6317 15.4212C17.4866 15.4883 16.9881 15.5082 16.8173 15.5449C16.6771 15.5807 16.5458 15.6449 16.4315 15.7336C16.4053 15.7614 16.5075 15.7918 16.5227 15.8201C16.5379 15.8484 16.3555 15.8353 16.3403 15.8631C16.3251 15.8908 16.3833 16.0082 16.41 16.0727C16.4566 16.0497 16.5075 16.037 16.5594 16.0355C16.7261 16.0313 16.8477 16.1403 17.0468 16.1403C17.5285 16.1403 17.964 15.7871 18.2848 15.6786C18.5212 15.5984 18.7251 15.5397 18.8676 15.4097C18.9896 15.2999 19.0929 15.171 19.1737 15.0281C19.2454 14.9065 19.3265 14.7907 19.4164 14.6817L19.4174 14.6838Z" fill="#D2B257"/>
<path fill-rule="evenodd" clip-rule="evenodd" d="M12.5142 25.4106C12.5142 25.4106 12.4713 25.2503 12.074 24.8341C11.9613 24.7172 11.8921 24.6197 11.8161 24.5506C11.6274 24.3724 11.5168 24.3247 11.3827 24.223C11.0876 24.0039 10.7668 24.0039 10.52 23.7356C10.2731 23.4672 9.98485 22.9531 9.78621 22.4284C9.58757 21.9038 9.53464 21.7371 9.53464 21.7219C9.53464 21.7067 9.58705 21.6045 9.65833 21.6197C9.72961 21.6349 9.72751 21.7691 9.74481 21.8021C9.77957 21.855 9.81867 21.905 9.86169 21.9515C9.96651 22.0683 10.1091 22.2083 10.183 22.4174C10.1691 22.2904 10.1436 22.165 10.107 22.0427C10.107 22.0427 10.4885 22.2832 10.8135 22.5343C11.1384 22.7853 11.2752 22.8729 11.3706 23.0327C11.466 23.1926 11.6914 23.6161 11.7993 23.7398C11.9073 23.8634 13.3853 24.3294 13.3853 24.3294L14.0887 24.8535L14.4378 25.6187L14.1642 26.0474L13.64 26.1601L12.7878 25.7786L12.5153 25.4085L12.5142 25.4106Z" fill="#D2B159"/>
<path fill-rule="evenodd" clip-rule="evenodd" d="M10.6238 22.7754C10.6238 22.7754 10.8014 23.0595 11.2349 23.3284C11.6254 23.5647 12.2428 23.7791 12.7936 23.9049C13.0934 23.9836 13.4007 24.0301 13.7103 24.0438C14.4755 24.0543 15.0022 23.8341 15.6548 23.7639C16.008 23.7272 16.4409 23.6989 16.8922 23.5925C17.4687 23.4536 17.8136 23.298 18.2795 23.0784C18.6176 22.9211 18.9279 22.8053 19.1789 22.6554C19.5322 22.4458 19.7906 22.2157 20.0893 22.1465C20.0526 22.2482 20.0139 22.43 19.7188 22.6182C19.876 22.614 20.0893 22.603 20.0893 22.603C20.0893 22.603 19.8797 22.7267 19.5128 23.0039C19.2874 23.1759 18.9887 23.4657 18.6831 23.6586C18.4855 23.7823 18.2712 23.8729 18.1302 23.9468C17.7869 24.1355 17.649 24.2309 17.4237 24.4615C17.4523 24.4575 17.4815 24.4575 17.5101 24.4615C17.3412 24.4848 17.1769 24.5338 17.0227 24.6067C16.9396 24.5982 16.8557 24.6055 16.7753 24.6282C16.6737 24.6607 16.539 24.733 16.4006 24.7734C16.203 24.8321 16.1385 24.8059 16.1385 24.8059L16.171 24.8708C16.171 24.8708 15.9142 24.8667 15.8283 24.8756C15.8434 24.8798 15.8393 24.886 15.8393 24.886C15.8242 24.8887 15.8096 24.8938 15.7963 24.9012C15.7551 24.928 15.7097 24.9478 15.6621 24.9599C15.6359 24.9641 15.6144 24.9641 15.5819 24.9704C15.5924 24.9966 15.6773 25.1423 15.7161 25.2278C15.6836 25.2498 15.1956 25.6182 15.1956 25.6182C15.2108 25.6419 15.2233 25.6672 15.2329 25.6937C15.2481 25.7414 15.2543 25.8111 15.2695 25.8436C15.3062 25.9086 15.3282 25.9191 15.3282 25.9191C15.3282 25.9191 15.2695 25.9301 15.1673 25.9563C15.0548 25.9899 14.9403 26.0167 14.8246 26.0365C14.7785 26.0423 14.7321 26.0458 14.6857 26.047C14.7236 26.1171 14.7384 26.1975 14.728 26.2765C14.7175 26.3556 14.6824 26.4293 14.6275 26.4872C14.4519 26.6969 14.3974 26.7278 14.3434 26.862C14.3162 26.842 14.2873 26.8244 14.2569 26.8096C14.1982 26.7834 14.1181 26.7446 14.0898 26.6927C14.0733 26.762 14.0516 26.83 14.0248 26.896C13.9724 27.0412 13.8906 27.1843 13.8754 27.2928C13.8167 27.2278 13.7082 27.0999 13.5609 27.1261C13.4136 27.1523 13.292 27.3557 13.2664 27.4144C13.2664 27.3772 13.2402 27.3494 13.2339 27.3924C13.1649 27.7617 12.972 28.0965 12.6872 28.3416C12.6825 28.2393 12.6825 28.014 12.672 27.9406C12.629 27.9831 12.5766 28.0454 12.2643 28.1812C11.9519 28.3169 12.0069 28.45 12.0069 28.45C12 28.2915 12.0492 28.1356 12.1458 28.0098C12.313 27.7844 12.4147 27.678 12.4147 27.6607C12.4118 27.6431 12.4042 27.6266 12.3927 27.613C12.3712 27.5915 12.3277 27.5653 12.3277 27.548C12.3539 27.5376 12.6117 27.4139 12.5965 27.1581C12.5883 26.9968 12.524 26.8435 12.4147 26.7247C12.4037 26.7136 12.5195 26.6335 12.5012 26.6072C12.4907 26.592 12.3518 26.4904 12.3345 26.4359C12.3388 26.4035 12.346 26.3716 12.356 26.3405C12.3713 26.3049 12.3788 26.2665 12.378 26.2278C12.3586 26.1515 12.3293 26.078 12.291 26.0092C12.3322 26.0113 12.3735 26.0113 12.4147 26.0092C12.3737 25.9451 12.3396 25.8767 12.313 25.8053C12.2957 25.7147 12.2738 25.6249 12.2475 25.5365C12.2847 25.5407 12.3754 25.5475 12.3754 25.5365C12.3801 25.504 12.2957 25.45 12.3329 25.4081C12.383 25.4213 12.4267 25.4519 12.4561 25.4945C12.4304 25.4254 12.3869 25.2907 12.2957 25.2367C12.3468 25.2185 12.4011 25.211 12.4552 25.2147C12.5093 25.2184 12.562 25.2332 12.6102 25.2582C12.6843 25.3004 12.744 25.364 12.7816 25.4406C12.7816 25.4406 12.8576 25.4987 12.9744 25.5857C13.1091 25.6906 13.28 25.8431 13.5536 25.95C13.6118 25.9825 13.7632 25.9825 13.8681 25.9605C13.9153 25.9499 13.9607 25.9322 14.0027 25.9081C14.0178 25.8991 14.0338 25.8917 14.0504 25.8861C14.027 25.8395 14.0002 25.7946 13.9703 25.7519C14.0069 25.7519 14.0504 25.7561 14.0504 25.7561C14.0504 25.7561 14.0761 25.6979 13.9592 25.5847C13.9855 25.559 14.0179 25.5417 14.0179 25.4982C13.9721 25.4832 13.9316 25.4554 13.9011 25.418C13.9226 25.4028 13.9535 25.353 13.9917 25.3378C13.9592 25.3116 13.8791 25.2031 13.8424 25.1927C13.8775 25.1797 13.9116 25.1637 13.944 25.145C13.8611 25.1244 13.7804 25.0952 13.7035 25.058C13.6417 25.0065 13.5758 24.9602 13.5064 24.9196C13.454 24.8976 13.3565 24.8871 13.3177 24.8436C13.3639 24.8491 13.4105 24.8491 13.4566 24.8436C13.4891 24.8436 13.5043 24.8478 13.5148 24.8478C13.5106 24.8326 13.5106 24.8001 13.595 24.7896C13.6358 24.7833 13.6754 24.7707 13.7124 24.7524C13.6467 24.7421 13.5864 24.7102 13.541 24.6617C13.4498 24.5747 13.3738 24.5045 13.3219 24.4945C13.27 24.4846 13.1647 24.5312 13.1028 24.527C13.0568 24.5245 13.013 24.506 12.9791 24.4746C12.9791 24.4746 12.6914 24.5003 12.052 24.1104C11.499 23.7723 11.2585 23.473 11.2585 23.473C11.2068 23.4543 11.1568 23.4311 11.1091 23.4038C10.8995 23.2954 10.6122 23.07 10.6211 22.7749L10.6238 22.7754Z" fill="#C2A44D"/>
<path fill-rule="evenodd" clip-rule="evenodd" d="M18.5982 9.76523C18.6483 9.78176 18.6927 9.81188 18.7266 9.85223C18.8314 9.96911 18.8938 10.1903 18.6616 10.4288C18.7269 10.4596 18.7997 10.4709 18.8713 10.4613C18.7911 10.5566 18.6092 10.76 18.5982 10.9382C18.5872 11.0834 18.6784 11.1264 18.6784 11.1264C18.5852 11.25 18.5343 11.4003 18.5332 11.5551C18.5987 11.4812 18.6704 11.4132 18.7476 11.3517C18.9165 11.2199 19.0928 11.0976 19.2754 10.9854C19.2733 11.0236 19.2785 11.0618 19.2906 11.0981C19.2906 11.0981 19.5699 10.868 19.8053 10.9702C19.9101 11.0179 19.8634 11.1672 19.8634 11.1672C19.9052 11.1525 19.9501 11.1491 19.9936 11.1575C20.0371 11.1659 20.0776 11.1857 20.1108 11.2149C20.2125 11.3171 20.3566 11.5818 20.4305 11.6814C20.503 11.7712 20.5709 11.8646 20.6339 11.9613C20.7522 12.1586 20.8511 12.3669 20.929 12.5834C20.9332 12.4707 20.9615 12.2951 21.2822 12.4052C21.603 12.5153 21.9672 12.7543 22.2728 13.2197C22.5784 13.6851 22.6544 14.2108 22.8079 14.4105C22.9615 14.6102 23.1224 14.9241 23.1355 15.0588C23.1486 15.1935 23.0878 15.6264 23.4086 16.7994C23.4992 16.4351 23.6381 15.6264 23.6381 15.6264L23.7141 14.9136L23.8006 12.7071L21.4945 10.7925L19.6947 9.48535L18.5222 9.59856L18.5961 9.76523H18.5982Z" fill="#CAA13E"/>
<path fill-rule="evenodd" clip-rule="evenodd" d="M22.8792 13.0494C22.8792 13.0494 22.8467 12.835 22.3027 12.4729C21.7587 12.1107 21.3378 12.1128 20.9478 11.8073C20.6486 11.5667 20.3367 11.0137 20.1334 10.8319C19.93 10.65 19.9043 10.1296 19.9043 10.1296L20.5694 9.57242L21.5595 8.1421L22.3981 7.2207L22.799 7.77784L23.3562 8.43246L23.6659 9.7459L23.7786 11.6689L22.8787 13.0494H22.8792Z" fill="#B59544"/>
<path fill-rule="evenodd" clip-rule="evenodd" d="M23.549 15.3542C23.5658 15.0627 23.5303 14.7706 23.4442 14.4915C23.2706 13.9719 23.0703 13.4616 22.8441 12.9627C22.7854 12.6351 22.8289 12.6094 22.8918 12.5722C22.9547 12.535 23.1911 12.4008 23.3205 11.9286C23.45 11.4564 23.8515 11.4412 23.8515 11.4412L24.0988 11.2588L24.472 12.1985L24.7991 13.046L24.9013 13.6944L24.9773 14.2468L24.7991 15.415L23.9217 16.2086L23.5485 15.3553L23.549 15.3542Z" fill="#C89D3A"/>
<path fill-rule="evenodd" clip-rule="evenodd" d="M11.2999 28.3765V28.3523C11.3182 28.341 11.3344 28.3265 11.3476 28.3094C11.3628 28.2879 11.3738 28.2617 11.3848 28.257C11.4408 28.2328 11.5015 28.2216 11.5625 28.2245C11.6149 28.2344 11.7595 28.2936 11.8355 28.2895C11.9928 28.2853 12.1736 28.1658 12.4618 28.2203C12.8953 28.3005 12.9975 28.595 13.248 28.7617C13.3595 28.8322 13.4945 28.8558 13.6233 28.8272H13.6815C13.6925 28.8272 13.7727 28.736 13.8162 28.7402C13.9026 28.7444 13.9115 28.8162 13.9655 28.8204C14.0934 28.8356 14.3408 28.7554 14.464 28.7879C14.5031 28.8002 14.5385 28.8224 14.5665 28.8524C14.5946 28.8823 14.6145 28.919 14.6243 28.9588C14.6341 28.9987 14.6335 29.0404 14.6225 29.08C14.6115 29.1195 14.5904 29.1556 14.5615 29.1846C14.4273 29.3078 14.2994 29.4252 14.2737 29.5274C14.3067 29.5526 14.3382 29.5798 14.3686 29.6081C13.296 29.3348 12.2641 28.9216 11.2993 28.3791L11.2999 28.3765Z" fill="#CEB052"/>
<path fill-rule="evenodd" clip-rule="evenodd" d="M22.842 24.0442C22.842 24.0442 23.1801 23.5935 23.2975 23.3702C23.4149 23.1469 22.9269 20.2255 22.9269 20.2255L23.9065 17.0153L23.8803 15.9707C23.8803 15.9707 23.928 15.0063 24.0407 14.5876C24.1754 14.8281 24.5936 15.119 24.6848 15.2726C24.7278 14.978 24.873 14.3559 24.8515 13.6924C24.9317 13.8161 25.1245 15.0582 25.1245 15.0582L25.3174 15.8968L25.569 16.7878L25.8489 17.726L26.0155 18.3743L26.1109 18.5316L26.1937 18.8031L26.2697 19.0976L26.4883 19.7894L26.613 20.355L26.7179 21.3849C26.7401 21.4637 26.756 21.5441 26.7656 21.6254C26.767 21.6915 26.7619 21.7575 26.7504 21.8225C26.7702 21.9613 26.7776 22.1016 26.7724 22.2418C26.7504 22.4132 26.7504 22.5473 26.6151 22.6705C26.4799 22.7937 26.3961 23.529 26.3961 23.529L26.1555 23.3686C26.1811 23.2255 26.1582 23.078 26.0905 22.9493C26.0469 22.8703 25.9792 22.8074 25.8972 22.7696C25.8153 22.7319 25.7234 22.7214 25.635 22.7397C25.5119 22.7654 25.265 22.8047 25.1843 22.8739C25.1036 22.9431 24.9222 23.1579 24.7508 23.2554C24.5365 23.3838 24.1874 23.3943 24.0014 23.4373C23.8153 23.4803 23.6046 23.6087 23.3855 23.7581C23.2136 23.8695 23.0321 23.9652 22.8431 24.0442H22.842Z" fill="#CCA847"/>
<path fill-rule="evenodd" clip-rule="evenodd" d="M22.842 28.7812C22.842 28.7812 22.8567 28.7906 22.8839 28.8058C24.4239 28.0842 25.8038 27.0614 26.9422 25.7979C26.9296 25.3592 26.9134 24.9069 26.8955 24.7428C26.8588 24.3896 26.8851 24.03 26.874 23.822C26.863 23.6139 26.7462 22.7664 26.6922 22.5473C26.6382 22.3282 26.5208 22.2197 26.5035 22.2197C26.4862 22.2197 26.3987 22.6317 26.3987 22.7344C26.3987 22.8371 26.3772 23.0835 26.3772 23.1464C26.362 23.1417 26.3557 23.1034 26.3557 23.0877C26.3337 23.1401 26.3075 23.237 26.297 23.248C26.2865 23.2591 26.3122 23.1574 26.297 23.1354C26.2818 23.1133 26.254 23.1244 26.2598 23.0704C26.2625 23.0382 26.2676 23.0064 26.275 22.975C26.275 22.975 26.21 23.0704 26.1628 23.313C26.1156 23.5557 26.1146 23.5604 26.0973 23.5819C26.08 23.6034 25.9956 23.6946 25.9925 23.7271C25.9878 23.7858 26.0727 23.8445 26.079 23.8765C26.0832 23.9289 26.003 24.1825 25.9773 24.3052C25.9516 24.4278 25.9621 24.6695 25.9343 24.7931C25.9128 24.9058 25.8913 24.9708 25.8174 25.0185C25.8698 25.029 25.9222 25.0442 25.9222 25.0442C25.9625 25.25 25.9205 25.4633 25.8054 25.6385C25.7362 25.7334 25.7189 25.7769 25.645 25.8639C25.4998 26.0243 25.3871 26.2067 25.3761 26.3257C25.3688 26.2911 25.3637 26.2561 25.3609 26.2208C25.247 26.3525 25.1399 26.49 25.0402 26.6328C24.917 26.8257 24.7456 26.8147 24.6974 26.8624C24.6745 26.8905 24.6587 26.9236 24.6512 26.9591C24.6438 26.9946 24.6449 27.0313 24.6544 27.0662C24.6114 27.0767 24.5307 27.0919 24.4767 27.2591C24.444 27.3574 24.375 27.4395 24.2839 27.4887C24.1927 27.533 24.0956 27.5637 23.9956 27.5799C24.0309 27.5855 24.0652 27.5965 24.0973 27.6124C24.0648 27.6648 23.9154 27.7513 23.7482 27.8592C23.6177 27.9423 23.5168 28.0645 23.4599 28.2083C23.4436 28.252 23.4153 28.2903 23.3782 28.3186C23.3411 28.347 23.2968 28.3643 23.2503 28.3687C23.2933 28.3949 23.3551 28.4557 23.3892 28.4735C23.2862 28.4878 23.1904 28.5349 23.1161 28.6077C22.9641 28.7335 22.9122 28.7707 22.8431 28.7812H22.842Z" fill="#C39D3C"/>
<path fill-rule="evenodd" clip-rule="evenodd" d="M19.8262 29.7858C19.9093 29.7275 19.9992 29.6798 20.094 29.6437C20.4321 29.5095 20.7895 29.4833 20.9326 29.4398C21.0757 29.3963 21.1732 29.3382 21.3399 29.3057C21.3357 29.3434 21.332 29.3796 21.3278 29.4105C20.8358 29.5649 20.3349 29.6894 19.8278 29.7831L19.8262 29.7858Z" fill="#D2BA6B"/>
<path fill-rule="evenodd" clip-rule="evenodd" d="M26.0616 20.8942C26.0616 20.8942 25.9925 21.269 25.8688 21.5053C25.7451 21.7417 25.6114 22.0688 25.6114 22.0688C25.6123 21.995 25.621 21.9216 25.6376 21.8497C25.4804 21.9409 25.102 22.16 24.9945 22.2575C24.8871 22.3549 24.7215 22.509 24.6801 22.5845C24.7823 22.2858 24.8897 22.0169 24.9054 21.8932C24.7482 22.0059 24.0212 22.6065 23.6418 23.0033L22.4604 23.9587C22.3246 24.0324 22.1846 24.0982 22.0411 24.1558C21.8378 24.2423 21.5972 24.3162 21.419 24.3854C21.4699 24.2539 21.5483 24.1349 21.6491 24.0363C21.7618 23.9315 22.0998 23.5646 22.1517 23.3937C22.1994 23.2155 22.2104 23.1097 22.1475 22.9598C22.0888 22.975 21.9547 22.9818 21.8635 23.008C21.7928 23.0357 21.7286 23.0776 21.6748 23.1312C21.7245 22.8679 21.7978 22.6097 21.8939 22.3597C21.7812 22.3638 21.5883 22.3963 21.5883 22.3963C21.7792 22.0974 22.026 21.8381 22.3152 21.6327C22.1745 21.6628 22.0368 21.7056 21.9038 21.7606C21.6349 21.8733 21.3399 22.0405 21.1213 22.1311C21.2445 21.9598 22.1114 20.7223 22.6276 19.5693C23.1439 18.4162 23.3341 18.1237 23.4468 17.5058C23.5055 17.2002 23.4898 16.7485 23.5055 16.3438C23.5212 15.9392 23.5705 15.5833 23.538 15.3428C23.6722 15.5094 24.1753 15.9796 24.1926 17.031C24.2099 18.0823 23.7115 19.5022 23.1848 20.2674C23.3132 20.3041 23.6465 20.3476 23.9888 19.7527C24.331 19.1578 24.3268 18.9922 24.4505 18.7448C24.4594 18.8001 24.4629 18.8561 24.461 18.912C24.461 18.912 24.9599 18.3072 25.1947 17.5462C25.2424 17.8737 25.3829 18.162 25.1617 18.7621C24.9647 19.3041 24.7068 19.4367 24.7068 19.4367C24.8184 19.4095 24.9246 19.364 25.0213 19.302C25.0538 19.3821 25.0475 19.4733 25.1015 19.5058C25.1554 19.5383 25.2293 19.5923 25.2403 19.6447C25.2985 19.5577 25.3897 19.4471 25.418 19.3649C25.396 19.5362 25.3808 20.2862 25.4605 20.6678C25.6277 20.6526 25.7991 20.6416 25.9159 20.3402C25.841 20.5745 25.8319 20.8249 25.8897 21.064C25.9539 21.0161 26.0109 20.9593 26.059 20.8953L26.0616 20.8942Z" fill="#C0993A"/>
<path fill-rule="evenodd" clip-rule="evenodd" d="M20.4285 8.94906C20.2836 8.99896 20.1309 9.02239 19.9777 9.01824C19.7309 9.01824 19.8 8.92285 19.4143 8.92285C18.8205 8.92285 16.746 9.26615 16.3817 9.26091C16.1454 9.25671 17.1794 9.36311 17.1794 9.36311L19.822 9.3998L20.353 9.35682L20.55 8.95535L20.4285 8.94906Z" fill="#A88F33"/>
<path fill-rule="evenodd" clip-rule="evenodd" d="M13.5782 14.1119C13.5782 14.1119 13.2402 14.3697 13.0971 14.5673C12.954 14.7649 12.878 14.8944 12.7155 15.0547C12.7537 15.0563 12.7918 15.0511 12.8282 15.0395C12.8282 15.0395 12.8282 15.0825 12.802 15.092C12.8245 15.0894 12.8473 15.0919 12.8687 15.0992C12.8901 15.1065 12.9096 15.1186 12.9257 15.1344C12.878 15.1606 12.748 15.2916 12.8497 15.4447C12.9257 15.5616 13.0861 15.5726 13.0861 15.5726C13.0861 15.5726 13.0494 15.6774 13.203 15.668C13.5347 15.6528 13.9053 15.5076 14.0767 15.5443C14.2481 15.581 14.3456 15.603 14.4666 15.8131C14.5956 16.0228 14.7072 16.0537 14.7072 16.0537C14.7585 15.8988 14.7785 15.7353 14.7659 15.5726C14.8283 15.4173 14.8629 15.2524 14.8681 15.0851L14.7549 14.2549L14.2633 13.6328L13.6259 13.9861L13.5782 14.1092V14.1119Z" fill="#E3C571"/>
<path fill-rule="evenodd" clip-rule="evenodd" d="M14.1831 13.9885C14.1831 13.9885 14.2308 14.1017 14.4299 14.1122C14.4212 14.1255 14.4154 14.1405 14.4128 14.1562C14.4101 14.1719 14.4108 14.188 14.4147 14.2034C14.4189 14.2401 14.4258 14.2941 14.4258 14.2941C14.4477 14.2835 14.4676 14.2691 14.4845 14.2516C14.4949 14.2993 14.4734 14.3748 14.4845 14.4293C14.4909 14.4623 14.5016 14.4944 14.5164 14.5247C14.5196 14.5171 14.5232 14.5097 14.5274 14.5027C14.5658 14.5815 14.6164 14.6539 14.6773 14.717C14.6769 14.702 14.6806 14.6872 14.6878 14.6741C14.6893 14.7013 14.6984 14.7276 14.714 14.7501C14.7058 14.7464 14.6983 14.7413 14.692 14.7349C14.692 14.7349 14.703 15.0781 14.7617 15.2553C14.7713 15.2438 14.7799 15.2316 14.7874 15.2186C14.7874 15.2076 14.7832 15.314 14.7722 15.39C14.7633 15.4502 14.7619 15.5113 14.768 15.5719C14.8072 15.5412 14.8502 15.5157 14.8959 15.4959C14.9609 15.4697 15.0673 15.391 15.1323 15.2118C15.1699 15.1112 15.1988 15.0076 15.2187 14.902C15.2397 14.9423 15.2542 14.9857 15.2617 15.0305C15.2664 15.0829 15.3665 15.0567 15.3665 15.0567L15.388 14.8203L15.517 14.2852L15.6338 13.9534L16.1973 13.0755L17.2156 12.2893L18.1066 12.4932L18.8561 11.4764L17.5642 10.7002L16.3404 10.8281L15.2308 12.3648L14.3424 13.7589L14.182 13.9885H14.1831Z" fill="#D8B65B"/>
<path fill-rule="evenodd" clip-rule="evenodd" d="M20.5857 11.7644C20.4829 11.796 20.384 11.8392 20.2911 11.8933C20.072 12.0066 19.9206 12.0427 19.8357 12.2078C19.7865 12.3008 19.7558 12.4024 19.745 12.5071C19.8218 12.4734 19.9005 12.4446 19.9808 12.4206C20.072 12.3991 20.1737 12.4054 20.1632 12.4421C20.1527 12.4673 20.1382 12.4907 20.1203 12.5113C20.1203 12.5113 20.2916 12.5071 20.2869 12.592C20.285 12.6692 20.2627 12.7446 20.2225 12.8106C20.1894 12.8535 20.0553 12.9154 20.0401 12.9678C20.0034 13.07 20.0553 13.0726 20.0359 13.1565C20.0165 13.2403 19.9494 13.3928 19.7151 13.6659C19.5847 13.8086 19.4697 13.9648 19.3723 14.1319C19.3028 14.0006 19.2432 13.8643 19.1941 13.7241C19.1517 13.7461 18.9211 13.874 18.9211 13.874L18.388 12.0165L18.3985 11.8928C18.433 11.8435 18.4533 11.7857 18.4572 11.7256C18.377 11.6999 18.3666 11.6779 18.2602 11.5763C18.1538 11.4746 18.0673 11.3509 17.8896 11.2665C17.8729 11.229 17.8468 11.1964 17.8137 11.172C17.7806 11.1477 17.7417 11.1324 17.7009 11.1276C17.5709 11.1014 17.4913 11.0799 17.4913 11.0799C17.5322 11.0636 17.5676 11.0358 17.593 10.9997C17.4877 11.0234 17.38 11.0343 17.2722 11.0322C17.0945 11.028 17.0751 11.0212 16.9776 11.0364C16.8802 11.0516 16.7633 11.0951 16.7198 10.9457C16.6721 10.9085 16.5699 10.941 16.4834 11.0689C16.3969 11.1968 16.3665 11.2985 16.1993 11.3488C16.1879 11.4229 16.1623 11.4941 16.1239 11.5584C16.0558 11.6572 15.9803 11.7506 15.898 11.8378C15.7376 12.0265 15.7638 12.3362 15.508 12.5716C15.2523 12.8069 15.551 11.9169 15.551 11.9169L15.9624 10.9311L17.1354 9.7843L18.9562 9.66113L19.1339 10.6045L20.0249 10.9101L20.5857 11.766V11.7644Z" fill="#D3AE4D"/>
<path fill-rule="evenodd" clip-rule="evenodd" d="M20.8739 11.9723L20.1087 10.869L19.5736 10.4571C19.5736 10.4571 19.1921 9.75526 19.1658 9.73325C19.1396 9.71123 18.7848 9.68083 18.5547 9.66406L18.5977 9.76889C18.6478 9.78496 18.6924 9.81495 18.7261 9.85537C18.8309 9.97224 18.8933 10.1934 18.6611 10.4319C18.7263 10.463 18.7992 10.4743 18.8708 10.4644C18.7906 10.5598 18.6087 10.7637 18.5977 10.9413C18.5872 11.0865 18.6779 11.13 18.6779 11.13C18.5848 11.2534 18.5338 11.4036 18.5327 11.5582C18.5983 11.4845 18.67 11.4165 18.7471 11.3549C18.9159 11.223 19.0923 11.1012 19.2754 10.9901C19.2736 11.0283 19.2787 11.0664 19.2906 11.1028C19.2906 11.1028 19.5705 10.8732 19.8053 10.9749C19.9101 11.0226 19.8634 11.1719 19.8634 11.1719C19.9052 11.1571 19.9501 11.1537 19.9936 11.1621C20.0371 11.1705 20.0776 11.1904 20.1108 11.2196C20.2125 11.3245 20.3577 11.5865 20.4316 11.6861C20.5041 11.7757 20.572 11.8689 20.635 11.9655C20.7535 12.1626 20.8524 12.371 20.93 12.5876C20.9342 12.5006 20.952 12.3779 21.1014 12.3779L20.8739 11.9707V11.9723Z" fill="#CAA13E"/>
<path fill-rule="evenodd" clip-rule="evenodd" d="M9.40363 15.107C9.40363 15.107 9.35122 14.9723 9.40363 14.7102C9.45605 14.4482 9.542 14.3245 9.5703 13.9387C9.59861 13.553 9.85018 13.0713 9.85018 13.0713L10.5457 12.7568L11.0378 12.891L11.183 13.5498L10.5609 13.8931C10.525 14.003 10.4505 14.0961 10.3512 14.1552C10.1757 14.2721 9.93194 14.3648 9.87429 14.4822C9.83955 14.5554 9.81419 14.6328 9.79882 14.7123C9.79882 14.7123 9.62062 14.6751 9.51475 14.7925C9.40888 14.9099 9.40626 15.0179 9.40206 15.107H9.40363Z" fill="#F4EFC8"/>
<path fill-rule="evenodd" clip-rule="evenodd" d="M10.8083 14.9309C10.7636 14.9643 10.7283 15.0087 10.7061 15.0598C10.6631 14.9906 10.5609 14.5787 10.5567 14.2076C10.5525 13.8365 10.53 13.7453 10.6159 13.6175C10.7019 13.4896 11.0378 13.3554 10.9901 13.1253C10.9424 12.9062 10.7428 12.8156 10.498 12.8779C10.3266 12.9209 10.1987 13.2857 10.021 13.4676C9.88687 13.6064 9.72649 13.585 9.68299 13.6604C9.62429 13.7653 9.67879 13.8643 9.6615 13.9293C9.62076 14.0287 9.56795 14.1227 9.50426 14.2092C9.3072 14.4927 8.97333 14.8942 8.92773 15.2538C8.94293 15.0499 8.93193 15.0441 8.98644 14.8203L8.95394 14.7679L9.16778 14.0656L9.30667 13.489L9.61695 12.52L10.1631 11.5294L10.694 10.9355L11.247 10.9722L11.3119 11.8024L11.6264 13.3612L12.292 14.1804L11.2302 14.8942L10.8077 14.9309H10.8083Z" fill="#EBCC73"/>
<path fill-rule="evenodd" clip-rule="evenodd" d="M11.1395 15.2253C11.0994 15.2365 11.0572 15.2381 11.0163 15.23C10.9833 15.2127 10.9513 15.1928 10.9639 15.1713C10.9765 15.1498 11.0331 15.1131 11.0331 15.0953C11.0343 15.0798 11.0296 15.0645 11.0198 15.0524C11.0101 15.0403 10.9961 15.0324 10.9807 15.0303C10.9685 15.0272 10.9556 15.0281 10.9439 15.0328C10.9322 15.0375 10.9223 15.0458 10.9157 15.0565C10.89 15.0367 10.8606 15.0221 10.8292 15.0135C10.8522 15.0108 10.8753 15.0094 10.8984 15.0094C10.8384 14.9828 10.7748 14.9651 10.7097 14.9569C10.7621 14.9244 10.8701 14.8291 10.9398 14.8291C11.0095 14.8291 11.0525 14.8186 11.0415 14.7814C11.0165 14.7292 10.9721 14.6887 10.9178 14.6687C10.9398 14.643 10.955 14.6037 10.9031 14.4973C10.8512 14.3909 10.8701 14.3196 10.8879 14.2939C10.9171 14.2496 10.9488 14.2069 10.9828 14.166C11.005 14.1225 11.036 14.0841 11.074 14.0534C11.1257 14.0262 11.1793 14.0029 11.2344 13.9837C11.3104 13.958 11.3732 13.9255 11.4168 13.958C11.4298 13.9651 11.4397 13.9769 11.4444 13.991C11.4492 14.005 11.4485 14.0204 11.4424 14.034C11.5357 14.0031 11.6371 14.0086 11.7265 14.0492C11.8607 14.1136 12.1883 14.154 12.1883 14.154L12.3046 14.3893L11.5284 15.055L11.204 15.2153L11.139 15.2258L11.1395 15.2253Z" fill="#E5C66B"/>
<path fill-rule="evenodd" clip-rule="evenodd" d="M12.2171 14.1369C12.1143 14.2038 12.0158 14.2769 11.922 14.3559C11.9545 14.3601 12.0085 14.3816 11.987 14.4141C11.9655 14.4466 11.8051 14.5593 11.7181 14.6657C11.6373 14.7596 11.567 14.862 11.5085 14.9712C11.476 15.03 11.2291 15.2013 11.1447 15.2228C11.3224 15.2228 11.6799 15.0037 11.814 15.0037C11.8104 15.0378 11.8201 15.072 11.8412 15.099C11.8622 15.1261 11.8928 15.144 11.9267 15.1489C12.1331 15.1786 12.3431 15.1308 12.5164 15.0148C12.8114 14.8371 12.714 14.7045 12.8371 14.618C13.0735 14.4608 13.1689 14.3229 13.2989 14.2364C13.3598 14.1929 13.4263 14.1577 13.4965 14.1316C13.4965 14.1316 13.5007 14.0666 13.5389 14.0734C13.5495 14.0746 13.5595 14.0787 13.5679 14.0851C13.5763 14.0916 13.5828 14.1002 13.5866 14.1101C13.7421 14.007 13.9174 13.9375 14.1013 13.9062C14.0946 13.9034 14.0892 13.8981 14.0861 13.8916C14.0861 13.8916 14.1076 13.8806 14.1123 13.8696C14.1123 13.8696 14.1275 13.8481 14.138 13.8585C14.1485 13.869 14.1642 13.9497 14.1857 13.9822C14.2334 13.9608 14.3246 13.7569 14.3246 13.7569L14.5436 13.1305V12.5566L14.3723 12.5891L13.0861 13.1353L12.3057 13.944L12.2166 14.1369H12.2171Z" fill="#E6BD62"/>
<path fill-rule="evenodd" clip-rule="evenodd" d="M15.921 11.3299C15.9906 11.313 16.0574 11.286 16.1191 11.2497C16.0929 11.361 16.0458 11.4663 15.9802 11.56C15.901 11.6741 15.8309 11.7944 15.7706 11.9195C15.6794 12.0972 15.6689 12.353 15.5819 12.4657C15.6208 12.4467 15.6626 12.4343 15.7056 12.429C15.6556 12.4738 15.6137 12.527 15.5819 12.5862C15.5452 12.6664 15.4802 12.8331 15.3199 12.9353C15.1595 13.0375 14.953 13.1019 14.7365 13.3425C14.5201 13.5831 14.2926 13.8781 14.1794 13.9856C14.2542 13.8477 14.3083 13.6995 14.3398 13.5459C14.3618 13.4112 14.3356 13.2508 14.3723 13.0742C14.4089 12.8975 14.4095 12.7686 14.5866 12.4583C14.7638 12.148 15.0678 11.071 15.0678 11.071L15.7224 10.8613L15.92 11.3294L15.921 11.3299Z" fill="#B6933F"/>
<path fill-rule="evenodd" clip-rule="evenodd" d="M15.4493 10.9335C15.4493 10.9335 15.2517 11.2175 15.1977 11.4691C15.1438 11.7207 15.1936 11.6987 15.1611 11.8224C15.1417 11.8978 15.1417 11.977 15.1611 12.0525C15.2293 11.9423 15.3227 11.85 15.4336 11.7831C15.6202 11.6709 15.7717 11.5902 15.8623 11.4953C15.953 11.4005 16.029 11.2264 16.2266 11.0986C16.1464 11.0876 16.0337 11.0509 16.0122 11.0556C16.0924 10.9644 16.333 10.826 16.5757 10.6588C16.8183 10.4916 16.801 10.4183 17.1915 10.2474C17.0636 10.2689 17.0028 10.2364 16.8964 10.2474C16.9394 10.1562 17.0893 10.1127 17.2392 9.96332C17.3891 9.81395 17.1438 9.59277 17.1438 9.59277L16.0007 10.2841L15.4483 10.9345L15.4493 10.9335Z" fill="#C49937"/>
<path fill-rule="evenodd" clip-rule="evenodd" d="M12.345 10.4176L12.3712 10.2095L12.6982 9.68484L13.041 8.76396V7.50451L13.0148 6.77651L13.0688 6.29956L13.1102 6.14757L13.1537 6.08887L13.433 6.23405L13.8188 6.75869L13.8555 7.77128L13.4807 9.36879L12.41 10.5371L12.345 10.4176Z" fill="#DFC068"/>
<path fill-rule="evenodd" clip-rule="evenodd" d="M13.1956 6.03176C13.1956 6.03176 13.0242 6.03595 12.986 6.74928C12.9477 7.4626 12.9335 7.83734 12.9058 8.1906C12.878 8.54385 12.8193 8.75822 12.7889 8.96629C12.7585 9.17437 12.7407 9.45844 12.6437 9.63192C12.6007 9.71211 12.509 9.96369 12.2946 10.1524C12.0995 10.3119 11.878 10.4361 11.64 10.5193C11.5446 10.5407 11.0609 10.5884 10.8638 10.6969C10.7466 10.747 10.6383 10.8157 10.543 10.9003C10.1899 11.2348 9.89899 11.6295 9.68402 12.0659C9.29722 12.828 8.91147 14.9769 8.91147 14.9769L8.99795 14.8317C8.99795 14.8317 9.00895 14.6388 9.20183 14.3008C9.3947 13.9627 9.33653 13.5832 9.59859 12.9354C9.70946 12.6481 9.8383 12.368 9.98434 12.0968C10.2317 11.6524 10.5305 11.2708 10.8318 11.0628C11.1439 10.8547 11.4962 10.7145 11.8659 10.6513L12.4487 10.2598C12.4487 10.2598 12.5509 10.0622 12.6851 9.83685C12.8738 9.52238 13.1138 9.16703 13.1663 8.65339C13.2464 7.8929 13.0536 7.39551 13.0646 6.9432C13.0756 6.49089 13.0798 6.16069 13.1694 6.0805C13.259 6.00031 13.1951 6.02809 13.1951 6.02809L13.1956 6.03176Z" fill="#A88F33"/>
<path fill-rule="evenodd" clip-rule="evenodd" d="M13.1956 9.4342C13.3506 9.04611 13.4759 8.64681 13.5704 8.23974C13.5924 8.12705 13.6353 8.01437 13.6463 7.92527C13.6988 7.39434 13.7155 7.17526 13.6463 6.88489C13.5939 6.67053 13.3843 6.47713 13.2758 6.32776C13.1673 6.17838 13.1186 6.11339 13.1416 6.08037C13.1651 6.05392 13.1942 6.033 13.2267 6.01913C13.2592 6.00527 13.2944 5.9988 13.3298 6.00018C13.4173 6.00273 13.5033 6.02305 13.5827 6.0599C13.6621 6.09675 13.7331 6.14937 13.7915 6.21455C13.9598 6.40533 14.0918 7.06205 14.0918 7.06205L14.2307 7.92579L14.584 9.01386L13.1956 9.43473V9.4342Z" fill="#C99E3D"/>
<path fill-rule="evenodd" clip-rule="evenodd" d="M15.6134 8.77454C15.5698 8.78882 15.5228 8.78882 15.4792 8.77454C15.4828 8.80999 15.4766 8.84576 15.4612 8.87793C15.4459 8.91009 15.422 8.93742 15.3922 8.95693C15.3015 8.91972 14.4488 8.99362 14.4488 8.99362C14.4488 8.99362 14.052 8.92444 13.9283 8.39979C13.8419 8.05073 13.9933 7.56959 13.9435 7.25303C13.8681 6.78709 13.7617 6.69589 13.7507 6.55071C13.7396 6.40553 13.7292 6.36884 13.7292 6.27764C13.6892 6.26384 13.6476 6.25521 13.6055 6.25196C13.595 6.20898 13.6165 6.17125 13.5688 6.09473C13.7256 6.13212 13.8688 6.21295 13.9818 6.32796C14.0644 6.39711 14.1315 6.48282 14.1789 6.57954C14.2114 6.61203 14.4739 6.83688 14.5866 7.06067C14.6993 7.28447 14.9179 7.99937 14.9682 8.11625C14.9829 8.16394 15.0159 8.21164 15.0966 8.32013C15.2224 8.47736 15.4063 8.73418 15.6144 8.77716L15.6134 8.77454Z" fill="#B58634"/>
<path fill-rule="evenodd" clip-rule="evenodd" d="M14.2087 6.59082C14.3403 6.80272 14.4583 7.02277 14.562 7.24964C14.6899 7.5379 14.7659 7.77375 14.9289 7.96715C14.8424 7.71558 14.6883 7.22133 14.5976 7.04575C14.4954 6.86022 14.2874 6.66 14.2114 6.59082H14.2087Z" fill="#A88F33"/>
<path fill-rule="evenodd" clip-rule="evenodd" d="M12.7349 10.1535C12.7349 10.1535 12.5158 10.2059 12.106 10.4219C11.9713 10.4916 11.8439 10.5498 11.7202 10.6043C11.4175 10.7442 11.1048 10.8614 10.7847 10.9549C10.7948 10.9677 10.8057 10.98 10.8172 10.9916C10.8176 11.0521 10.8383 11.1108 10.8759 11.1583C10.8434 11.1913 10.4094 11.4858 10.5378 12.4722C10.6243 12.4397 10.726 12.3962 10.7412 12.3962C10.7674 12.4004 10.7737 12.4722 10.8062 12.4722C10.8387 12.4722 10.9451 12.4293 11.0577 12.2835C11.0535 12.3422 10.9886 12.9314 11.3376 13.3281C11.4026 13.2521 11.5672 13.0011 11.5672 13.0011L11.5714 12.9209C11.5837 12.7386 11.6189 12.5587 11.6762 12.3852C11.7378 12.2218 11.829 12.0712 11.9451 11.9408L12.8722 10.6163L12.7339 10.1504L12.7349 10.1535Z" fill="#E6C367"/>
<path fill-rule="evenodd" clip-rule="evenodd" d="M11.868 12.0967C11.8256 12.1267 11.7787 12.1501 11.7292 12.1659C11.7142 12.093 11.7146 12.0178 11.7303 11.945C11.746 11.8723 11.7766 11.8036 11.8204 11.7434C11.9697 11.5243 12.2973 11.2403 12.388 11.0144C12.4467 10.8692 12.4205 10.5055 12.9409 10.039C13.4614 9.57253 13.6647 9.41005 13.6647 9.41005L14.5059 8.99023L15.5395 9.39747L15.0259 11.4127L14.627 12.3561L13.041 12.0568L11.868 12.0988V12.0967Z" fill="#DCBA5A"/>
<path fill-rule="evenodd" clip-rule="evenodd" d="M12.4734 11.5508L12.6705 11.3039V11.1283C12.6705 11.1283 12.8895 11.0696 13.1259 10.8291C13.3623 10.5885 13.6893 10.1267 13.9776 10.1545C14.2659 10.1823 14.2921 10.7835 14.3052 10.948C14.3183 11.1126 14.3529 11.4942 14.41 11.698C14.4671 11.9019 13.7087 12.6713 13.7087 12.6713L13.1878 13.0681L12.4734 11.5481V11.5508Z" fill="#E9CE77"/>
<path fill-rule="evenodd" clip-rule="evenodd" d="M13.084 13.6073C13.084 13.6073 13.2443 13.3558 13.1269 13.3013C13.1816 13.188 13.2477 13.0805 13.324 12.9805C13.324 12.9805 13.4152 12.7551 13.7098 12.4779C14.0043 12.2006 14.1867 12.0161 14.2339 11.8295C14.2634 11.7082 14.2794 11.5839 14.2816 11.459C14.3133 11.485 14.3474 11.5082 14.3832 11.5282C14.4309 11.5502 14.6563 11.7378 14.6243 12.1115C14.5924 12.4852 14.4535 12.6424 14.4535 12.6424C14.3812 12.7151 14.3046 12.7832 14.2239 12.8463C14.1222 12.9155 14.0855 12.9957 13.9142 13.0036C13.9315 12.9894 13.9512 12.9784 13.9723 12.9711C13.9723 12.9711 13.7947 12.9496 13.6993 13.0361C13.6039 13.1225 13.401 13.3893 13.2994 13.4695C13.1972 13.5345 13.085 13.6084 13.085 13.6084L13.084 13.6073Z" fill="#CDAE50"/>
<path fill-rule="evenodd" clip-rule="evenodd" d="M20.2911 9.39001C20.0351 9.29626 19.7659 9.2432 19.4934 9.23278C19.038 9.21758 18.3729 9.24379 17.7203 9.24798C17.018 9.25217 16.3807 9.00741 15.4965 8.96391C15.3513 8.87743 14.9823 8.49797 13.8298 9.30196C13.899 9.29777 14.6684 9.12429 14.9331 9.4592C15.1977 9.79411 15.1259 10.3544 15.0903 10.4886C15.0206 10.7878 14.7952 11.2223 14.704 11.5295C14.6128 11.8366 14.6348 11.9954 14.5699 12.2108C14.5049 12.4262 14.3602 12.5316 14.4462 12.7784C14.5589 12.7092 14.6176 12.7092 14.8062 12.2868C14.9949 11.8644 14.9556 11.5625 15.268 11.205C15.5804 10.8476 16.0825 10.3533 16.2759 10.2297C16.4693 10.106 18.0054 9.30825 19.614 10.0693C20.0018 10.0284 20.2922 9.38792 20.2922 9.38792L20.2911 9.39001Z" fill="#D2A83E"/>
<path fill-rule="evenodd" clip-rule="evenodd" d="M14.4776 9.09571C14.476 9.07946 14.4725 9.06345 14.4671 9.04802C14.4519 9.01632 14.4321 8.98702 14.4084 8.96101C14.4084 8.96101 14.0269 8.89183 13.8319 8.91332C13.4939 8.95053 13.1878 9.36878 13.0457 9.58314C12.9037 9.7975 12.7245 10.1293 12.5316 10.3007C12.5337 10.284 12.53 10.2672 12.5211 10.253C12.5211 10.253 12.5316 10.2682 12.5101 10.2902C12.4886 10.3122 12.4886 10.3221 12.4996 10.3326L12.5321 10.3651C12.5426 10.3651 12.8419 10.2309 13.2496 9.85096C13.6831 9.45421 14.0143 9.25085 14.1878 9.18114C14.2803 9.14178 14.377 9.11312 14.4761 9.09571H14.4776Z" fill="#C29637"/>
<path fill-rule="evenodd" clip-rule="evenodd" d="M21.8776 7.46582C21.8776 7.46582 21.8084 7.55282 21.7204 7.64821C21.5291 7.8521 21.277 8.08166 21.0626 8.32013C20.8587 8.5455 20.6292 8.72108 20.3713 9.01564C20.1134 9.31019 19.8136 9.63776 19.7382 9.73315C19.6695 9.83149 19.627 9.94565 19.6145 10.0649C19.5778 10.0387 19.5348 10.0125 19.5348 10.0125C19.5529 10.0467 19.5747 10.0789 19.5998 10.1084C19.6522 10.1839 19.7382 10.2798 19.7817 10.338C19.835 10.4121 19.8733 10.496 19.8944 10.5848C19.92 10.589 20.0872 10.6221 20.2953 10.2793C20.5034 9.93651 20.7765 9.56177 20.7765 9.56177L21.2099 8.91815L21.483 8.37202L21.8263 7.7609L21.8787 7.47001L21.8776 7.46582Z" fill="#AC8132"/>
<path fill-rule="evenodd" clip-rule="evenodd" d="M22.3221 7.02749C22.1923 7.1325 22.0705 7.24708 21.9578 7.37026C21.8561 7.49919 21.615 7.83672 21.615 7.83672L21.7015 7.82572L22.1418 7.43577L22.3152 7.13021L22.3242 7.02539L22.3221 7.02749Z" fill="#A88F33"/>
<path fill-rule="evenodd" clip-rule="evenodd" d="M22.2419 24.2534C22.2419 24.2534 22.2377 24.0758 22.3373 23.9694C22.4368 23.863 22.6968 23.7073 22.9484 23.1219C23.1999 22.5364 23.2277 22.4044 23.2277 22.4044C23.2277 22.4044 22.777 22.7901 22.4992 22.8813C22.5642 22.7466 22.6009 22.6512 22.6339 22.582C22.5967 22.5495 22.441 22.5128 22.4243 22.4956C22.5107 22.4085 22.5584 22.1963 22.734 22.0553C22.9594 21.8839 23.3713 21.5894 23.6916 21.3268C24.0118 21.0642 24.6407 20.4531 24.7209 20.2754C24.7464 20.3096 24.7662 20.3476 24.7796 20.3881C24.7796 20.3881 24.4652 20.8 24.2985 21.0621C24.1528 21.2875 24.1638 21.4153 24.1638 21.4153L24.4631 21.2869C24.4631 21.2869 24.5496 21.6077 24.1575 22.0956C24.3289 22.0307 24.3981 22.0694 24.4956 22.0149C24.2436 22.1616 24.0389 22.3776 23.9059 22.6371C23.7021 23.0186 23.4248 23.4631 22.9568 23.7403C22.7088 23.8979 22.4697 24.0692 22.2408 24.2534H22.2419Z" fill="#A67A2E"/>
<path fill-rule="evenodd" clip-rule="evenodd" d="M21.0668 9.61616C21.0668 9.61616 20.8891 9.98671 20.8634 10.275C20.8587 10.3447 20.8414 10.3987 20.8414 10.4789C20.8372 10.7367 20.8566 11.025 20.7984 11.1602C20.7876 11.1201 20.7699 11.0821 20.746 11.0481C20.7135 11.1387 20.6548 11.4228 20.6071 11.5287C20.5594 11.3344 20.5376 11.1348 20.5421 10.9348C20.5468 10.6513 20.5531 10.5968 20.5531 10.5386C20.5421 10.6251 20.4839 10.742 20.4619 10.8117C20.4294 10.753 20.3928 10.677 20.3492 10.6141C20.3234 10.6622 20.2945 10.7085 20.2628 10.753C20.2522 10.6891 20.2448 10.6247 20.2408 10.5601C20.2345 10.4641 20.2331 10.3679 20.2366 10.2718C20.2965 10.0858 20.3973 9.91545 20.5316 9.7734C20.7612 9.52182 20.9976 9.03963 21.0668 8.88921C21.1359 8.73879 21.4336 8.11719 21.4336 8.11719H21.659L21.3314 8.86301C21.3314 8.86301 21.1344 9.27025 21.0327 9.42014C20.931 9.57004 20.7182 9.99667 20.6207 10.166C20.6899 10.0748 20.7486 10.0271 20.8178 9.94059C20.9084 9.83788 20.9931 9.73009 21.0715 9.61774L21.0668 9.61616Z" fill="#8C6228"/>
<path fill-rule="evenodd" clip-rule="evenodd" d="M22.3263 7C22.2895 7.11342 22.2313 7.21874 22.1549 7.31028C22.0207 7.47066 21.7319 7.68502 21.5915 7.85641C21.4631 8.02308 21.2057 8.47854 21.3226 9.01785C21.3978 8.79554 21.5123 8.58854 21.6606 8.40673C21.8755 8.14467 22.1051 7.8433 22.2178 7.60902C22.2834 7.47624 22.3267 7.33349 22.3457 7.18659L22.3886 7.13417L22.3624 7.00996L22.3257 7.00105L22.3263 7Z" fill="#CBA94C"/>
<path fill-rule="evenodd" clip-rule="evenodd" d="M26.7178 21.3773C26.6654 21.2311 26.6277 21.0801 26.6051 20.9265C26.5789 20.7116 26.6481 20.6692 26.5679 20.4234C26.5202 20.274 26.4338 20.295 26.4107 20.274C26.3876 20.253 26.3735 20.0266 26.3782 19.9035C26.3844 19.7849 26.3756 19.666 26.352 19.5497C26.3195 19.524 26.2996 19.502 26.2503 19.34C26.2219 19.2417 26.1869 19.1454 26.1455 19.0518C26.1193 19.0041 26.0407 18.9606 26.0407 18.9129C26.0407 18.8175 26.1277 18.7677 26.1277 18.7415C26.1235 18.6891 26.0585 18.7305 26.0407 18.7153C26.0192 18.6896 26.0931 18.5334 26.0669 18.5114C26.0559 18.5009 25.9804 18.5921 25.962 18.5638C25.9437 18.5355 25.9143 18.2797 25.8756 18.1084C25.8368 17.937 25.7996 17.8206 25.7954 17.7703C25.7912 17.72 25.4961 16.8819 25.4248 16.678C25.3671 16.5061 25.3187 16.3311 25.2796 16.1539C25.2576 16.0522 25.2424 15.8442 25.2319 15.8657C25.2215 15.8871 25.2278 15.9935 25.2099 15.9894C25.1921 15.9852 25.1408 15.6146 25.1235 15.5559C25.1062 15.4972 25.0186 15.2986 24.995 15.155C24.9715 15.0113 24.9259 14.6308 24.8928 14.3724C24.8598 14.1141 24.8451 14.0056 24.8451 13.9437C24.8504 13.786 24.8418 13.6282 24.8195 13.472C24.7764 13.2004 24.7081 12.9333 24.6156 12.6743C24.4704 12.3106 24.0847 11.3782 24.0155 11.1465C24.0155 11.0878 24.0915 11.1203 24.0915 11.1203C24.0915 11.1203 24.2796 11.592 24.4185 11.9589C24.5574 12.3258 24.6806 12.6439 24.7136 12.6764C24.7466 12.7089 24.9432 13.0669 25.0344 13.6518C25.1256 14.2367 25.1575 14.7771 25.212 15.1366C25.2332 15.3173 25.2672 15.4963 25.3137 15.6723C25.3724 15.8693 25.4631 16.0732 25.5826 16.3851C25.672 16.6026 25.7452 16.8265 25.8017 17.0549C25.8494 17.2955 25.8494 17.4778 25.8771 17.5968C25.9033 17.699 25.9421 17.9024 26.0344 18.1969C26.1266 18.4915 26.2597 18.8715 26.3488 19.1073C26.483 19.4549 26.5783 19.8163 26.6329 20.1849C26.6565 20.4014 26.7377 21.1514 26.7152 21.3768L26.7178 21.3773Z" fill="#A88F33"/>
<path fill-rule="evenodd" clip-rule="evenodd" d="M22.3373 6.97416L22.3263 6.99984C22.336 7.00419 22.344 7.01179 22.3487 7.02135C22.3535 7.03091 22.3548 7.04184 22.3525 7.05225C22.353 7.11167 22.3493 7.17104 22.3415 7.22993C22.331 7.30593 22.309 7.3641 22.3048 7.4118C22.3048 7.51662 22.32 7.63088 22.1764 7.92124C22.1334 8.00143 22.1066 8.07062 22.0852 8.11831C22.06 8.18785 22.0218 8.25191 21.9725 8.30699C22.0485 8.26401 22.3215 8.09263 22.4599 8.11831C22.3289 8.19254 22.2158 8.29471 22.1287 8.41758C22.2136 8.4326 22.3005 8.4326 22.3855 8.41758C22.626 8.38089 22.8949 8.29389 23.1313 8.31276C23.3892 8.32796 23.2885 8.003 23.2885 8.003L22.9908 7.34838L22.4274 6.95215L22.3383 6.97364L22.3373 6.97416Z" fill="#BE9C44"/>
<path fill-rule="evenodd" clip-rule="evenodd" d="M23.8069 11.8768C23.8069 11.8768 23.5553 11.6253 23.4536 10.762C23.352 9.89882 23.3734 8.61893 23.3734 8.61893L23.1696 8.12049C23.1696 8.12049 23.1266 7.78873 23.0202 7.66503C22.9138 7.54134 22.7057 7.33379 22.6082 7.23159C22.5107 7.12939 22.4043 6.99102 22.3394 6.96953C22.3719 6.91712 22.517 6.60946 23.0731 6.60265C23.6292 6.59584 23.8016 6.90821 23.8593 7.02194C23.9169 7.13568 24.1801 7.62206 24.2786 8.55079C24.3771 9.47953 24.374 9.54662 24.3588 9.86895C24.326 10.2157 24.2687 10.5597 24.1874 10.8983C24.0941 11.271 23.9924 11.6876 23.8058 11.8758L23.8069 11.8768Z" fill="#A17C34"/>
<path fill-rule="evenodd" clip-rule="evenodd" d="M23.0181 12.6179C23.1017 12.6244 23.1854 12.6062 23.2587 12.5655C23.3389 12.5613 23.6298 12.598 23.8525 12.3145C23.8677 12.3789 23.9049 12.555 23.8048 12.7107C23.8572 12.6583 23.9395 12.6352 23.9505 12.62C23.9547 12.7002 24.0302 12.9471 23.7094 13.5477C23.7964 13.4523 23.8981 13.4565 23.9893 13.4455C23.9935 13.5582 24.0543 13.9376 23.8939 14.1415C23.8606 14.1817 23.8169 14.2119 23.7675 14.2288C23.718 14.2456 23.6649 14.2484 23.614 14.2369C23.6167 14.2066 23.6167 14.1761 23.614 14.1457C23.6098 14.087 23.5884 14.0288 23.6036 13.9885C23.5196 13.95 23.4433 13.8967 23.3782 13.8312C23.1895 13.6536 22.9447 13.3501 22.9274 13.1247C22.9185 13.0578 22.9342 12.9899 22.9716 12.9337C23.009 12.8775 23.0656 12.8368 23.1308 12.8192C23.112 12.8022 23.0959 12.7824 23.0831 12.7605C23.0735 12.7083 23.0512 12.6594 23.0181 12.6179Z" fill="#8C6228"/>
<path fill-rule="evenodd" clip-rule="evenodd" d="M21.3467 9.88856C21.3467 9.88856 21.3357 9.87336 21.277 9.94097C21.288 9.87179 21.299 9.8068 21.3032 9.7439C21.3304 9.68577 21.3657 9.63178 21.408 9.58352C21.3755 9.64852 21.3556 9.70722 21.3556 9.70722C21.4064 9.61572 21.4733 9.53421 21.5532 9.46665C21.6334 9.40113 21.7351 9.37126 21.7786 9.30941C21.798 9.28249 21.814 9.25327 21.8263 9.22241C21.9285 9.14473 22.0191 9.05276 22.0952 8.94934C22.1166 8.92314 22.1476 8.89693 22.1712 8.86915C22.2078 8.85395 22.2943 8.81674 22.396 8.76433C22.4977 8.71192 22.6219 8.62596 22.6953 8.59294C22.8394 8.529 22.9966 8.53581 23.0653 8.43361C23.1177 8.41841 23.178 8.25594 23.1675 8.11914C23.2477 8.15164 23.6591 8.40741 23.8006 8.96664C23.9023 9.3634 23.7199 9.97452 23.6434 10.2696C23.5669 10.5647 23.5564 10.7832 23.4505 10.9174C23.3158 11.0956 22.8824 11.3461 22.776 11.4703C22.6853 11.5726 22.4122 11.8304 22.4227 12.0165C22.4337 12.1554 22.6046 12.2308 22.6418 12.257C22.679 12.2833 22.6785 12.3157 22.7466 12.3C22.8148 12.2843 22.8415 12.2523 22.8698 12.2523C22.8981 12.2523 22.9023 12.2633 22.9175 12.2633C22.9285 12.2628 22.9393 12.2613 22.95 12.2586C22.95 12.2586 22.9395 12.4562 22.4783 12.516C22.4458 12.5202 22.4133 12.5312 22.3735 12.5375C22.4327 12.5206 22.4841 12.4835 22.5186 12.4326C22.4537 12.4216 22.2671 12.4106 22.2194 12.3954C22.248 12.348 22.2833 12.3049 22.3242 12.2675C22.3609 12.2356 22.32 12.2251 22.2875 12.2418C22.2316 12.2796 22.178 12.3208 22.1271 12.365C22.0689 12.4272 22.0058 12.4847 21.9384 12.5369C21.9219 12.4731 21.9206 12.4063 21.9345 12.3419C21.9484 12.2774 21.9772 12.2172 22.0186 12.1659C21.9924 12.1706 21.9426 12.246 21.8949 12.2308C21.8866 12.1519 21.8917 12.0722 21.9101 11.995C21.9363 11.897 22.0773 11.7261 22.0773 11.7261L22.7587 10.5096L22.9039 9.58877L21.3457 9.89171L21.3467 9.88856Z" fill="#92723A"/>
<path fill-rule="evenodd" clip-rule="evenodd" d="M21.31 9.94118C21.31 9.94118 21.2728 9.96739 21.3467 10.0172C21.3262 10.0538 21.3029 10.0889 21.277 10.122C21.2403 10.1645 21.2015 10.1912 21.1863 10.2268C21.159 10.2773 21.1393 10.3315 21.1276 10.3877C21.1276 10.4202 21.1171 10.6283 21.0259 10.7625C20.9902 10.821 20.9583 10.8817 20.9305 10.9443C20.8863 11.0121 20.8486 11.0839 20.8179 11.1587C20.7994 11.2525 20.7871 11.3474 20.7812 11.4428L20.8477 11.3652C20.8239 11.422 20.7917 11.475 20.7523 11.5224C20.778 11.5004 20.854 11.4464 20.9819 11.3338C21.1596 11.1844 21.4368 10.9328 21.7754 10.7336C21.6915 10.7591 21.605 10.7751 21.5176 10.7813C21.57 10.7289 22.059 10.1524 22.3147 10.1C22.3305 10.0805 22.3384 10.0558 22.3368 10.0308L22.1177 10.0093L21.6717 10.1021L21.6067 9.75879L21.31 9.93909V9.94118Z" fill="#B18E3E"/>
<path fill-rule="evenodd" clip-rule="evenodd" d="M22.0165 11.8917C21.966 11.9517 21.9278 12.021 21.9038 12.0956C21.8625 12.0521 21.8273 12.0033 21.799 11.9504C21.7188 11.8163 21.5956 11.6449 21.3068 11.7408C21.2994 11.673 21.2994 11.6047 21.3068 11.5369C21.3545 11.5264 21.4997 11.409 21.6449 11.2382C21.7571 11.1142 21.8459 10.9709 21.907 10.8152C21.9499 10.7827 22.0238 10.7287 22.1213 10.6658C22.2602 10.5704 22.4269 10.4405 22.4531 10.2953C22.3241 10.3543 22.1829 10.3818 22.0411 10.3755C22.1213 10.3383 22.2445 10.2995 22.2293 10.1391C22.2623 10.1171 22.288 10.1024 22.288 10.1024C22.2636 10.094 22.2378 10.0903 22.212 10.0914C22.2078 10.0762 22.2015 10.0547 22.1643 10.0652C22.1271 10.0757 22.1218 10.0762 22.1166 10.0914C22.0811 10.092 22.0463 10.101 22.0149 10.1176C21.9589 10.1643 21.8995 10.2069 21.8372 10.245C21.8524 10.2193 21.8739 10.1805 21.8739 10.1805C21.8118 10.187 21.7507 10.2012 21.6921 10.2229C21.5335 10.2857 21.3792 10.3589 21.2303 10.442C21.2455 10.4163 21.2518 10.399 21.2628 10.3943C21.2738 10.3896 21.2995 10.3839 21.2995 10.3791C21.2945 10.3602 21.2931 10.3404 21.2953 10.321C21.3439 10.2179 21.4012 10.1192 21.4667 10.0259C21.5159 9.9518 21.5471 9.86728 21.5579 9.77902L21.8891 9.61183L22.8215 9.39746L23.4264 9.43467L23.3504 9.85397L22.9929 10.5841L22.6874 11.2497L22.3383 11.6575L22.0175 11.8912L22.0165 11.8917Z" fill="#543E26"/>
<path fill-rule="evenodd" clip-rule="evenodd" d="M23.527 10.0813C23.527 10.0813 23.1627 10.532 23.0611 10.6017C23.1261 10.4628 23.527 9.63681 23.6722 9.40724C23.6397 9.38104 23.5967 9.38104 23.6984 8.97852C23.6119 9.18187 23.5815 9.28827 23.5097 9.3454C23.4934 9.36219 23.4729 9.37442 23.4504 9.38085C23.4279 9.38729 23.404 9.38771 23.3813 9.38209C23.3901 9.3661 23.3937 9.34781 23.3918 9.32967C23.3918 9.32967 23.0862 9.29246 22.8776 9.29246C22.669 9.29246 22.2555 9.40515 22.0259 9.49634C21.8435 9.57234 21.7419 9.57234 21.6769 9.62004C21.6119 9.66773 21.5752 9.73272 21.5422 9.74792C21.5092 9.76312 21.3928 9.80033 21.3645 9.84279C21.3362 9.88524 21.2953 9.93398 21.2953 9.94761C21.2953 9.96124 21.2843 9.97381 21.3168 9.96281C21.3278 9.95862 21.408 9.91511 21.4992 9.85798C21.6224 9.7888 21.7723 9.70861 21.8808 9.66092C22.1905 9.53722 22.288 9.55924 22.4269 9.53303C22.5658 9.50683 22.7801 9.44655 22.9185 9.44655C23.0725 9.44143 23.2267 9.44492 23.3803 9.45703C23.3546 9.47905 23.3326 9.50473 23.3436 9.59593C23.333 9.63618 23.3186 9.67532 23.3006 9.7128C23.2356 9.89048 23.1124 10.1845 23.0438 10.3349C22.9484 10.5388 22.8399 10.7102 22.7864 10.8161C22.733 10.9219 22.615 11.2018 22.4982 11.3517C22.3813 11.5016 22.3205 11.5923 22.2838 11.6248C22.2471 11.6573 21.9845 11.8502 22.0039 11.9193C22.2204 11.8414 22.4152 11.7129 22.5721 11.5446C22.7906 11.2983 22.8341 11.1478 23.0055 11.0137C23.1769 10.8795 23.3111 10.6536 23.3913 10.4675C23.4583 10.2941 23.4437 10.2395 23.5275 10.086L23.527 10.0813Z" fill="#806031"/>
<path fill-rule="evenodd" clip-rule="evenodd" d="M15.6784 13.4462C15.6784 13.4462 15.6307 13.6432 15.5211 13.7407C15.4116 13.8382 15.2266 13.9184 15.2067 14.0788C15.1867 14.2391 15.3953 14.3193 15.3953 14.3193C15.3953 14.3193 15.2779 14.5127 15.2779 14.6574C15.2739 14.7646 15.2776 14.872 15.2889 14.9787C15.2718 14.9896 15.2571 15.0041 15.246 15.0211C15.2556 15.1082 15.2972 15.1885 15.3629 15.2465C15.4677 15.333 15.5604 15.3854 15.6144 15.3639C15.6226 15.3809 15.6298 15.3984 15.6359 15.4163C15.6359 15.4163 15.7166 15.2124 15.7706 15.0348C15.8246 14.8571 15.8723 14.8775 15.8938 14.6338C15.9153 14.3901 16.1511 13.9682 16.1511 13.9682L16.312 13.6092L16.05 13.4053L15.6789 13.4441L15.6784 13.4462Z" fill="#B6903C"/>
<path fill-rule="evenodd" clip-rule="evenodd" d="M16.1663 13.7988C16.112 13.8541 16.0621 13.9135 16.0169 13.9765C15.9478 14.0719 15.8932 14.1584 15.7916 14.1956C15.6899 14.2328 15.6249 14.2323 15.6312 14.334C15.6375 14.4356 15.7329 14.4791 15.7884 14.5315C15.8227 14.5617 15.8482 14.6006 15.8623 14.644C15.8764 14.6874 15.8786 14.7338 15.8686 14.7784C15.9022 14.7655 15.9325 14.7455 15.9576 14.7197C15.9827 14.6939 16.0018 14.663 16.0138 14.629C16.0662 14.5122 16.4467 13.7988 16.4467 13.7988H16.1663Z" fill="#685026"/>
<path fill-rule="evenodd" clip-rule="evenodd" d="M17.66 12.1545C17.678 12.1063 17.678 12.0533 17.66 12.0051C17.6275 11.9396 17.4305 11.9181 17.3324 11.8442C17.2344 11.7703 17.1071 11.7158 17.0054 11.7494C17.0206 11.7121 17.0814 11.632 17.0316 11.6147C16.9818 11.5974 16.8062 11.6797 16.7585 11.7163C16.7108 11.753 16.6013 11.7965 16.5803 11.8212C16.5594 11.8458 16.5222 11.8972 16.5001 11.8736C16.4781 11.85 16.4677 11.8212 16.431 11.8406C16.3943 11.8599 16.2166 12.0078 16.1841 12.0921C16.1139 12.2778 16.0018 12.4448 15.8565 12.5801C15.6354 12.7945 15.5421 12.9333 15.605 13.0135C15.6679 13.0937 15.7003 13.035 15.7098 13.1042C15.7182 13.1723 15.7145 13.2413 15.6988 13.3081C15.6731 13.4208 15.6296 13.5272 15.6883 13.5487C15.8377 13.5964 15.9828 13.5057 16.0153 13.5335C16.0803 13.5922 15.9787 13.8023 16.1322 13.8437C16.2369 13.8662 16.3461 13.8531 16.4425 13.8065L17.0101 13.501L17.5568 13.2127L17.8361 12.6603L17.6862 12.1985L17.6574 12.1508L17.66 12.1545Z" fill="#D4B968"/>
<path fill-rule="evenodd" clip-rule="evenodd" d="M17.1265 13.4747C17.1 13.433 17.0878 13.3838 17.0917 13.3346C17.0956 13.2853 17.1153 13.2387 17.148 13.2016C17.2654 13.0737 17.4321 13.0198 17.4971 12.9396C17.4847 12.9243 17.4681 12.913 17.4494 12.9071C17.4925 12.8298 17.5583 12.7678 17.638 12.7294C17.6061 12.6944 17.5617 12.6733 17.5144 12.6707C17.4095 12.6707 17.343 12.7357 17.2455 12.7357C17.148 12.7357 17.1407 12.688 17.1407 12.688C17.1407 12.688 17.301 12.6728 17.2853 12.6015C17.2696 12.5302 17.2429 12.5255 17.2429 12.5255C17.2429 12.5255 17.5526 12.3966 17.6066 12.3285C17.6606 12.2603 17.6543 12.1786 17.6653 12.1461C17.702 12.1461 17.9169 12.0334 18.0034 12.0811C18.0898 12.1288 18.0296 12.2587 18.0296 12.2587C18.0296 12.2587 18.2916 12.0617 18.4258 11.8683C18.5427 11.8793 18.5972 11.7881 18.6826 11.7881C18.7874 11.7881 18.9562 11.9333 18.9887 12.243C19.0102 12.4207 19.0411 12.5229 19.0102 12.8368C18.995 13.015 18.9992 13.3945 19.0532 13.5827C19.0899 13.732 19.1763 13.7168 19.1763 13.7168C19.1632 13.7625 19.137 13.8033 19.1009 13.8342C19.0422 13.8867 19.0359 14.0313 19.0422 14.0858C19.0507 14.1254 19.0615 14.1644 19.0747 14.2027C19.0393 14.243 19.01 14.2882 18.9877 14.3369C18.976 14.3639 18.9567 14.3869 18.9321 14.4032C18.9075 14.4194 18.8787 14.428 18.8493 14.4281C18.8175 14.4259 18.7857 14.4259 18.7539 14.4281C18.6847 14.4323 18.6627 14.4433 18.6192 14.4281C18.5757 14.4129 18.5437 14.3956 18.561 14.2567C18.5783 14.1178 18.0254 13.7949 18.0254 13.7949L17.1255 13.4742L17.1265 13.4747Z" fill="#CCA849"/>
<path fill-rule="evenodd" clip-rule="evenodd" d="M16.0903 14.8443C16.0903 14.8443 16.2874 15.1063 17.0982 15.1063C17.4839 15.1063 17.6186 15.0691 17.6983 15.0476C17.778 15.0261 18.1102 14.8982 18.4373 14.512C18.7324 14.1634 18.6674 14.0203 18.6674 14.0203L18.496 13.9941L17.9383 14.0701L16.2879 14.773L16.0882 14.8443H16.0903Z" fill="#585136"/>
<path fill-rule="evenodd" clip-rule="evenodd" d="M16.6952 14.9082C16.6952 14.9082 15.9929 15.0655 15.9929 14.62C15.9929 14.1865 16.4263 13.729 16.5348 13.6514C16.6433 13.5738 16.9164 13.4795 16.9164 13.4795H17.5642L17.6879 13.8071L17.6354 14.5136L16.6967 14.9082H16.6952Z" fill="#252211"/>
<path fill-rule="evenodd" clip-rule="evenodd" d="M17.343 13.6145C17.343 13.6145 17.2088 13.4908 16.9032 13.6574C16.5977 13.8241 16.3503 14.1716 16.3351 14.4876C16.3199 14.767 16.5652 14.9756 16.9467 14.9861C17.1285 14.9975 17.311 14.9831 17.4887 14.9431C17.4666 14.9174 17.354 14.7764 17.354 14.7764L17.3435 13.6145H17.343Z" fill="#C3B378"/>
<path fill-rule="evenodd" clip-rule="evenodd" d="M17.2108 13.6833C17.2108 13.6833 17.1783 13.6571 17.0824 13.7095C17.0022 13.752 16.8854 13.8668 16.7942 13.9459C16.7489 13.9777 16.706 14.0128 16.6658 14.0507C16.5311 14.2111 16.4184 14.4737 16.4834 14.6037C16.5484 14.7336 16.7632 14.883 17.3094 14.7813L17.2093 13.6807L17.2108 13.6833Z" fill="#E6D89C"/>
<path fill-rule="evenodd" clip-rule="evenodd" d="M17.0332 13.9511C16.9741 14.0578 16.9443 14.1782 16.9467 14.3002C16.9467 14.5192 17.0699 14.8683 17.5232 14.894C17.8723 14.916 18.106 14.3914 18.3618 14.1875C18.5547 14.0302 18.6716 14.0271 18.6716 14.0271C18.6716 14.0271 18.4745 13.8127 17.9478 13.535C17.421 13.2572 16.8445 13.2205 16.5279 13.6476C16.6778 13.6372 17.1611 13.5135 17.1611 13.5135L17.3974 13.5895L17.0332 13.9511Z" fill="#252211"/>
<path fill-rule="evenodd" clip-rule="evenodd" d="M17.714 14.2349C17.6988 14.2024 17.6878 14.1589 17.7507 14.1484C17.8136 14.138 17.8419 14.1437 17.8634 14.1909C17.8849 14.2381 17.9064 14.2779 17.8739 14.2957C17.8439 14.303 17.8125 14.3009 17.7838 14.2896C17.7551 14.2784 17.7305 14.2585 17.7135 14.2328L17.714 14.2349ZM17.6118 13.9278C17.6118 13.9278 17.5903 13.943 17.6008 13.9126C17.6113 13.8822 17.6338 13.8078 17.703 13.8261C17.7722 13.8445 17.7554 13.9168 17.746 13.9388C17.7331 13.9558 17.7157 13.9687 17.6958 13.9762C17.6758 13.9838 17.6542 13.9855 17.6333 13.9813C17.6287 13.9801 17.6244 13.9781 17.6206 13.9753C17.6168 13.9726 17.6135 13.969 17.6111 13.965C17.6087 13.9609 17.6071 13.9564 17.6064 13.9518C17.6057 13.9471 17.6059 13.9423 17.6071 13.9377C17.608 13.9341 17.6094 13.9305 17.6113 13.9273L17.6118 13.9278Z" fill="#6F674D"/>
<path fill-rule="evenodd" clip-rule="evenodd" d="M11.7449 14.0684C11.8534 14.1454 11.9824 14.1885 12.1154 14.1921C12.3125 14.1874 12.5662 13.9824 12.683 13.854C12.7522 13.778 12.812 13.6968 12.8759 13.6349C12.9178 13.599 12.9568 13.5599 12.9928 13.5181C13.03 13.4751 13.0688 13.3944 13.0887 13.3682C13.0288 13.4204 12.9658 13.4691 12.9 13.5139C12.8101 13.5686 12.7166 13.6171 12.6201 13.659C12.562 13.6805 11.955 14.0018 11.955 14.0018L11.7454 14.0684H11.7449Z" fill="#AC924C"/>
<path fill-rule="evenodd" clip-rule="evenodd" d="M12.0069 12.467C12.0932 12.416 12.1877 12.3806 12.2863 12.3621C12.4634 12.3275 12.6422 12.3021 12.8219 12.2861L13.1165 12.4145L13.2333 12.859L13.019 13.3207L12.7459 13.4921L12.4361 12.9937L12.0074 12.4696L12.0069 12.467Z" fill="#9F8E57"/>
<path fill-rule="evenodd" clip-rule="evenodd" d="M11.6233 12.8625L11.5185 12.9385C11.544 12.877 11.5601 12.8119 11.5662 12.7456C11.5876 12.6004 11.7003 12.2472 11.8654 12.0433C11.9154 11.9762 11.9689 11.9118 12.0258 11.8504C12.0106 11.8478 11.995 11.8484 11.98 11.8522C11.965 11.856 11.951 11.8629 11.9388 11.8724C12.0165 11.7511 12.1184 11.6471 12.2381 11.5668C12.377 11.4814 12.431 11.4542 12.5761 11.5244C12.7213 11.5946 12.7585 11.6292 12.8644 11.6261C12.9703 11.6229 13.062 11.5092 13.062 11.5092C13.062 11.5092 13.0835 11.5784 13.0033 11.7388C12.9231 11.8991 12.6065 12.2262 12.6065 12.2262L11.9477 12.6775L11.6233 12.863V12.8625Z" fill="#EAC970"/>
<path fill-rule="evenodd" clip-rule="evenodd" d="M12.1086 12.4126C12.1086 12.4126 12.5855 12.4776 12.7307 12.3434C12.7349 12.3586 12.7522 12.3586 12.7522 12.3691C12.7512 12.3775 12.7473 12.3852 12.7412 12.3911C12.757 12.3885 12.7729 12.3869 12.7889 12.3864C12.808 12.3921 12.8277 12.3958 12.8476 12.3974C12.8636 12.397 12.8795 12.3956 12.8953 12.3932C12.8936 12.4036 12.8898 12.4136 12.8843 12.4226C12.8787 12.4316 12.8714 12.4394 12.8628 12.4456C12.8848 12.4456 12.9058 12.4498 12.9058 12.4671C12.9058 12.4844 12.9099 12.5368 12.8837 12.5478C12.8622 12.5536 12.8393 12.5519 12.8188 12.5431C12.8207 12.5842 12.832 12.6243 12.8518 12.6605C12.8942 12.7407 12.9859 12.8319 13.1086 12.8057C13.1086 12.8057 13.1736 12.9629 12.8989 13.3083C12.8623 13.356 12.8229 13.421 12.7758 13.475C12.7569 13.5159 12.7424 13.5588 12.7328 13.6028C12.7328 13.6028 13.1945 13.4252 13.3266 13.02C13.4485 12.6381 13.4942 12.2361 13.4613 11.8366C13.461 11.7554 13.4448 11.6751 13.4136 11.6002C13.3481 11.466 13.1662 11.4875 13.0923 11.5635C12.9875 11.6683 12.8088 11.9341 12.5614 12.1159C12.314 12.2978 12.2994 12.3303 12.1065 12.411L12.1086 12.4126Z" fill="#D7BC6B"/>
<path fill-rule="evenodd" clip-rule="evenodd" d="M11.5363 12.9975C11.5363 12.9975 11.4451 13.0499 11.3974 13.2543C11.3497 13.4587 11.4403 13.7161 11.4928 13.7963C11.5452 13.8764 11.6641 14.0955 11.9121 14.1065C11.9733 14.106 12.0339 14.0934 12.0903 14.0693C12.1764 14.0298 12.2572 13.9796 12.3308 13.92C12.4356 13.8398 12.5237 13.7706 12.5127 13.7627C12.4865 13.7522 11.8581 13.2318 11.8581 13.2318L11.6217 12.9697L11.5373 12.998L11.5363 12.9975Z" fill="#585136"/>
<path fill-rule="evenodd" clip-rule="evenodd" d="M12.1306 13.8609C12.2015 13.8549 12.2706 13.8352 12.334 13.8027C12.41 13.755 11.89 13.2393 11.89 13.2393L11.9267 13.7964L12.1306 13.8609Z" fill="#453A25"/>
<path fill-rule="evenodd" clip-rule="evenodd" d="M11.5777 12.9588C11.5501 13.0086 11.5283 13.0613 11.5127 13.116C11.5101 13.2992 11.5261 13.4822 11.5604 13.6621C11.586 13.7748 11.727 13.9462 11.9094 13.9462C12.0216 13.9462 12.1778 13.8765 12.1778 13.8592C12.1778 13.8419 12.0174 13.8168 11.9744 13.736C11.9482 13.6931 11.9372 13.5862 11.9314 13.4787C11.9272 13.4095 11.9272 13.3335 11.9529 13.3073C12.0116 13.2423 12.0226 13.0557 12.0226 13.0557L12.2323 12.6689H11.9587L11.6316 12.8728L11.5777 12.9588Z" fill="#84754B"/>
<path fill-rule="evenodd" clip-rule="evenodd" d="M11.4975 13.0779C11.4975 13.0779 11.7119 12.7938 11.9047 12.7288C12.0976 12.6638 12.1846 12.7026 12.1846 12.7026L12.0719 12.9909L11.911 13.1685L11.922 13.2597C11.922 13.2597 11.8958 13.5003 12.0562 13.667C12.2166 13.8336 12.3361 13.8279 12.4053 13.8279C12.4745 13.8279 12.6741 13.7692 12.7763 13.5286C12.867 13.3032 12.943 13.0139 12.7611 12.7241C12.7015 12.6318 12.6195 12.5561 12.5229 12.5038C12.4263 12.4515 12.3181 12.4243 12.2082 12.4248C12.1474 12.4248 11.6705 12.4489 11.4975 13.0773V13.0779Z" fill="#252211"/>
<path fill-rule="evenodd" clip-rule="evenodd" d="M17.0007 14.0422C16.9205 14.005 16.9965 13.7802 17.0767 13.7105C17.1735 13.6157 17.3011 13.5588 17.4363 13.5501C17.5013 13.5459 17.5641 13.5868 17.5537 13.6303C17.5385 13.7105 17.4258 13.8232 17.3236 13.9034C17.1826 14.0139 17.0919 14.0852 17.0007 14.0422Z" fill="#F7F7E7"/>
<path fill-rule="evenodd" clip-rule="evenodd" d="M12.6657 12.8135C12.6985 12.8132 12.7304 12.8232 12.7572 12.842C12.784 12.8608 12.8042 12.8875 12.8151 12.9183C12.8303 12.9875 12.7784 13.128 12.6657 13.128C12.5745 13.128 12.5269 13.0153 12.5269 12.9828C12.5278 12.9561 12.5352 12.93 12.5483 12.9068C12.5552 12.8806 12.5703 12.8573 12.5915 12.8405C12.6126 12.8237 12.6387 12.8142 12.6657 12.8135Z" fill="#F8F6DE"/>
<path fill-rule="evenodd" clip-rule="evenodd" d="M11.8203 12.8643C11.7268 12.9111 11.6502 12.9861 11.6013 13.0786C11.5519 13.1857 11.5369 13.3054 11.5583 13.4214C11.5807 13.5052 11.616 13.5849 11.6631 13.6578C11.6765 13.6791 11.6946 13.6971 11.7161 13.7102C11.7375 13.7234 11.7617 13.7315 11.7868 13.7338C11.8235 13.7291 11.899 13.6289 11.899 13.5734C11.899 13.5178 11.9037 13.2678 11.975 13.1331C12.0378 12.999 11.8235 12.8643 11.8235 12.8643H11.8203Z" fill="#D4C38B"/>
<path fill-rule="evenodd" clip-rule="evenodd" d="M11.8418 12.8514C11.8161 12.8666 11.7726 12.8886 11.7831 12.9164C11.7936 12.9442 11.8853 12.9594 11.9178 13.0212C11.9474 13.0716 11.9567 13.1314 11.944 13.1884C11.9721 13.1755 11.9976 13.1578 12.0195 13.136C12.0672 13.0836 12.1243 13.0081 12.1767 13.0081C12.2092 13.0081 12.2417 13.0233 12.2721 13.0233C12.3198 13.0233 12.3675 13.0081 12.3743 12.9583C12.3848 12.8933 12.2831 12.8346 12.2244 12.8456C12.2354 12.8027 12.2506 12.7408 12.2029 12.6963C12.1552 12.6517 12.0053 12.7288 11.9729 12.7487C11.9404 12.7686 11.8429 12.8509 11.8429 12.8509L11.8418 12.8514Z" fill="#E2D59D"/>
<path fill-rule="evenodd" clip-rule="evenodd" d="M15.2863 17.4059L15.6071 17.3115L15.6978 17.3765C15.6978 17.3765 15.7628 17.5149 15.865 17.5337C15.8325 17.6035 15.7476 17.6627 15.7523 17.7114C15.7578 17.745 15.7746 17.7757 15.8 17.7984C15.8 17.7984 15.5117 18.2754 16.0793 18.7555C15.9451 18.8079 15.7738 18.8844 15.6831 18.9274C15.7476 18.9426 15.8864 18.9698 15.9451 19.0228C16.0038 19.0757 16.0038 19.092 16.0578 19.1244C16.1118 19.1569 16.1443 19.2004 16.1338 19.2198C16.0966 19.1983 15.9729 19.1334 15.9514 19.1936C15.9299 19.2539 15.4163 19.2308 15.4163 19.2308L14.5494 19.3975C14.5575 19.367 14.5562 19.3349 14.5457 19.3051C14.5352 19.2754 14.5161 19.2495 14.4907 19.2308C14.3859 19.1355 14.2543 19.235 14.1155 19.1286C13.9336 18.9903 13.9273 18.8294 13.8686 18.7691C13.9273 18.7324 14.0463 18.6779 14.3303 18.6402C14.3166 18.619 14.3072 18.5953 14.3027 18.5705C14.2982 18.5456 14.2987 18.5201 14.3041 18.4955C14.3303 18.4195 14.4388 18.3718 14.4063 18.2811C14.454 18.2701 14.4755 18.2701 14.595 18.1202C14.7145 17.9703 14.7769 17.9384 14.8634 17.9274C14.9498 17.9164 15.0023 17.9274 15.1626 17.778C15.2753 17.6732 15.2386 17.5809 15.2386 17.5809C15.2386 17.5809 15.312 17.5568 15.2863 17.4074V17.4059Z" fill="#CBAC5A"/>
<path fill-rule="evenodd" clip-rule="evenodd" d="M14.3392 17.4555C14.3434 17.434 14.3607 17.423 14.4776 17.434C14.5945 17.445 15.3361 17.3649 15.5379 17.3539C15.7397 17.3428 16.4588 17.3491 16.8078 17.423C17.1569 17.4969 17.5101 17.5834 17.6815 17.6269C17.8529 17.6704 17.9069 17.6919 17.9001 17.7134C17.8947 17.7257 17.8854 17.7359 17.8737 17.7425C17.862 17.7491 17.8484 17.7518 17.8351 17.7501C17.8136 17.7459 17.2455 17.5724 17.0704 17.5357C16.8954 17.499 16.2879 17.4015 15.9556 17.4073C15.6459 17.412 15.5222 17.4031 15.2601 17.4335C14.9981 17.4639 14.5641 17.509 14.4341 17.4917C14.3041 17.4744 14.3319 17.477 14.3387 17.455L14.3392 17.4555Z" fill="#D6BC6F"/>
<path fill-rule="evenodd" clip-rule="evenodd" d="M16.0835 19.1539C16.0835 19.1539 16.528 19.3944 16.6883 19.689C16.8057 19.9081 16.6192 20.0166 16.6192 20.0166C16.6192 20.0166 16.8707 20.0166 16.8382 20.1549C16.823 20.2419 16.4048 20.4757 16.1249 20.5994C15.845 20.7231 15.8518 20.7168 15.7135 20.7383C15.5751 20.7598 15.2103 20.6953 15.1369 20.8033C15.0636 20.9112 15.094 21.0224 15.1155 21.0396C15.18 21.0573 15.2459 21.0696 15.3125 21.0763C15.3125 21.0763 15.2758 21.178 14.9116 21.189C14.5473 21.2 14.4566 21.2257 14.4346 21.265C14.4126 21.3043 14.5043 21.2802 14.671 21.308C14.8377 21.3358 15.072 21.3505 15.072 21.3505C14.9898 21.4075 14.8969 21.4475 14.7989 21.4679C14.5735 21.526 14.2224 21.5805 14.1139 21.6455C14.1658 21.6859 14.2236 21.7181 14.2853 21.7409C14.2019 21.7601 14.1212 21.7892 14.0447 21.8274C14.0772 21.8494 14.1207 21.8751 14.1207 21.8751C14.1207 21.8751 13.9383 22.0942 13.8324 22.1482C13.7265 22.2021 13.1149 22.4862 12.9047 22.4322C12.3806 22.2933 12.3151 21.7194 12.1872 21.6759C11.9943 21.6109 11.9031 21.7409 11.7318 21.6497C11.7931 21.6016 11.8593 21.5602 11.9294 21.526C11.8423 21.4836 11.3937 21.199 11.3937 21.199C11.3465 21.0966 11.2941 20.9967 11.2365 20.8997C11.1495 20.7503 11.0221 20.5506 10.9262 20.3756C10.7165 19.9898 10.7071 19.8122 10.519 19.5931C10.5514 19.5506 10.6641 19.5564 10.6641 19.5564L12.2443 20.0768L15.0463 20.1581L15.7738 19.1172L16.084 19.1539H16.0835Z" fill="#DFC677"/>
<path fill-rule="evenodd" clip-rule="evenodd" d="M11.933 20.7423C11.9499 20.761 11.9695 20.7771 11.9912 20.79C12.0607 20.8291 12.1243 20.878 12.1799 20.9352C12.2019 20.9027 12.2559 20.844 12.3513 20.9352C12.4466 21.0264 12.5656 20.9614 12.6395 20.9829C12.7134 21.0044 12.7197 21.0196 12.7197 21.0196C12.7621 20.9877 12.8089 20.9622 12.8586 20.9436C12.9173 20.9221 12.9865 20.9069 13.0625 20.8854C13.127 20.8674 13.1929 20.8551 13.2596 20.8487C13.3072 20.8812 13.4786 21.0631 14.1658 20.7963C14.8136 20.5447 14.9635 20.517 15.072 20.5557C15.0824 20.5295 15.0934 20.4798 15.2601 20.4866C15.2601 20.4174 15.1217 20.181 15.1217 20.181L14.3565 19.9189H13.9372L12.6825 20.149L11.9901 20.5416L11.9377 20.7413L11.933 20.7423Z" fill="#C4A859"/>
<path fill-rule="evenodd" clip-rule="evenodd" d="M11.5147 20.3002C11.5147 20.3002 11.5299 20.4176 11.7034 20.5413C11.7873 20.5961 11.863 20.6625 11.9283 20.7384C11.9493 20.7106 11.9689 20.6817 11.987 20.6519C12.0132 20.6037 12.0347 20.5497 12.0782 20.5345C12.1646 20.4978 12.3622 20.567 12.4052 20.556C12.4482 20.545 12.4314 20.4695 12.4702 20.4695C12.5614 20.4653 12.6201 20.5282 12.6526 20.5282C12.6851 20.5282 12.7653 20.524 12.7758 20.5067C12.7862 20.4894 12.791 20.3091 12.9147 20.2227C12.9648 20.1896 13.0222 20.1694 13.082 20.1637C13.1418 20.158 13.202 20.1671 13.2574 20.1902C13.2574 20.2227 13.2621 20.3029 13.3486 20.307C13.4351 20.3112 13.444 20.296 13.52 20.3222C13.596 20.3484 13.6872 20.318 13.7297 20.4454C13.7663 20.4349 13.8534 20.4239 13.8313 20.3002C13.9004 20.2519 13.9589 20.19 14.0032 20.1184C14.0247 20.0859 14.0614 20.0492 14.0897 20.0015C14.1415 19.9944 14.1942 19.9988 14.244 20.0145C14.2939 20.0302 14.3396 20.0567 14.378 20.0922C14.3413 20.1184 14.3193 20.1351 14.3088 20.1619C14.3404 20.1933 14.3694 20.2273 14.3953 20.2635C14.4278 20.3065 14.4477 20.3589 14.4907 20.3684C14.5819 20.3946 14.7312 20.3574 14.8984 20.3684C15.0226 20.3762 15.1433 20.4121 15.2517 20.4732C15.2732 20.4627 15.2732 20.4585 15.3277 20.469C15.3822 20.4795 15.4226 20.4842 15.3644 20.4166C15.3969 20.4318 15.4336 20.4643 15.4661 20.4318C15.4831 20.4069 15.5052 20.3859 15.531 20.3702C15.5567 20.3545 15.5855 20.3444 15.6154 20.3406C15.7066 20.3296 15.7391 20.3448 15.7763 20.2499C15.824 20.1325 15.6589 20.1325 15.6589 20.1325C15.6589 20.1325 15.7349 20.0633 15.8193 19.9721C15.9215 19.8767 16.0384 19.753 16.0667 19.6016C16.1144 19.3217 15.8413 19.2871 15.8413 19.2871L14.5153 19.6938L12.8963 19.6136L11.5153 20.3008L11.5147 20.3002Z" fill="#927D49"/>
<path fill-rule="evenodd" clip-rule="evenodd" d="M10.3245 16.4746C10.289 16.5297 10.2655 16.5917 10.2553 16.6565C10.2291 16.7843 10.2401 16.7691 10.2186 16.8603C10.1971 16.9515 9.92982 17.8562 10.0299 18.1633C10.13 18.4704 10.303 18.5826 10.4115 18.8284C10.4324 18.8719 10.4499 18.9169 10.4639 18.9631C10.5011 19.1235 10.4686 19.2466 10.5116 19.4075C10.5363 19.4758 10.5759 19.5378 10.6274 19.5889C10.7558 19.7231 10.9655 19.851 11.0556 19.9421C11.1835 20.0763 11.3659 20.3499 11.5976 20.3756C11.7212 20.3908 11.8968 20.3389 12.042 20.2519C12.1704 20.1717 12.2517 20.059 12.3848 19.9951C12.622 19.8975 12.8797 19.8602 13.1348 19.8866C13.292 19.9191 13.6589 20.0318 13.8638 20.0318C14.0231 20.029 14.1815 20.0072 14.3355 19.9668C14.6453 19.8756 15.0206 19.7194 15.2674 19.6523C15.4126 19.6093 15.5295 19.5999 15.649 19.5721C15.8529 19.5244 16.0243 19.4594 16.1207 19.3357C16.0557 19.2597 15.9755 19.1429 15.5442 19.1471C15.052 19.1581 14.4839 19.4311 14.2045 19.4746C13.9252 19.5181 13.8036 19.5548 13.4912 19.4421C13.1788 19.3295 13.1767 19.2529 13.1767 19.2529C13.1767 19.2529 12.8554 19.0281 12.7207 18.4552C12.586 17.8824 12.7207 17.4646 13.0698 17.0679C13.0956 17.0434 13.1153 17.0132 13.1273 16.9797C13.1393 16.9462 13.1433 16.9103 13.139 16.875C13.139 16.875 13.3691 16.5653 13.3062 16.2749C13.2433 15.9845 12.7925 16.0453 12.7925 16.0453L10.3292 16.4762L10.3245 16.4746Z" fill="#6E6342"/>
<path fill-rule="evenodd" clip-rule="evenodd" d="M10.695 17.4395C10.6761 17.4757 10.6672 17.5162 10.6693 17.5569C10.6735 17.6151 10.6908 17.6911 10.8664 17.8625C10.9091 17.9021 10.942 17.9512 10.9623 18.0058C10.9826 18.0604 10.9898 18.119 10.9833 18.177C10.9833 18.177 11.0588 18.1922 11.2632 18.0968C11.4235 18.0208 11.4775 18.1555 11.4775 18.1555C11.5241 18.1309 11.5747 18.1147 11.6269 18.1078C11.6742 18.1032 11.7199 18.0885 11.7611 18.0648C11.8674 18.173 11.9862 18.2684 12.1149 18.3489C12.2642 18.4291 12.3512 18.483 12.4246 18.4291C12.498 18.3751 12.4938 18.2839 12.4896 18.2404C12.4724 18.2004 12.4506 18.1626 12.4246 18.1277C12.3769 18.0585 12.3009 17.9778 12.2962 17.9133C12.2852 17.764 12.4089 17.5858 12.3827 17.5428C12.3565 17.4998 12.2595 17.4904 12.0158 17.5753C11.7668 17.6576 10.6919 17.4385 10.6919 17.4385L10.695 17.4395Z" fill="#39331F"/>
<path fill-rule="evenodd" clip-rule="evenodd" d="M11.2632 18.4068C11.2632 18.4068 11.1395 18.2899 11.183 17.7218C11.2358 17.721 11.2886 17.7261 11.3402 17.737C11.3402 17.737 11.4063 18.1772 11.2632 18.4068Z" fill="#292311"/>
<path fill-rule="evenodd" clip-rule="evenodd" d="M10.3832 16.0409C10.4004 16.0281 10.4164 16.0137 10.4309 15.9979C10.3879 16.0781 10.1903 16.3989 10.3507 16.9041C10.5111 17.4094 10.9141 17.7815 11.4105 17.7993C11.9068 17.8171 12.1678 17.5739 12.466 17.2097C12.5834 17.0645 12.7176 16.8821 12.8366 16.7589C13.0148 16.566 13.151 16.5115 13.151 16.3255C13.151 15.9439 12.7611 15.7725 12.1867 15.6011C11.6122 15.4298 11.0939 15.4512 10.824 15.5687C10.5619 15.696 10.4487 15.8307 10.3795 16.0404L10.3832 16.0409Z" fill="#252211"/>
<path fill-rule="evenodd" clip-rule="evenodd" d="M12.2276 18.5794L12.2705 18.5574C12.2705 18.5574 12.2816 18.386 12.3507 18.3907C12.3792 18.3995 12.404 18.4174 12.4212 18.4416C12.4385 18.4659 12.4472 18.4951 12.4461 18.5249C12.4462 18.5364 12.4439 18.5478 12.4392 18.5584C12.4345 18.5689 12.4275 18.5783 12.4189 18.5859C12.4102 18.5935 12.4 18.5991 12.389 18.6025C12.378 18.6058 12.3663 18.6067 12.3549 18.6051C12.3108 18.6099 12.2663 18.6009 12.2276 18.5794Z" fill="#3F3824"/>
<path fill-rule="evenodd" clip-rule="evenodd" d="M12.0347 17.8517C12.0347 17.8517 12.0777 17.8365 12.1301 17.8889C12.1731 17.8889 12.3597 17.8669 12.4184 17.9035C12.4488 17.9205 12.4749 17.9444 12.4943 17.9733C12.4943 17.9733 12.2753 18.0209 12.1563 17.9733C12.0373 17.9256 12.0347 17.8517 12.0347 17.8517Z" fill="#2D2815"/>
<path fill-rule="evenodd" clip-rule="evenodd" d="M12.9996 17.8833C12.9307 17.8245 12.8479 17.7843 12.759 17.7664C12.737 17.7617 12.7328 17.7769 12.7161 17.7769C12.6993 17.7769 12.7009 17.7402 12.7009 17.7402L12.6306 17.7774C12.6306 17.7774 12.6196 17.7921 12.6563 17.8199C12.693 17.8477 12.7433 17.8676 12.7585 17.9111C12.7639 17.9333 12.7711 17.955 12.78 17.9761C12.8203 17.9791 12.8608 17.9717 12.8974 17.9546C12.9341 17.9326 13.0022 17.8975 12.9991 17.8828L12.9996 17.8833Z" fill="#82764F"/>
<path fill-rule="evenodd" clip-rule="evenodd" d="M11.9047 18.3238C11.9105 18.2825 11.9302 18.2443 11.9606 18.2157C11.991 18.1871 12.0303 18.1698 12.0719 18.1666C12.1128 18.1632 12.1536 18.175 12.1863 18.1998C12.2191 18.2245 12.2416 18.2605 12.2496 18.3008L12.1626 18.3878C12.1626 18.3878 12.0976 18.2945 11.9058 18.3228L11.9047 18.3238Z" fill="#2D2816"/>
<path fill-rule="evenodd" clip-rule="evenodd" d="M12.8476 17.679C12.7759 17.7431 12.6855 17.7826 12.5897 17.7916C12.5741 17.7728 12.5655 17.7491 12.5655 17.7246C12.5655 17.7 12.5741 17.6763 12.5897 17.6575C12.6374 17.5883 12.6919 17.5663 12.747 17.5883C12.7707 17.5922 12.7927 17.6029 12.8105 17.6189C12.8284 17.635 12.8412 17.6558 12.8476 17.679Z" fill="#574F35"/>
<path fill-rule="evenodd" clip-rule="evenodd" d="M13.1752 17.7853C13.1793 17.7638 13.1641 17.7596 13.1752 17.7486C13.1862 17.7376 13.2443 17.7161 13.2553 17.7266C13.2663 17.7371 13.2553 17.7486 13.2553 17.7696C13.2574 17.7898 13.2536 17.8102 13.2443 17.8283C13.2342 17.839 13.2216 17.847 13.2076 17.8516C13.1936 17.8561 13.1786 17.8572 13.1641 17.8545C13.1427 17.8477 13.1379 17.8173 13.1379 17.8115C13.1489 17.8063 13.1752 17.7963 13.1752 17.7853ZM13.5452 17.5516C13.5452 17.5406 13.5819 17.5186 13.6034 17.5186C13.6359 17.5186 13.6359 17.5448 13.6406 17.5516C13.6453 17.5584 13.6511 17.5469 13.6621 17.5662C13.6731 17.5856 13.6883 17.6187 13.6773 17.6422C13.6698 17.6525 13.66 17.6607 13.6487 17.6664C13.6374 17.672 13.6249 17.6749 13.6123 17.6747C13.585 17.6366 13.5624 17.5952 13.5452 17.5516Z" fill="#82764F"/>
<path fill-rule="evenodd" clip-rule="evenodd" d="M12.7999 17.8359C12.8417 17.8493 12.8801 17.8715 12.9126 17.9009C12.8957 17.9126 12.8782 17.9235 12.8602 17.9334C12.8528 17.895 12.832 17.8604 12.8015 17.8359H12.7999Z" fill="#6E6342"/>
<path fill-rule="evenodd" clip-rule="evenodd" d="M12.694 17.3581C12.683 17.3476 12.726 17.3214 12.7522 17.3256C12.7784 17.3298 12.7889 17.3476 12.8172 17.3518C12.8455 17.356 12.8497 17.3408 12.8602 17.3303C12.8706 17.3198 12.9079 17.3256 12.9126 17.3303C12.9167 17.3348 12.9204 17.3397 12.9236 17.345C12.9241 17.3368 12.9263 17.3288 12.93 17.3215C12.9337 17.3143 12.9388 17.3078 12.9451 17.3025C12.9533 17.2963 12.9629 17.292 12.9731 17.2901C12.9833 17.2882 12.9938 17.2887 13.0038 17.2915C13.0145 17.3171 13.0218 17.3441 13.0253 17.3717C13.0211 17.3827 12.9561 17.3979 12.9451 17.3869C12.9645 17.4186 12.9862 17.4489 13.0101 17.4776C13.0164 17.4886 12.9624 17.5148 12.9409 17.5106C12.8499 17.4743 12.7658 17.4229 12.6919 17.3586L12.694 17.3581ZM12.9776 16.9985C12.9738 16.9875 12.9662 16.9782 12.9561 16.9723C12.9409 16.9681 12.8911 16.9723 12.8911 16.9985C12.9077 17.0852 12.9383 17.1686 12.9818 17.2454C13.0342 17.3214 13.073 17.3843 13.1096 17.4026C13.1213 17.4076 13.1344 17.4081 13.1464 17.4042C13.1585 17.4002 13.1687 17.392 13.1752 17.3811C13.1883 17.2884 13.1918 17.1947 13.1856 17.1012C13.1815 16.9126 13.1752 16.7307 13.1642 16.7197C13.153 16.7138 13.1402 16.7116 13.1277 16.7136C13.1152 16.7156 13.1037 16.7216 13.095 16.7307C13.0492 16.8173 13.01 16.9072 12.9776 16.9996V16.9985Z" fill="#585136"/>
<path fill-rule="evenodd" clip-rule="evenodd" d="M12.7847 18.1083C12.7625 18.0949 12.7376 18.0865 12.7117 18.0839C12.6859 18.0813 12.6598 18.0844 12.6353 18.0931C12.5661 18.1262 12.5703 18.254 12.5703 18.254C12.586 18.2599 12.6028 18.262 12.6194 18.2601C12.636 18.2582 12.6518 18.2523 12.6657 18.243C12.7186 18.2121 12.7603 18.1651 12.7847 18.1089V18.1083Z" fill="#574F35"/>
<path fill-rule="evenodd" clip-rule="evenodd" d="M12.9278 18.2787C12.9236 18.2358 12.8848 18.2358 12.8848 18.2137C12.8875 18.2032 12.8937 18.1938 12.9023 18.1872C12.911 18.1805 12.9216 18.1769 12.9325 18.1771C12.9545 18.1771 12.9755 18.2027 13.0022 18.22C13.0289 18.2373 13.0672 18.2625 13.0714 18.2955C13.0756 18.3285 13.0284 18.4192 12.976 18.4192C12.9236 18.4192 12.9393 18.3217 12.9283 18.2782L12.9278 18.2787ZM13.3471 18.22C13.3471 18.22 13.2606 18.2462 13.2669 18.22C13.2732 18.1938 13.2931 18.1875 13.3193 18.1875C13.3332 18.1731 13.3517 18.164 13.3717 18.1619C13.3835 18.1609 13.3952 18.1647 13.4042 18.1723C13.4042 18.1723 13.4629 18.1467 13.4802 18.1619C13.4975 18.1771 13.4844 18.1765 13.4954 18.1943C13.509 18.2137 13.518 18.2359 13.5216 18.2593C13.5216 18.2766 13.4561 18.3118 13.4042 18.307C13.346 18.2955 13.357 18.2326 13.346 18.2216L13.3471 18.22ZM13.8523 18.1225C13.8523 18.1225 13.878 18.1377 13.8565 18.155C13.8086 18.1832 13.7547 18.1996 13.6993 18.2027C13.6343 18.2027 13.5761 18.2137 13.5761 18.1923C13.5761 18.1708 13.6285 18.1273 13.6626 18.1163C13.6688 18.1083 13.6768 18.1018 13.6859 18.0973C13.6949 18.0927 13.7049 18.0903 13.715 18.09C13.7407 18.09 13.8424 18.0796 13.8722 18.0748C13.9021 18.0701 13.9199 18.0859 13.9047 18.1073C13.8984 18.1225 13.8523 18.1225 13.8523 18.1225ZM14.0017 17.4532C14.0017 17.4532 13.9692 17.5224 13.9325 17.5224C13.8958 17.5224 13.8958 17.5078 13.8958 17.4967C13.8958 17.4857 13.9325 17.4443 13.9283 17.4318C13.9173 17.4318 13.8911 17.4318 13.8958 17.4056C13.9005 17.3793 13.9325 17.3579 13.965 17.3626C13.9895 17.3426 14.0199 17.3312 14.0515 17.3301C14.0887 17.3301 14.1212 17.3411 14.1212 17.3626C14.1212 17.3841 14.0782 17.4323 14.0625 17.4433C14.0468 17.4543 14.0232 17.4716 14.0017 17.4538V17.4532ZM13.5074 18.7342C13.5074 18.7342 13.4645 18.7389 13.4645 18.7604C13.4645 18.7714 13.4755 18.7714 13.4907 18.7646C13.4995 18.7643 13.5083 18.7628 13.5169 18.7604C13.5211 18.7646 13.5211 18.7861 13.5536 18.7861C13.5804 18.7828 13.6063 18.774 13.6296 18.7604C13.6552 18.7494 13.6773 18.7384 13.6773 18.7174C13.6743 18.7024 13.6662 18.689 13.6543 18.6794C13.6424 18.6698 13.6275 18.6647 13.6123 18.665C13.5957 18.6641 13.5791 18.6679 13.5646 18.676C13.5646 18.676 13.5536 18.6545 13.5169 18.676C13.4802 18.6975 13.4844 18.698 13.4949 18.7085C13.5143 18.7258 13.508 18.7373 13.508 18.7373L13.5074 18.7342ZM13.2627 18.9596C13.2627 18.9491 13.3151 18.9271 13.3319 18.9339C13.3578 18.9613 13.3778 18.9938 13.3906 19.0293C13.3906 19.0397 13.3382 19.066 13.3146 19.066C13.2903 19.0595 13.2694 19.0441 13.2559 19.023C13.2559 19.0188 13.2821 19.0125 13.2821 19.0078C13.2821 19.0031 13.2627 18.9711 13.2627 18.9601V18.9596ZM13.0908 18.6456C13.1018 18.6409 13.1018 18.6304 13.1165 18.6194C13.1213 18.6163 13.1268 18.6143 13.1325 18.6136C13.1382 18.6129 13.144 18.6134 13.1495 18.6152C13.1533 18.6084 13.1585 18.6025 13.1649 18.598C13.1712 18.5934 13.1785 18.5904 13.1862 18.589C13.2124 18.5848 13.2339 18.589 13.2291 18.6C13.2291 18.6325 13.2506 18.6524 13.2506 18.6802C13.2506 18.708 13.2354 18.7384 13.1814 18.7604C13.1362 18.7726 13.0891 18.7762 13.0426 18.7709C13.0351 18.7612 13.0302 18.7498 13.0283 18.7376C13.0265 18.7255 13.0278 18.7132 13.0321 18.7017C13.047 18.6786 13.0671 18.6594 13.0908 18.6456Z" fill="#82764F"/>
<path fill-rule="evenodd" clip-rule="evenodd" d="M13.1594 18.6592C13.1594 18.6592 13.1222 18.6807 13.1222 18.6917C13.119 18.7022 13.1176 18.7132 13.118 18.7242C13.118 18.7305 13.1657 18.72 13.1704 18.7132C13.1752 18.7064 13.1594 18.6702 13.1594 18.6592Z" fill="#6E6342"/>
<path fill-rule="evenodd" clip-rule="evenodd" d="M12.8366 18.5567C12.8659 18.5576 12.895 18.5613 12.9236 18.5677C12.9451 18.5787 12.9603 18.6002 12.9388 18.6264C12.9173 18.6526 12.8958 18.6914 12.8476 18.6846C12.7994 18.6778 12.7428 18.6521 12.7428 18.6322C12.7419 18.6184 12.7438 18.6046 12.7483 18.5915C12.7528 18.5785 12.7598 18.5665 12.769 18.5562C12.7905 18.5389 12.8015 18.5499 12.8382 18.5562L12.8366 18.5567Z" fill="#585136"/>
<path fill-rule="evenodd" clip-rule="evenodd" d="M12.8109 18.5791C12.7794 18.603 12.7503 18.6299 12.7239 18.6593C12.7024 18.6855 12.596 18.8197 12.5641 18.848C12.5748 18.8295 12.5871 18.812 12.6007 18.7956C12.5577 18.8228 12.5255 18.8641 12.5096 18.9124C12.4833 18.9932 12.6547 19.0361 12.7674 19.0697C12.8801 19.1032 12.9247 19.1127 12.9247 19.1127C12.8838 19.0503 12.8487 18.9843 12.8198 18.9156C12.7769 18.8139 12.7548 18.8029 12.7831 18.7552C12.8114 18.7075 12.8356 18.675 12.8356 18.6383C12.8285 18.6181 12.8203 18.5983 12.8109 18.5791Z" fill="#574F35"/>
<path fill-rule="evenodd" clip-rule="evenodd" d="M10.3397 18.7505C10.3555 18.7531 10.3716 18.7531 10.3874 18.7505C10.4199 18.7458 10.7579 18.6216 11.1117 18.6457C11.3761 18.6614 11.6382 18.7044 11.8937 18.7741C12.3382 18.891 12.8895 19.1232 13.2485 19.2552C13.3439 19.2919 13.4372 19.3574 13.5059 19.3831C13.7789 19.4879 13.79 19.4879 13.9503 19.5178C14.139 19.5435 14.3319 19.4806 14.5332 19.4376C14.7805 19.3852 15.203 19.3569 15.5735 19.3029C15.6933 19.2862 15.8115 19.2594 15.9268 19.2227C15.9268 19.2227 15.6322 19.5178 14.9257 19.6237C14.64 19.6672 14.3497 19.6709 14.063 19.6347C13.898 19.621 13.7346 19.5919 13.5751 19.5477C13.4472 19.511 13.1851 19.4135 12.8623 19.3333C12.6369 19.2751 12.3853 19.2316 12.0971 19.1761C11.3858 19.0456 10.6143 18.8962 10.3397 18.751V18.7505Z" fill="#252211"/>
<path fill-rule="evenodd" clip-rule="evenodd" d="M9.54197 17.4111C9.37058 17.5563 9.18871 17.6947 9.01104 17.8304L8.47854 18.2408C8.29614 18.375 8.11847 18.5139 7.9366 18.648C7.75473 18.7822 7.56972 18.9101 7.37894 19.0338C7.55032 18.8886 7.73272 18.7544 7.91458 18.6224C8.09645 18.4903 8.28514 18.3603 8.46072 18.2261L8.99636 17.8142C9.18033 17.68 9.358 17.5411 9.54459 17.4111H9.54197ZM8.59489 18.9285C8.59489 18.9285 8.78776 18.7681 9.02833 18.5427C9.32761 18.2628 9.69396 17.9054 9.81084 17.8404L8.59489 18.9285Z" fill="#CFB66C"/>
<path fill-rule="evenodd" clip-rule="evenodd" d="M8.59491 18.9282C8.6903 18.8333 8.79198 18.74 8.89418 18.6488L9.05142 18.5147C9.09911 18.4717 9.15309 18.4235 9.20079 18.3758C9.29618 18.2804 9.38947 18.1782 9.48486 18.0812C9.53196 18.0321 9.58183 17.9857 9.63423 17.9423C9.6605 17.9192 9.68955 17.8995 9.72071 17.8836C9.74751 17.8616 9.77856 17.8454 9.81191 17.8359C9.79042 17.8684 9.76422 17.8836 9.74273 17.9119C9.7185 17.9338 9.69541 17.9569 9.67354 17.9811C9.62532 18.0288 9.56872 18.0723 9.52365 18.1158C9.42197 18.2023 9.314 18.2872 9.21389 18.3779C9.11379 18.4685 9.01682 18.5666 8.91462 18.6572C8.80403 18.7505 8.70497 18.8417 8.59596 18.9287L8.59491 18.9282ZM9.89367 18.0613C9.89367 18.0613 9.18716 18.7531 9.04198 18.8653L9.89367 18.0613Z" fill="#CFB66C"/>
<path fill-rule="evenodd" clip-rule="evenodd" d="M9.89368 18.0615C9.83034 18.1358 9.76224 18.2058 9.6898 18.2712L9.47439 18.4735C9.4052 18.5427 9.33969 18.6124 9.26474 18.6831C9.18979 18.7539 9.11956 18.8115 9.03937 18.8718L9.24901 18.6679C9.3182 18.5987 9.3942 18.54 9.4681 18.4709L9.67774 18.267C9.74588 18.1941 9.81506 18.1244 9.89368 18.0615ZM9.92617 18.4368C9.86094 18.6184 9.78427 18.7958 9.69661 18.9677C9.51422 19.332 9.24115 19.7869 9.12008 20.0191L9.92355 18.4363L9.92617 18.4368Z" fill="#CFB66C"/>
<path fill-rule="evenodd" clip-rule="evenodd" d="M9.92356 18.4355C9.92146 18.5107 9.90528 18.5849 9.87586 18.6541C9.85083 18.7236 9.82196 18.7917 9.78938 18.858C9.75689 18.923 9.71968 18.9927 9.68456 19.0556C9.64944 19.1185 9.60437 19.1829 9.57187 19.2485L9.35279 19.6342C9.2768 19.7626 9.20342 19.8921 9.12323 20.0158C9.18057 19.8795 9.24638 19.747 9.3203 19.619C9.39629 19.4906 9.46548 19.3617 9.53466 19.2285C9.56868 19.1624 9.59912 19.0945 9.62586 19.0252C9.65835 18.9555 9.69085 18.8905 9.71705 18.8276C9.74326 18.7647 9.77523 18.6934 9.80773 18.6305C9.84085 18.5621 9.88015 18.4968 9.92513 18.4355H9.92356Z" fill="#CFB66C"/>
<path fill-rule="evenodd" clip-rule="evenodd" d="M10.695 20.2129C10.5638 20.4014 10.4962 20.6269 10.5022 20.8565C10.5609 20.6678 10.6348 20.3796 10.695 20.2129ZM10.8989 20.4975C10.8989 20.4975 10.8229 21.269 10.7606 21.6505C10.8491 21.2098 10.8664 21.247 10.8989 20.4975ZM12.3188 21.694C12.3188 21.694 11.998 22.6375 11.9912 22.8995C12.0609 22.6301 12.1951 22.0798 12.3188 21.694Z" fill="#DEC270"/>
<path fill-rule="evenodd" clip-rule="evenodd" d="M13.0688 20.1553C13.0688 20.1553 13.5892 21.0133 13.9792 21.746C13.8738 21.3775 13.6306 20.7014 13.0688 20.1553Z" fill="#CBAF59"/>
<path fill-rule="evenodd" clip-rule="evenodd" d="M14.4671 21.4189C14.753 21.924 15.0109 22.4443 15.2397 22.9777C15.1951 22.6092 15.0782 21.9787 14.4671 21.4189Z" fill="#E3C677"/>
<path fill-rule="evenodd" clip-rule="evenodd" d="M18.5767 22.6838C18.6632 22.6314 18.8346 22.3347 18.984 22.2614C19.1333 22.188 19.246 22.1702 19.3807 22.0208C19.5154 21.8714 19.5521 21.7692 19.8467 21.6455C20.2586 21.4678 19.9751 21.2378 19.9751 21.2378C20.0205 21.1933 20.069 21.1522 20.1202 21.1146C20.2251 21.0344 20.3503 20.9369 20.3393 20.7655C20.3236 20.4794 20.2712 20.0601 20.0338 19.8164C20.2633 19.7687 20.7036 19.7362 20.9772 19.6665C21.2916 19.5863 21.4389 19.4736 21.4389 19.4736C21.4389 19.4736 21.2571 19.1638 21.5516 18.8515C21.8462 18.5391 22.0873 18.353 22.2649 18.004C22.0611 17.9783 21.7502 17.8698 20.9578 18.1711C21.0007 18.1911 21.042 18.2142 21.0815 18.2403C21.0815 18.2403 20.5935 18.3745 20.4158 18.5244C20.1061 18.7865 20.0668 19.0013 19.7308 19.1617C19.3949 19.3221 19.0568 19.2786 18.7775 19.4086C18.4981 19.5386 18.4567 19.6492 18.3545 19.6969C18.3765 19.7231 18.3503 19.766 18.3912 19.8017C18.3655 19.8384 18.2135 20.0852 18.0599 20.0852C18.0751 20.1439 18.2051 20.1874 18.2051 20.1874C18.2051 20.1874 18.1097 20.2566 17.8671 20.2739C18.0301 20.4586 18.22 20.6176 18.4305 20.7456C18.4043 20.798 18.2958 20.8798 18.3393 20.982C18.3828 21.0842 18.5107 21.2226 19.0049 21.3352C18.7533 21.3457 18.4588 21.4044 18.0615 21.3504C17.6642 21.2965 17.5998 21.2744 17.3545 21.3352C17.3807 21.3614 17.4499 21.3614 17.5117 21.4306C17.4467 21.4348 17.04 21.3829 16.9006 21.5648C16.7612 21.7467 16.6909 22.0638 16.7035 22.2713C16.6275 22.3085 16.5536 22.3735 16.5908 22.5077C16.628 22.6419 16.8204 22.6859 16.9441 22.7698C17.0678 22.8536 17.0783 22.8929 17.1957 22.8714C17.3131 22.8499 17.5007 22.7221 17.6071 22.7221C17.6757 22.7253 17.7407 22.7539 17.7895 22.8022C17.7895 22.8022 18.0778 22.6634 18.104 22.6896C18.1302 22.7158 18.1087 22.8824 18.1365 22.9081C18.1642 22.9338 18.4897 22.7352 18.5767 22.6807V22.6838Z" fill="#ECD592"/>
</g>
<defs>
<clipPath id="clip0_7599_27727">
<rect width="36" height="36" rx="18" fill="white"/>
</clipPath>
</defs>
</svg>
