<svg width="36" height="36" viewBox="0 0 36 36" fill="none" xmlns="http://www.w3.org/2000/svg">
<g clip-path="url(#clip0_7599_27727)">
<rect width="36" height="36" rx="18" fill="white"/>
<g clip-path="url(#clip1_7599_27727)">
<path d="M18 36C27.9411 36 36 27.9411 36 18C36 8.05887 27.9411 0 18 0C8.05887 0 0 8.05887 0 18C0 27.9411 8.05887 36 18 36Z" fill="#988430"/>
<path d="M18 35.4235C27.6226 35.4235 35.4232 27.6229 35.4232 18.0003C35.4232 8.37778 27.6226 0.577148 18 0.577148C8.37744 0.577148 0.576813 8.37778 0.576813 18.0003C0.576813 27.6229 8.37744 35.4235 18 35.4235Z" fill="#7A6A2A"/>
<path d="M18 35.0559C27.4199 35.0559 35.0563 27.4195 35.0563 17.9996C35.0563 8.57971 27.4199 0.943359 18 0.943359C8.58008 0.943359 0.943726 8.57971 0.943726 17.9996C0.943726 27.4195 8.58008 35.0559 18 35.0559Z" fill="#BA9F33"/>
<path fill-rule="evenodd" clip-rule="evenodd" d="M7.86963 16.077C7.76751 15.984 7.65834 15.891 7.56115 15.7953C7.46396 15.6995 7.36043 15.6086 7.25831 15.5135L6.95547 15.2255C6.90547 15.1755 6.85335 15.1318 6.80405 15.0846C6.75475 15.0375 6.6963 14.9917 6.64629 14.9473C6.24415 14.5691 5.83989 14.1874 5.44127 13.8057C5.85186 14.1817 6.25401 14.5543 6.6646 14.9325L6.80546 15.0734C6.85476 15.1227 6.90758 15.1663 6.95688 15.2142L7.25972 15.4959C7.36184 15.5889 7.46044 15.6826 7.56256 15.784C7.66468 15.8854 7.76399 15.9791 7.8654 16.072L7.86963 16.077ZM2.534 16.0199C2.534 16.0199 3.99609 16.1713 4.70952 16.2728C5.37084 16.3664 7.43861 16.6834 7.43861 16.6834L2.534 16.0199ZM2.534 16.0199C2.94459 16.0544 3.35519 16.0981 3.76579 16.1418C3.97707 16.1622 4.17638 16.1854 4.37781 16.2059L4.68628 16.2411L4.98912 16.2847L6.21598 16.4798L6.82729 16.5819C7.02872 16.6164 7.22944 16.6524 7.43931 16.6897C7.23859 16.6693 7.02872 16.6404 6.82729 16.6108L6.21598 16.5235L4.98912 16.3432C4.887 16.3284 4.7884 16.308 4.68628 16.2932L4.3771 16.258C4.17638 16.2375 3.96651 16.2087 3.76579 16.1875C3.35519 16.1382 2.94459 16.0861 2.53329 16.022L2.534 16.0199ZM7.29282 17.0644C7.29282 17.0644 5.73214 17.4609 5.20463 17.6123C4.67712 17.7637 3.11714 18.2328 3.11714 18.2328L7.29353 17.0651L7.29282 17.0644Z" fill="#CFB66C"/>
<path fill-rule="evenodd" clip-rule="evenodd" d="M7.29283 17.0649C6.94632 17.167 6.60193 17.2663 6.25049 17.3593L5.20745 17.641C4.86095 17.7431 4.51655 17.8424 4.17075 17.9438L3.6524 18.0847C3.48056 18.134 3.3059 18.1776 3.12842 18.2255C3.29956 18.1678 3.47492 18.1086 3.64677 18.0593L4.16512 17.8931C4.51162 17.7854 4.85602 17.6818 5.20182 17.5755C5.55396 17.4882 5.90047 17.3952 6.25331 17.3107C6.58784 17.2262 6.94069 17.1417 7.29283 17.0635V17.0649ZM3.33477 19.1946C3.50662 19.1305 5.48705 18.2086 5.94765 17.9917C6.17795 17.8833 6.84772 17.6459 6.84772 17.6459L3.33477 19.1946Z" fill="#CFB66C"/>
<path fill-rule="evenodd" clip-rule="evenodd" d="M3.33478 19.1947C3.4862 19.137 3.62917 19.0666 3.77425 18.9996L4.20527 18.7982L5.07083 18.382C5.35888 18.2454 5.63848 18.0939 5.93569 17.9651C6.08711 17.9017 6.23853 17.8489 6.38995 17.7996L6.62025 17.7291C6.69913 17.7094 6.77167 17.6855 6.85055 17.665C6.5625 17.8024 6.25965 17.9186 5.9709 18.0524C5.68214 18.1862 5.38846 18.3123 5.09125 18.4397L4.21161 18.8271C3.91651 18.9468 3.62846 19.075 3.33478 19.1976V19.1947ZM3.52705 20.0011C3.52705 20.0011 5.32085 18.9496 5.9385 18.6116C6.26177 18.4313 7.30762 17.9122 7.30762 17.9122L3.52705 20.0011Z" fill="#CFB66C"/>
<path fill-rule="evenodd" clip-rule="evenodd" d="M3.52704 20.0012C3.82988 19.8146 4.13836 19.6258 4.44754 19.4336L4.90813 19.1518C5.06519 19.0582 5.21661 18.9708 5.37719 18.8779C5.53776 18.7849 5.68566 18.6912 5.84624 18.6039C5.92239 18.5569 6.00224 18.5162 6.08499 18.4821L6.32937 18.3595C6.65264 18.2025 6.9759 18.0419 7.31537 17.9053C7.00689 18.1004 6.68926 18.2666 6.37163 18.4384C6.21457 18.5257 6.054 18.6039 5.89694 18.6913C5.73989 18.7786 5.58847 18.8722 5.42789 18.9568C5.26732 19.0413 5.11942 19.1371 4.95884 19.2216L4.48416 19.4807L3.52634 19.9991L3.52704 20.0012ZM7.29283 18.1433C7.29283 18.1433 6.17725 18.999 5.81384 19.2702C5.45043 19.5413 4.3919 20.316 4.3919 20.316L7.29283 18.1433Z" fill="#CFB66C"/>
<path fill-rule="evenodd" clip-rule="evenodd" d="M13.6954 25.0489L13.1243 23.9685L13.456 22.617L15.8245 21.7022L14.8167 19.6344L15.3146 17.5462L16.2499 15.6763L19.1388 15.2221L21.2622 13.1973L25.8471 13.5445L26.7465 18.4463L25.0139 24.6179L24.0265 27.8132L20.0241 27.9646L18.1662 26.6772L15.99 25.7687L13.6954 25.0489Z" fill="#E2CC85"/>
<path fill-rule="evenodd" clip-rule="evenodd" d="M20.7143 25.0128C20.7143 25.0128 20.1607 25.2664 19.217 25.2079C18.9437 24.841 17.0302 24.6692 17.0302 24.6692C17.0302 24.6692 16.7915 24.5987 16.3689 24.7713C15.9463 24.9438 15.5421 24.9227 15.166 25.0164C14.7899 25.11 14.4173 24.6199 14.1293 24.5177C13.8949 24.4168 13.6707 24.294 13.4595 24.1508L12.6531 24.0726L11.0333 23.3881L8.46053 20.8252L7.76541 21.9189L7.5499 23.274L8.3246 24.8783L10.4191 26.7862L14.504 27.8229L16.9211 27.1102L19.9495 25.8284L20.7143 25.0128Z" fill="#F1D789"/>
<path fill-rule="evenodd" clip-rule="evenodd" d="M6.20683 15.9556L6.72519 14.3857L7.34284 13.3723L9.33173 13.2061L8.7352 14.9477L7.07169 17.9071L7.76189 20.5489L6.53926 21.1602L6.16317 20.5834L5.86033 19.2615L5.8399 17.7761L6.20683 15.9556Z" fill="#F4ECB4"/>
<path fill-rule="evenodd" clip-rule="evenodd" d="M8.43798 24.9061L8.05626 24.373C7.99797 24.2219 7.98285 24.0575 8.0126 23.8983C8.07035 23.6736 8.0619 23.6588 8.03302 23.5743C8.00415 23.4898 7.75906 23.1989 7.77385 22.9482C7.78864 22.6975 7.75342 22.6102 7.93935 22.4094C8.12528 22.2087 8.08021 21.8763 8.08021 21.8763L8.33375 22.0341L8.3908 21.9467C8.41848 21.9695 8.44111 21.9978 8.45724 22.0298C8.47336 22.0618 8.48264 22.0969 8.48446 22.1327C8.50418 21.9756 8.42037 21.2474 8.61194 21.0812C8.8035 20.915 9.14508 21.8594 9.14508 21.8594L8.9338 20.4903L8.39432 19.0867L7.4365 17.8049L7.37874 16.3921V16.2695C7.37874 16.2695 6.93857 16.9456 6.81532 17.4795C6.72799 17.8464 6.93716 18.2922 6.8935 18.8176C6.84983 19.343 6.81532 19.3015 6.94279 19.5092C7.07027 19.717 7.38297 20.1431 7.26043 20.453C7.15267 20.7178 6.78574 20.5311 6.78574 20.5311C6.78574 20.5311 6.71531 20.7466 6.6139 20.8255C6.59182 20.7192 6.54338 20.6202 6.47304 20.5375C6.4667 20.5868 6.45262 20.6544 6.45262 20.6544C6.45262 20.6544 6.38853 20.453 6.32444 20.1994C6.23711 19.8621 6.14344 19.4163 6.05892 19.1775C6.023 19.3155 5.93427 19.7311 5.93427 19.7311L5.98356 20.372L6.22232 21.2509L6.45262 21.827L6.67728 22.5313L6.87166 23.0046L7.02942 23.3659L7.16605 24.1786L7.82737 24.8772L8.17951 25.035L8.43587 24.904L8.43798 24.9061Z" fill="#F3E19D"/>
<path fill-rule="evenodd" clip-rule="evenodd" d="M6.55332 14.6733C6.55332 14.6733 6.07864 15.4797 5.9413 16.2932C5.80397 17.1066 5.68213 17.9651 5.76876 19.0723C5.8204 19.8463 5.95017 20.6132 6.15611 21.3612C6.38641 22.1739 6.98364 23.3043 6.98364 23.3043L7.00406 23.2606C6.90364 23.0704 6.82339 22.8703 6.76461 22.6634C6.68643 22.3549 6.65685 21.988 6.58431 21.8218C6.51177 21.6556 6.41247 21.5133 6.36035 21.3091C6.30824 21.1048 6.3026 20.8055 6.14907 20.5752C6.08498 20.4822 6.00821 20.2372 5.98286 19.9928C5.95398 19.6258 5.99765 19.2181 5.96243 18.8772C5.89834 18.3138 5.85468 17.9335 5.91313 17.6391C5.97159 17.3447 6.27443 16.5122 6.46106 15.8453C6.5829 15.4227 6.51036 15.0614 6.73432 14.6916C6.91762 14.4095 7.05612 14.1006 7.14492 13.7761C7.20267 13.5725 6.55121 14.6733 6.55121 14.6733H6.55332Z" fill="#F2E8B0"/>
<path fill-rule="evenodd" clip-rule="evenodd" d="M8.80492 14.3506C8.80492 14.3506 8.55983 14.421 8.44363 14.5513C8.32742 14.6816 8.27742 14.776 8.12036 14.9823C7.96331 15.1887 7.95415 15.3584 7.82597 15.6162C7.69779 15.8739 7.41538 16.25 7.38016 16.3909C7.34495 16.5317 7.2872 17.1656 7.21466 17.4713C7.14212 17.7769 7.28508 18.1474 7.28508 18.1474L7.45129 18.1121C7.45688 18.2496 7.51633 18.3794 7.6168 18.4734C7.78301 18.6143 7.81189 17.9896 7.81189 17.9896L8.43236 15.8958L9.36764 15.2619L9.46906 14.7492L8.8021 14.3534L8.80492 14.3506Z" fill="#F5EEC0"/>
<path fill-rule="evenodd" clip-rule="evenodd" d="M9.25916 15.2996C9.25916 15.2996 8.81899 15.3291 8.60348 15.4862C8.51615 15.5503 8.48164 15.6024 8.38797 15.6813C8.21612 15.8221 8.04146 15.9552 7.95695 16.1419C7.87244 16.3285 7.76539 16.6109 7.69496 17.1441C7.66608 17.368 7.66608 17.5751 7.64566 17.7554C7.61608 18.0005 7.57523 18.1956 7.59565 18.3315C7.62523 18.6132 7.91328 18.754 7.94146 19.0745L8.53869 18.7717L9.10211 16.5546L10.2994 15.8059L9.62328 15.0488L9.2655 15.2981L9.25916 15.2996Z" fill="#E6DB9D"/>
<path fill-rule="evenodd" clip-rule="evenodd" d="M6.10892 30.2244C6.10892 30.2026 6.11385 30.1808 6.11666 30.1582C6.20329 29.4096 6.21808 28.8419 6.28217 28.4863C6.37514 27.9827 6.43922 27.7954 6.42303 27.6066C6.4026 27.3038 6.37936 27.0826 6.40824 26.8495C6.4519 26.5411 6.75474 26.1741 6.74629 25.9206C6.74066 25.7192 6.63854 25.5882 6.55121 25.4663C6.46387 25.3445 6.39345 25.2417 6.39345 25.2417C6.39345 25.2417 6.99068 24.8325 6.99068 23.1816C7.00293 23.1852 7.01475 23.1902 7.02589 23.1964L7.31605 24.0268L7.51748 24.2719L8.29219 25.7107L9.28522 26.6749L10.7529 27.6609L11.6734 28.6624L11.7664 31.333L10.5607 32.9007L10.3642 33.2529C8.79921 32.467 7.36409 31.4456 6.10892 30.2244Z" fill="#E5CB7A"/>
<path fill-rule="evenodd" clip-rule="evenodd" d="M9.78317 32.7817C9.80591 32.5678 9.9116 32.3713 10.0776 32.2345C10.1193 32.2909 10.1418 32.3593 10.1417 32.4295C10.2712 32.2217 10.4433 32.0436 10.6466 31.907C10.85 31.7705 11.0799 31.6785 11.3213 31.6372C12.1052 31.4964 12.2939 30.9238 12.2939 30.9238L13.9574 29.4117L15.859 27.6616L18.1719 26.8488L19.2522 26.5833C19.2637 26.6683 19.2568 26.7548 19.2318 26.8368C19.4332 26.8228 19.8783 26.7206 20.3417 26.5551C20.5284 26.4847 20.703 26.4537 20.796 26.5495C20.9369 26.6777 20.9531 26.9805 20.9622 27.1608C21.1862 27.1115 21.4454 26.896 21.6531 26.9164C21.9855 26.9516 22.2792 27.339 22.6173 27.339C23.0631 27.339 23.2638 27.065 23.5758 26.8495C23.7624 26.7213 24.0301 26.5615 24.1815 26.4537C24.5428 26.1882 28.3642 25.0205 28.3642 25.0205L29.7023 25.1078L29.9178 26.5467L29.803 30.3075L29.7601 30.3491L23.6695 33.5353L15.2251 34.8297C13.3335 34.5204 11.5082 33.8922 9.82684 32.9718L9.78388 32.7803L9.78317 32.7817Z" fill="#D8C173"/>
<path fill-rule="evenodd" clip-rule="evenodd" d="M6.62094 30.7042C6.74067 30.4535 6.84913 30.2436 6.86814 30.1689C6.88293 30.3197 6.9104 30.6521 6.96533 31.0049C6.84983 30.9063 6.73433 30.8056 6.62094 30.7042Z" fill="#F1D789"/>
<path fill-rule="evenodd" clip-rule="evenodd" d="M12.789 34.2444L13.8814 33.9408L13.9743 33.9704C13.9743 33.9704 14.0243 33.9993 14.0243 34.0979C14.161 34.0197 14.2779 34.0338 14.3617 33.9817C14.4054 34.0746 14.449 34.3838 14.6434 34.4219C14.8378 34.4599 15.0603 34.3338 15.2773 34.1683C15.4942 34.0028 15.7379 33.781 15.9238 33.6936C15.992 33.8188 16.0522 33.9482 16.1041 34.081C16.3492 33.8859 16.7746 33.095 17.3802 33.1077C17.5553 32.6941 17.8476 32.3408 18.2211 32.0914C18.7846 31.7097 19.1367 31.6808 19.5755 31.716C19.7497 31.4889 19.9647 31.2962 20.2093 31.1477C20.2798 31.1772 20.4833 31.2991 20.7333 31.1829C20.9833 31.0667 21.2721 30.6145 21.6489 30.5568C21.8513 30.5289 22.0571 30.572 22.2313 30.6786C22.2313 30.6786 23.3258 29.5926 24.0808 29.2313C24.0519 29.144 23.9934 28.8151 24.8787 28.0862C24.9287 28.1305 24.8935 28.2524 24.9287 28.2594C25.1102 28.1831 25.2798 28.0811 25.4323 27.9566C25.7703 27.703 26.1746 27.4382 26.4183 27.365C26.8789 27.2283 27.3676 27.5058 27.3676 27.5058C27.4091 27.4766 27.4553 27.4549 27.5043 27.4417C27.5941 27.4291 27.6828 27.4098 27.7698 27.384C27.7634 27.5354 27.848 27.7946 27.7698 28.0178C27.8608 28.0696 27.9574 28.1107 28.0578 28.1404C28.0085 28.2481 27.9001 28.5221 27.7198 28.6531C27.8712 28.7235 27.8916 28.8102 28.1071 28.8834C27.9996 29.0307 27.9012 29.1845 27.8127 29.344C27.7487 29.4849 27.5184 30.0483 27.4169 30.2645C27.3155 30.4807 27.1634 30.8765 27.093 30.9561C27.0225 31.0357 26.7697 31.3723 26.5746 31.5378C26.7479 31.4737 27.455 31.2561 27.7543 31.1772L26.781 32.6281C24.6979 33.8765 22.3727 34.6667 19.9603 34.946C17.5479 35.2254 15.1037 34.9874 12.7904 34.2479L12.789 34.2444Z" fill="#E0CD81"/>
<path fill-rule="evenodd" clip-rule="evenodd" d="M9.33102 15.2242C9.33102 15.2242 9.07748 15.2242 9.02818 15.2587C8.97888 15.2932 9.28173 15.3664 9.37469 15.3995C9.46766 15.4326 9.66908 15.5946 9.7212 15.7228C9.77331 15.851 11.5418 16.5623 11.5418 16.5623L12.794 16.4919L13.2257 15.8953L12.4045 15.1756L12.9806 13.4775L12.2179 13.6043L10.3825 14.6988L9.46202 15.0509L9.33102 15.2242Z" fill="#DFC57C"/>
<path fill-rule="evenodd" clip-rule="evenodd" d="M12.0812 15.7871C12.0994 15.8165 12.125 15.8405 12.1554 15.8568C12.1858 15.8731 12.22 15.8812 12.2545 15.8801C12.5136 15.8801 12.7524 15.9442 12.851 16.0752C13.0172 16.2864 13.4778 16.9548 13.4778 16.9548L14.5786 17.3513L14.649 16.0547L13.4461 15.2188L12.0777 15.7167V15.7871H12.0812Z" fill="#E5CC7C"/>
<path fill-rule="evenodd" clip-rule="evenodd" d="M11.8657 16.2638C12.0208 16.2674 12.1752 16.2406 12.32 16.1849C12.5728 16.092 12.9898 15.8912 13.1701 15.9701C13.4236 16.0772 13.3708 16.4152 13.6454 16.7188C13.811 16.9047 14.1138 16.8991 14.2856 17.1005C14.4575 17.3019 15.0491 17.2082 15.0491 17.2082L15.273 18.4175L14.373 19.5711L14.0786 21.0043H12.8616L11.7502 20.5627L11.203 19.238L11.4763 17.8999L11.8657 16.2652V16.2638Z" fill="#D2C281"/>
<path fill-rule="evenodd" clip-rule="evenodd" d="M14.2194 16.3227C14.2496 16.3318 14.2809 16.3368 14.3124 16.3375C14.2779 16.3663 14.2046 16.4304 14.2335 16.5966C14.2624 16.7629 14.3561 16.972 14.2779 17.1002C14.3405 17.1687 14.3872 17.2502 14.4145 17.339C14.4638 17.4798 14.4786 17.6129 14.8019 17.6333C14.7551 17.662 14.712 17.6963 14.6737 17.7355C14.8008 17.8469 14.9142 17.9729 15.0118 18.1108C15.155 18.0884 15.2963 18.0547 15.4343 18.0101L15.4984 18.0538L15.6357 17.996C15.6357 17.996 15.5076 17.9467 15.6005 17.6347C15.6879 17.3608 15.7667 17.3756 15.7731 17.353C15.8054 17.214 15.8271 17.0728 15.8379 16.9305C15.876 16.7284 15.9021 16.5243 15.916 16.3192L15.8231 15.3029L15.3012 14.9845L14.8744 14.5732L14.4723 15.3303L14.2082 15.5944L14.1877 16.2494L14.2194 16.3199V16.3227Z" fill="#E2C270"/>
<path fill-rule="evenodd" clip-rule="evenodd" d="M15.4801 15.4717C15.5337 15.6249 15.5767 15.7816 15.609 15.9407C15.6212 15.901 15.6278 15.8597 15.6287 15.8182C15.6287 15.8182 15.6991 16.2203 15.716 16.3865C15.7456 16.3809 15.7738 16.3717 15.7801 16.4013C15.8194 16.5761 15.8388 16.7547 15.8378 16.9338C15.9592 16.7338 16.1271 16.5661 16.3273 16.445C16.4439 16.3599 16.58 16.3056 16.7231 16.2872C16.9478 16.2816 17.1105 16.4281 17.3788 16.4281C18.0253 16.4281 18.6106 15.9534 19.0416 15.8076C19.3592 15.6999 19.6332 15.621 19.8255 15.4463C19.9891 15.2987 20.1278 15.1255 20.2361 14.9336C20.4368 14.5885 20.6467 14.2871 20.8565 14.2497C20.7615 14.2667 20.665 14.2736 20.5685 14.2702C20.6234 14.2166 20.681 14.1658 20.741 14.118C20.8502 14.0307 20.9798 13.923 21.1636 13.923C21.4953 13.923 21.6615 13.9723 21.8482 13.9723C21.9481 13.9718 22.0473 13.9551 22.1419 13.923C22.1419 13.923 22.3377 14.0603 22.7757 14.0603C23.2138 14.0603 23.5096 14.104 23.7399 14.1244C23.9702 14.1448 24.7421 14.0603 24.9632 14.0666C25.1074 14.0721 25.2491 14.1069 25.3794 14.1688L24.6681 12.0975L22.1045 9.85645L20.5833 10.9368L18.2352 13.2849L15.9639 14.1265L15.4864 14.6603V15.4724L15.4801 15.4717Z" fill="#CCB360"/>
<path fill-rule="evenodd" clip-rule="evenodd" d="M20.5777 14.2831C20.5777 14.2831 20.6418 14.219 20.7495 14.1317C20.8573 14.0443 20.9883 13.9366 21.1721 13.9366C21.5038 13.9366 21.67 13.9859 21.8559 13.9859C21.9561 13.9854 22.0555 13.9688 22.1503 13.9366C22.1503 13.9366 22.3461 14.0732 22.7842 14.0732C23.2222 14.0732 23.518 14.1169 23.7483 14.1373C23.9786 14.1577 24.7498 14.0732 24.9717 14.0795C25.1159 14.0851 25.2575 14.1199 25.3879 14.1817L25.0646 13.2464L24.6893 12.5329L23.6173 11.3589L22.325 10.5962C22.3194 10.5905 21.8792 10.4736 21.8792 10.4736L20.7143 11.1779L19.6579 13.9126L19.6375 14.4887L20.322 14.812C20.4939 14.524 20.6833 14.2937 20.8608 14.2648C20.7002 14.2824 20.5791 14.2824 20.5791 14.2824L20.5777 14.2831Z" fill="#D5B457"/>
<path fill-rule="evenodd" clip-rule="evenodd" d="M20.5629 14.4784C20.4607 14.484 20.3769 14.4636 20.3516 14.391C20.2642 14.1466 20.1938 14.1093 20.1206 14.1093C20.0473 14.1093 19.9487 14.2664 19.8903 14.2812C19.8318 14.296 19.7621 14.1009 19.7621 14.1009L19.698 14.0713C19.4661 14.2255 19.2515 14.4043 19.0578 14.6044C18.7923 14.8925 18.3585 15.3791 18.1634 15.4693C17.9683 15.5594 17.2985 15.5862 17.0689 15.6355C16.8806 15.6835 16.7041 15.7698 16.5506 15.889C16.5154 15.9264 16.6527 15.9672 16.6731 16.0052C16.6935 16.0433 16.4485 16.0257 16.428 16.063C16.4076 16.1003 16.4858 16.2581 16.5217 16.3447C16.5842 16.3138 16.6527 16.2968 16.7224 16.2947C16.9464 16.2891 17.1098 16.4356 17.3774 16.4356C18.0246 16.4356 18.6099 15.9609 19.0409 15.8151C19.3585 15.7073 19.6325 15.6285 19.8241 15.4538C19.988 15.3062 20.1269 15.1331 20.2354 14.9411C20.3317 14.7776 20.4408 14.622 20.5615 14.4755L20.5629 14.4784Z" fill="#D2B257"/>
<path fill-rule="evenodd" clip-rule="evenodd" d="M11.2868 28.893C11.2868 28.893 11.229 28.6775 10.6952 28.1183C10.5438 27.9612 10.4508 27.8302 10.3487 27.7373C10.0952 27.4978 9.94655 27.4337 9.76625 27.2971C9.36974 27.0027 8.93872 27.0027 8.60701 26.6421C8.27529 26.2815 7.88794 25.5906 7.62101 24.8856C7.35409 24.1807 7.28296 23.9567 7.28296 23.9363C7.28296 23.9158 7.35339 23.7785 7.44917 23.7989C7.54495 23.8194 7.54213 23.9997 7.56538 24.044C7.61209 24.1152 7.66462 24.1823 7.72243 24.2447C7.86329 24.4018 8.05485 24.5898 8.15415 24.8709C8.13547 24.7002 8.10129 24.5317 8.05203 24.3673C8.05203 24.3673 8.56475 24.6906 9.0014 25.0279C9.43806 25.3653 9.62187 25.4829 9.75005 25.6977C9.87823 25.9125 10.1811 26.4815 10.3262 26.6478C10.4712 26.814 12.4573 27.4401 12.4573 27.4401L13.4025 28.1443L13.8715 29.1726L13.5039 29.7487L12.7996 29.9001L11.6544 29.3874L11.2882 28.8902L11.2868 28.893Z" fill="#D2B159"/>
<path fill-rule="evenodd" clip-rule="evenodd" d="M8.74647 25.351C8.74647 25.351 8.98522 25.7327 9.56766 26.094C10.0923 26.4116 10.922 26.6997 11.6622 26.8687C12.065 26.9744 12.4779 27.037 12.894 27.0554C13.9222 27.0694 14.63 26.7736 15.5069 26.6793C15.9815 26.63 16.5633 26.5919 17.1697 26.449C17.9444 26.2623 18.4078 26.0532 19.0339 25.7581C19.4882 25.5468 19.9051 25.3911 20.2424 25.1897C20.7171 24.908 21.0643 24.5988 21.4658 24.5059C21.4165 24.6425 21.3644 24.8869 20.9678 25.1397C21.1791 25.1341 21.4658 25.1193 21.4658 25.1193C21.4658 25.1193 21.1841 25.2855 20.6911 25.6581C20.3882 25.8891 19.9868 26.2785 19.5762 26.5377C19.3107 26.7039 19.0226 26.8258 18.8332 26.9251C18.3719 27.1786 18.1866 27.3068 17.8838 27.6167C17.9223 27.6112 17.9615 27.6112 18 27.6167C17.773 27.648 17.5522 27.7138 17.345 27.8118C17.2334 27.8003 17.1206 27.8101 17.0126 27.8406C16.876 27.8843 16.695 27.9815 16.509 28.0357C16.2435 28.1146 16.1569 28.0794 16.1569 28.0794L16.2006 28.1667C16.2006 28.1667 15.8555 28.1611 15.74 28.173C15.7604 28.1787 15.7548 28.1871 15.7548 28.1871C15.7345 28.1906 15.715 28.1975 15.697 28.2076C15.6416 28.2435 15.5807 28.2701 15.5167 28.2864C15.4815 28.2921 15.4526 28.2921 15.409 28.3005C15.423 28.3357 15.5371 28.5315 15.5893 28.6463C15.5456 28.6759 14.8899 29.171 14.8899 29.171C14.9103 29.2028 14.9271 29.2369 14.9399 29.2724C14.9603 29.3365 14.9688 29.4302 14.9892 29.4739C15.0385 29.5612 15.0681 29.5753 15.0681 29.5753C15.0681 29.5753 14.9892 29.5901 14.8519 29.6253C14.7007 29.6704 14.5468 29.7064 14.3913 29.733C14.3293 29.7409 14.2671 29.7456 14.2046 29.7471C14.2556 29.8414 14.2755 29.9493 14.2615 30.0556C14.2474 30.1618 14.2002 30.2609 14.1265 30.3387C13.8905 30.6204 13.8173 30.662 13.7447 30.8423C13.7082 30.8154 13.6693 30.7918 13.6285 30.7718C13.5497 30.7366 13.4419 30.6845 13.4039 30.6148C13.3818 30.708 13.3526 30.7993 13.3165 30.8881C13.2461 31.0831 13.1362 31.2754 13.1158 31.4212C13.0369 31.3339 12.8912 31.162 12.6933 31.1972C12.4954 31.2324 12.332 31.5057 12.2975 31.5846C12.2975 31.5346 12.2622 31.4973 12.2538 31.555C12.161 32.0513 11.902 32.5012 11.5192 32.8305C11.5129 32.6931 11.5129 32.3903 11.4988 32.2917C11.441 32.3487 11.3706 32.4325 10.9509 32.6149C10.5311 32.7974 10.6051 32.9762 10.6051 32.9762C10.5958 32.7632 10.6618 32.5538 10.7917 32.3846C11.0164 32.0818 11.153 31.9388 11.153 31.9156C11.1492 31.8919 11.139 31.8698 11.1234 31.8515C11.0945 31.8226 11.0361 31.7874 11.0361 31.7642C11.0713 31.7501 11.4178 31.5839 11.3974 31.2402C11.3863 31.0235 11.2999 30.8175 11.153 30.6577C11.1382 30.643 11.2939 30.5352 11.2692 30.5C11.2551 30.4796 11.0685 30.3429 11.0452 30.2697C11.051 30.2262 11.0607 30.1833 11.0741 30.1415C11.0947 30.0937 11.1047 30.0421 11.1037 29.9901C11.0776 29.8875 11.0383 29.7888 10.9868 29.6964C11.0422 29.6993 11.0976 29.6993 11.153 29.6964C11.0979 29.6102 11.0521 29.5183 11.0164 29.4224C10.9931 29.3006 10.9637 29.18 10.9283 29.0611C10.9783 29.0668 11.1002 29.0759 11.1002 29.0611C11.1065 29.0175 10.9931 28.9449 11.0431 28.8886C11.1104 28.9063 11.1691 28.9476 11.2086 29.0048C11.1741 28.9118 11.1157 28.7308 10.9931 28.6583C11.0618 28.6339 11.1347 28.6238 11.2074 28.6288C11.2801 28.6337 11.351 28.6536 11.4157 28.6872C11.5153 28.7439 11.5955 28.8293 11.646 28.9323C11.646 28.9323 11.7481 29.0104 11.9052 29.1273C12.0862 29.2682 12.3158 29.4731 12.6834 29.6168C12.7616 29.6605 12.9651 29.6605 13.106 29.6309C13.1695 29.6166 13.2305 29.5929 13.287 29.5605C13.3072 29.5484 13.3287 29.5385 13.3511 29.5309C13.3195 29.4683 13.2835 29.408 13.2433 29.3506C13.2926 29.3506 13.3511 29.3562 13.3511 29.3562C13.3511 29.3562 13.3856 29.2781 13.2285 29.1259C13.2637 29.0914 13.3074 29.0682 13.3074 29.0097C13.2458 28.9895 13.1913 28.9521 13.1503 28.902C13.1792 28.8816 13.2208 28.8146 13.2722 28.7942C13.2285 28.759 13.1208 28.6132 13.0715 28.5991C13.1187 28.5817 13.1644 28.5602 13.2081 28.535C13.0966 28.5074 12.9882 28.4682 12.8848 28.4181C12.8018 28.349 12.7133 28.2868 12.62 28.2322C12.5496 28.2026 12.4186 28.1885 12.3665 28.1301C12.4285 28.1375 12.4911 28.1375 12.5531 28.1301C12.5968 28.1301 12.6172 28.1357 12.6313 28.1357C12.6256 28.1153 12.6256 28.0716 12.739 28.0575C12.7939 28.049 12.8471 28.0322 12.8968 28.0075C12.8086 27.9938 12.7275 27.9509 12.6665 27.8857C12.5439 27.7688 12.4418 27.6744 12.3721 27.661C12.3024 27.6477 12.1608 27.7103 12.0777 27.7047C12.0158 27.7013 11.957 27.6764 11.9115 27.6343C11.9115 27.6343 11.5249 27.6688 10.6656 27.1448C9.92262 26.6905 9.59935 26.2884 9.59935 26.2884C9.52992 26.2632 9.46277 26.2321 9.39863 26.1954C9.11692 26.0496 8.73097 25.7468 8.74295 25.3503L8.74647 25.351Z" fill="#C2A44D"/>
<path fill-rule="evenodd" clip-rule="evenodd" d="M19.4621 7.86925C19.5293 7.89146 19.5891 7.93194 19.6346 7.98616C19.7755 8.14321 19.8593 8.44042 19.5473 8.76087C19.635 8.80229 19.7329 8.81746 19.829 8.80453C19.7213 8.93271 19.4769 9.20597 19.4621 9.44543C19.4473 9.64052 19.5698 9.69827 19.5698 9.69827C19.4446 9.86434 19.3762 10.0664 19.3747 10.2744C19.4627 10.1751 19.5591 10.0837 19.6628 10.0011C19.8898 9.82392 20.1266 9.65957 20.372 9.50881C20.3692 9.56012 20.3762 9.6115 20.3924 9.66023C20.3924 9.66023 20.7678 9.35106 21.084 9.48839C21.2249 9.55248 21.1622 9.7532 21.1622 9.7532C21.2183 9.73335 21.2787 9.72882 21.3371 9.74009C21.3956 9.75136 21.4499 9.77801 21.4946 9.81729C21.6313 9.95462 21.8249 10.3103 21.9242 10.4441C22.0217 10.5647 22.1129 10.6902 22.1975 10.8202C22.3565 11.0853 22.4893 11.3653 22.594 11.6562C22.5996 11.5047 22.6377 11.2688 23.0687 11.4167C23.4997 11.5646 23.9892 11.8858 24.3998 12.5112C24.8104 13.1366 24.9125 13.843 25.1189 14.1113C25.3252 14.3796 25.5414 14.8015 25.559 14.9825C25.5766 15.1635 25.4949 15.7452 25.926 17.3214C26.0478 16.8319 26.2344 15.7452 26.2344 15.7452L26.3366 14.7874L26.4528 11.8224L23.3539 9.24964L20.9354 7.49316L19.36 7.64529L19.4593 7.86925H19.4621Z" fill="#CAA13E"/>
<path fill-rule="evenodd" clip-rule="evenodd" d="M25.2147 12.2825C25.2147 12.2825 25.171 11.9944 24.44 11.5078C23.7089 11.0211 23.1434 11.0239 22.6194 10.6134C22.2172 10.2901 21.7982 9.54707 21.5249 9.30269C21.2517 9.0583 21.2172 8.35895 21.2172 8.35895L22.1109 7.6103L23.4413 5.68832L24.5681 4.4502L25.1069 5.19885L25.8556 6.07849L26.2718 7.84342L26.4232 10.4274L25.214 12.2825H25.2147Z" fill="#B59544"/>
<path fill-rule="evenodd" clip-rule="evenodd" d="M26.1147 15.3792C26.1372 14.9875 26.0895 14.5949 25.9739 14.22C25.7406 13.5218 25.4715 12.836 25.1675 12.1656C25.0886 11.7254 25.147 11.6909 25.2316 11.6409C25.3161 11.5909 25.6337 11.4106 25.8077 10.776C25.9816 10.1415 26.5211 10.1211 26.5211 10.1211L26.8535 9.87598L27.355 11.1388L27.7944 12.2776L27.9318 13.1488L28.0339 13.8911L27.7944 15.4609L26.6155 16.5272L26.114 15.3806L26.1147 15.3792Z" fill="#C89D3A"/>
<path fill-rule="evenodd" clip-rule="evenodd" d="M9.65497 32.8784V32.846C9.67966 32.8308 9.70138 32.8112 9.71906 32.7882C9.73948 32.7594 9.75427 32.7242 9.76906 32.7178C9.84429 32.6853 9.92595 32.6704 10.0078 32.6742C10.0782 32.6875 10.2726 32.7671 10.3747 32.7615C10.586 32.7559 10.829 32.5953 11.2164 32.6685C11.7988 32.7763 11.9361 33.1721 12.2728 33.396C12.4226 33.4908 12.6039 33.5225 12.777 33.4841H12.8552C12.87 33.4841 12.9778 33.3615 13.0362 33.3672C13.1524 33.3728 13.1644 33.4693 13.2369 33.4749C13.4088 33.4953 13.7412 33.3876 13.9067 33.4313C13.9593 33.4478 14.0068 33.4776 14.0446 33.5179C14.0823 33.5581 14.109 33.6074 14.1222 33.661C14.1354 33.7145 14.1345 33.7706 14.1197 33.8238C14.1049 33.8769 14.0767 33.9253 14.0377 33.9644C13.8574 34.1299 13.6856 34.2877 13.6511 34.425C13.6954 34.4588 13.7377 34.4954 13.7785 34.5335C12.3373 34.1662 10.9506 33.6109 9.65427 32.8819L9.65497 32.8784Z" fill="#CEB052"/>
<path fill-rule="evenodd" clip-rule="evenodd" d="M25.1646 27.0558C25.1646 27.0558 25.6189 26.4501 25.7767 26.15C25.9344 25.85 25.2787 21.9244 25.2787 21.9244L26.595 17.6106L26.5598 16.207C26.5598 16.207 26.6239 14.9111 26.7753 14.3484C26.9563 14.6717 27.5183 15.0626 27.6409 15.2689C27.6986 14.8731 27.8937 14.0371 27.8649 13.1455C27.9726 13.3117 28.2318 14.9809 28.2318 14.9809L28.491 16.1077L28.829 17.305L29.2051 18.5657L29.4291 19.4368L29.5572 19.6481L29.6685 20.0129L29.7706 20.4088L30.0643 21.3384L30.2319 22.0983L30.3728 23.4822C30.4027 23.5881 30.4241 23.6962 30.4369 23.8055C30.4388 23.8942 30.4319 23.9829 30.4165 24.0703C30.4432 24.2568 30.4531 24.4454 30.446 24.6337C30.4165 24.864 30.4165 25.0443 30.2348 25.2098C30.0531 25.3753 29.9404 26.3634 29.9404 26.3634L29.6171 26.1479C29.6515 25.9556 29.6208 25.7574 29.5298 25.5845C29.4712 25.4783 29.3802 25.3937 29.2701 25.343C29.1599 25.2923 29.0365 25.2782 28.9178 25.3028C28.7522 25.3373 28.4205 25.3901 28.3121 25.4831C28.2036 25.5761 27.9599 25.8648 27.7296 25.9958C27.4416 26.1684 26.9725 26.1824 26.7225 26.2402C26.4725 26.2979 26.1894 26.4705 25.895 26.6712C25.664 26.8209 25.42 26.9496 25.1661 27.0558H25.1646Z" fill="#CCA847"/>
<path fill-rule="evenodd" clip-rule="evenodd" d="M25.1646 33.4224C25.1646 33.4224 25.1844 33.435 25.221 33.4555C27.2904 32.4858 29.1446 31.1115 30.6742 29.4136C30.6573 28.8241 30.6355 28.2163 30.6115 27.9959C30.5622 27.5212 30.5975 27.0381 30.5827 26.7585C30.5679 26.4789 30.4108 25.34 30.3383 25.0456C30.2657 24.7513 30.108 24.6055 30.0847 24.6055C30.0615 24.6055 29.9439 25.159 29.9439 25.2971C29.9439 25.4351 29.915 25.7661 29.915 25.8506C29.8946 25.8443 29.8861 25.7929 29.8861 25.7718C29.8566 25.8422 29.8213 25.9725 29.8073 25.9873C29.7932 26.0021 29.8277 25.8654 29.8073 25.8358C29.7868 25.8063 29.7495 25.8211 29.7573 25.7485C29.7609 25.7053 29.7677 25.6625 29.7777 25.6203C29.7777 25.6203 29.6903 25.7485 29.627 26.0746C29.5636 26.4007 29.5622 26.407 29.5389 26.4359C29.5157 26.4648 29.4023 26.5873 29.3981 26.631C29.3917 26.7099 29.5058 26.7887 29.5143 26.8317C29.5199 26.9021 29.4122 27.243 29.3776 27.4078C29.3431 27.5726 29.3572 27.8973 29.3199 28.0635C29.291 28.2149 29.2621 28.3022 29.1628 28.3663C29.2333 28.3804 29.3037 28.4008 29.3037 28.4008C29.3578 28.6773 29.3014 28.964 29.1466 29.1995C29.0537 29.327 29.0304 29.3854 28.9311 29.5023C28.736 29.7178 28.5846 29.9629 28.5698 30.1228C28.56 30.0763 28.5532 30.0293 28.5494 29.9819C28.3963 30.1589 28.2524 30.3437 28.1184 30.5355C27.9529 30.7947 27.7226 30.7799 27.6578 30.844C27.6271 30.8818 27.6058 30.9263 27.5958 30.974C27.5857 31.0216 27.5872 31.071 27.6 31.118C27.5423 31.132 27.4338 31.1525 27.3613 31.3771C27.3173 31.5092 27.2246 31.6195 27.1021 31.6856C26.9797 31.7452 26.8492 31.7865 26.7148 31.8081C26.7623 31.8157 26.8083 31.8304 26.8514 31.8518C26.8077 31.9222 26.607 32.0384 26.3823 32.1835C26.207 32.2951 26.0714 32.4593 25.995 32.6526C25.973 32.7113 25.9349 32.7627 25.8851 32.8008C25.8353 32.839 25.7757 32.8623 25.7133 32.8681C25.771 32.9033 25.8541 32.985 25.8999 33.0089C25.7615 33.0282 25.6328 33.0914 25.533 33.1892C25.3287 33.3583 25.259 33.4083 25.1661 33.4224H25.1646Z" fill="#C39D3C"/>
<path fill-rule="evenodd" clip-rule="evenodd" d="M21.1122 34.7721C21.2238 34.6938 21.3447 34.6297 21.4721 34.5812C21.9264 34.4009 22.4067 34.3657 22.5989 34.3072C22.7912 34.2488 22.9222 34.1706 23.1462 34.127C23.1405 34.1777 23.1356 34.2263 23.13 34.2678C22.4688 34.4754 21.7957 34.6426 21.1143 34.7686L21.1122 34.7721Z" fill="#D2BA6B"/>
<path fill-rule="evenodd" clip-rule="evenodd" d="M29.491 22.824C29.491 22.824 29.3981 23.3276 29.2318 23.6452C29.0656 23.9628 28.886 24.4023 28.886 24.4023C28.8872 24.3032 28.899 24.2045 28.9213 24.1079C28.71 24.2304 28.2015 24.5248 28.0571 24.6558C27.9127 24.7868 27.6902 24.9939 27.6345 25.0953C27.7719 24.6939 27.9163 24.3326 27.9374 24.1664C27.7261 24.3178 26.7493 25.1249 26.2394 25.658L24.6519 26.9419C24.4693 27.0409 24.2812 27.1293 24.0885 27.2067C23.8152 27.3229 23.492 27.4222 23.2525 27.5152C23.3209 27.3386 23.4263 27.1786 23.5617 27.0462C23.7131 26.9053 24.1674 26.4123 24.2371 26.1827C24.3012 25.9433 24.316 25.801 24.2315 25.5996C24.1526 25.62 23.9723 25.6291 23.8497 25.6644C23.7548 25.7016 23.6685 25.758 23.5962 25.8299C23.6631 25.4762 23.7616 25.1292 23.8906 24.7932C23.7392 24.7988 23.48 24.8425 23.48 24.8425C23.7365 24.4407 24.0682 24.0923 24.4568 23.8163C24.2677 23.8568 24.0827 23.9143 23.904 23.9882C23.5427 24.1396 23.1462 24.3643 22.8525 24.4861C23.018 24.2558 24.1829 22.593 24.8766 21.0436C25.5703 19.4942 25.8259 19.1012 25.9774 18.2708C26.0562 17.8602 26.0351 17.2531 26.0562 16.7094C26.0774 16.1657 26.1436 15.6875 26.0999 15.3643C26.2802 15.5882 26.9563 16.22 26.9796 17.6327C27.0028 19.0455 26.333 20.9534 25.6252 21.9817C25.7978 22.031 26.2457 22.0894 26.7056 21.2901C27.1655 20.4907 27.1599 20.2682 27.3261 19.9357C27.338 20.01 27.3427 20.0852 27.3402 20.1604C27.3402 20.1604 28.0106 19.3477 28.3261 18.3251C28.3902 18.7652 28.579 19.1526 28.2818 19.959C28.017 20.6872 27.6705 20.8654 27.6705 20.8654C27.8204 20.8289 27.9632 20.7678 28.093 20.6844C28.1367 20.7921 28.1282 20.9147 28.2008 20.9584C28.2733 21.002 28.3726 21.0746 28.3874 21.145C28.4656 21.0281 28.5881 20.8795 28.6262 20.7689C28.5966 20.9992 28.5762 22.007 28.6832 22.5197C28.9079 22.4993 29.1382 22.4845 29.2952 22.0796C29.1945 22.3944 29.1823 22.7309 29.26 23.0522C29.3462 22.9878 29.4228 22.9114 29.4875 22.8254L29.491 22.824Z" fill="#C0993A"/>
<path fill-rule="evenodd" clip-rule="evenodd" d="M21.9214 6.77252C21.7268 6.83957 21.5216 6.87106 21.3158 6.86548C20.984 6.86548 21.077 6.7373 20.5587 6.7373C19.7607 6.7373 16.9732 7.19861 16.4837 7.19157C16.1661 7.18593 17.5556 7.3289 17.5556 7.3289L21.1066 7.3782L21.82 7.32045L22.0848 6.78097L21.9214 6.77252Z" fill="#A88F33"/>
<path fill-rule="evenodd" clip-rule="evenodd" d="M12.7165 13.7091C12.7165 13.7091 12.2622 14.0556 12.07 14.3212C11.8777 14.5867 11.7756 14.7606 11.5573 14.9761C11.6085 14.9782 11.6598 14.9713 11.7087 14.9557C11.7087 14.9557 11.7087 15.0135 11.6735 15.0261C11.7037 15.0227 11.7343 15.026 11.763 15.0359C11.7918 15.0457 11.818 15.0619 11.8397 15.0832C11.7756 15.1184 11.6009 15.2945 11.7375 15.5001C11.8397 15.6572 12.0552 15.672 12.0552 15.672C12.0552 15.672 12.0059 15.8128 12.2122 15.8002C12.658 15.7797 13.156 15.5846 13.3863 15.6339C13.6166 15.6832 13.7476 15.7128 13.9103 15.9952C14.0835 16.2769 14.2335 16.3185 14.2335 16.3185C14.3025 16.1104 14.3293 15.8906 14.3124 15.672C14.3962 15.4634 14.4427 15.2417 14.4497 15.017L14.2976 13.9014L13.637 13.0654L12.7806 13.5401L12.7165 13.7056V13.7091Z" fill="#E3C571"/>
<path fill-rule="evenodd" clip-rule="evenodd" d="M13.5292 13.5437C13.5292 13.5437 13.5933 13.6958 13.861 13.7099C13.8492 13.7278 13.8414 13.7479 13.8379 13.769C13.8343 13.7901 13.8353 13.8117 13.8405 13.8324C13.8462 13.8817 13.8553 13.9543 13.8553 13.9543C13.8848 13.9401 13.9115 13.9207 13.9342 13.8972C13.9483 13.9613 13.9194 14.0627 13.9342 14.136C13.9429 14.1804 13.9573 14.2235 13.9772 14.2641C13.9814 14.2539 13.9863 14.2441 13.992 14.2346C14.0436 14.3406 14.1115 14.4378 14.1934 14.5226C14.1929 14.5024 14.1977 14.4825 14.2075 14.4649C14.2095 14.5015 14.2217 14.5369 14.2427 14.567C14.2316 14.5621 14.2216 14.5552 14.2131 14.5466C14.2131 14.5466 14.2279 15.0079 14.3068 15.2459C14.3197 15.2305 14.3312 15.214 14.3413 15.1966C14.3413 15.1818 14.3356 15.3248 14.3209 15.4269C14.309 15.5078 14.3071 15.5899 14.3152 15.6713C14.3679 15.6301 14.4257 15.5957 14.4871 15.5692C14.5744 15.534 14.7174 15.4283 14.8047 15.1874C14.8553 15.0523 14.8942 14.913 14.9209 14.7712C14.9491 14.8253 14.9686 14.8836 14.9786 14.9438C14.985 15.0142 15.1195 14.979 15.1195 14.979L15.1484 14.6613L15.3216 13.9423L15.4787 13.4965L16.2358 12.3168L17.6042 11.2604L18.8015 11.5343L19.8086 10.168L18.0726 9.125L16.4281 9.29684L14.9371 11.3618L13.7433 13.2352L13.5278 13.5437H13.5292Z" fill="#D8B65B"/>
<path fill-rule="evenodd" clip-rule="evenodd" d="M22.1327 10.5548C21.9946 10.5972 21.8618 10.6553 21.7369 10.728C21.4425 10.8802 21.239 10.9288 21.1249 11.1506C21.0589 11.2756 21.0175 11.4121 21.0031 11.5528C21.1062 11.5076 21.2121 11.4687 21.32 11.4366C21.4425 11.4077 21.5792 11.4161 21.5651 11.4654C21.5509 11.4993 21.5314 11.5307 21.5073 11.5584C21.5073 11.5584 21.7376 11.5528 21.7313 11.6669C21.7286 11.7706 21.6988 11.8719 21.6447 11.9605C21.6003 12.0183 21.42 12.1014 21.3996 12.1718C21.3503 12.3092 21.42 12.3127 21.3939 12.4254C21.3679 12.538 21.2777 12.743 20.9629 13.1099C20.7876 13.3017 20.6332 13.5116 20.5023 13.736C20.4089 13.5596 20.3288 13.3765 20.2629 13.1881C20.2058 13.2177 19.8959 13.3895 19.8959 13.3895L19.1797 10.8936L19.1938 10.7273C19.2401 10.6611 19.2674 10.5834 19.2726 10.5027C19.1649 10.4682 19.1508 10.4386 19.0078 10.302C18.8649 10.1653 18.7487 9.99912 18.5099 9.88573C18.4875 9.83527 18.4523 9.79151 18.4079 9.75879C18.3634 9.72606 18.3112 9.70548 18.2564 9.69909C18.0817 9.66388 17.9747 9.635 17.9747 9.635C18.0297 9.61312 18.0772 9.57567 18.1113 9.52725C17.9699 9.5591 17.8252 9.57376 17.6803 9.57091C17.4415 9.56528 17.4155 9.55612 17.2845 9.57655C17.1535 9.59697 16.9964 9.65543 16.938 9.45471C16.8739 9.4047 16.7365 9.44837 16.6203 9.62021C16.5041 9.79206 16.4633 9.92869 16.2386 9.9963C16.2233 10.0959 16.1888 10.1915 16.1372 10.278C16.0457 10.4107 15.9442 10.5362 15.8336 10.6534C15.6181 10.9069 15.6533 11.3232 15.3097 11.6394C14.966 11.9556 15.3674 10.7597 15.3674 10.7597L15.9203 9.43499L17.4964 7.89402L19.9431 7.72852L20.1819 8.99622L21.3791 9.40682L22.1327 10.5569V10.5548Z" fill="#D3AE4D"/>
<path fill-rule="evenodd" clip-rule="evenodd" d="M22.5201 10.835L21.4918 9.35254L20.7728 8.79897C20.7728 8.79897 20.26 7.85594 20.2248 7.82636C20.1896 7.79678 19.7128 7.75594 19.4036 7.7334L19.4614 7.87425C19.5288 7.89586 19.5886 7.93616 19.6339 7.99046C19.7748 8.14752 19.8586 8.44472 19.5466 8.76517C19.6342 8.80691 19.7322 8.82209 19.8283 8.80883C19.7206 8.93701 19.4762 9.21098 19.4614 9.44973C19.4473 9.64482 19.5691 9.70327 19.5691 9.70327C19.444 9.86913 19.3756 10.0709 19.3741 10.2787C19.4622 10.1796 19.5585 10.0882 19.6621 10.0054C19.8889 9.82822 20.126 9.66454 20.372 9.51523C20.3696 9.56652 20.3765 9.61783 20.3924 9.66665C20.3924 9.66665 20.7685 9.35817 21.084 9.4948C21.2249 9.55889 21.1622 9.75961 21.1622 9.75961C21.2183 9.73969 21.2787 9.73512 21.3372 9.74639C21.3956 9.75766 21.45 9.78435 21.4946 9.8237C21.6313 9.96456 21.8264 10.3167 21.9257 10.4505C22.0232 10.5708 22.1144 10.6961 22.1989 10.8259C22.3582 11.0908 22.4911 11.3709 22.5954 11.6619C22.6011 11.545 22.625 11.3802 22.8257 11.3802L22.5201 10.8329V10.835Z" fill="#CAA13E"/>
<path fill-rule="evenodd" clip-rule="evenodd" d="M7.10689 15.0467C7.10689 15.0467 7.03647 14.8657 7.10689 14.5135C7.17732 14.1614 7.29282 13.9952 7.33085 13.4768C7.36889 12.9585 7.70694 12.3112 7.70694 12.3112L8.64152 11.8887L9.30284 12.069L9.49793 12.9542L8.66194 13.4156C8.61374 13.5632 8.51365 13.6883 8.38023 13.7677C8.1443 13.9247 7.81681 14.0494 7.73934 14.2072C7.69265 14.3055 7.65858 14.4094 7.63792 14.5163C7.63792 14.5163 7.39847 14.4663 7.2562 14.6241C7.11394 14.7819 7.11041 14.9269 7.10478 15.0467H7.10689Z" fill="#F4EFC8"/>
<path fill-rule="evenodd" clip-rule="evenodd" d="M8.99437 14.8101C8.9343 14.855 8.88697 14.9147 8.85703 14.9834C8.79928 14.8904 8.66195 14.3369 8.65631 13.8382C8.65068 13.3396 8.62039 13.2171 8.73589 13.0452C8.8514 12.8734 9.30284 12.6931 9.23875 12.3839C9.17466 12.0895 8.90633 11.9677 8.57743 12.0515C8.34713 12.1092 8.17529 12.5994 7.93654 12.8438C7.75624 13.0304 7.54073 13.0015 7.48228 13.103C7.4034 13.2438 7.47664 13.3769 7.4534 13.4643C7.39865 13.5978 7.32769 13.7241 7.24212 13.8403C6.97731 14.2214 6.52868 14.7608 6.46741 15.244C6.48783 14.97 6.47304 14.9623 6.54629 14.6615L6.50262 14.5911L6.78997 13.6474L6.9766 12.8727L7.39354 11.5704L8.1274 10.2394L8.84083 9.44141L9.58385 9.49071L9.67118 10.6063L10.0937 12.7008L10.9882 13.8016L9.56131 14.7608L8.99366 14.8101H8.99437Z" fill="#EBCC73"/>
<path fill-rule="evenodd" clip-rule="evenodd" d="M9.43948 15.2056C9.38556 15.2207 9.32888 15.2228 9.27397 15.212C9.2296 15.1887 9.18664 15.162 9.20354 15.1331C9.22045 15.1042 9.29651 15.0549 9.29651 15.031C9.29814 15.0102 9.29175 14.9896 9.27866 14.9733C9.26556 14.9571 9.24675 14.9465 9.22608 14.9437C9.20967 14.9395 9.19236 14.9406 9.17665 14.947C9.16094 14.9533 9.14767 14.9645 9.13875 14.9789C9.10419 14.9522 9.0647 14.9326 9.02255 14.9211C9.0534 14.9175 9.08444 14.9156 9.11551 14.9155C9.03489 14.8798 8.94947 14.856 8.86197 14.8451C8.9324 14.8014 9.07748 14.6732 9.17115 14.6732C9.26482 14.6732 9.32257 14.6591 9.30778 14.6091C9.27416 14.539 9.21454 14.4847 9.14157 14.4577C9.17115 14.4232 9.19157 14.3704 9.12185 14.2274C9.05212 14.0844 9.07748 13.9887 9.10142 13.9541C9.14068 13.8945 9.18324 13.8372 9.2289 13.7823C9.2587 13.7238 9.30045 13.6722 9.35144 13.6309C9.42088 13.5944 9.49291 13.5631 9.56695 13.5372C9.66907 13.5027 9.75359 13.459 9.81204 13.5027C9.82956 13.5123 9.84283 13.5281 9.84922 13.547C9.85561 13.5659 9.85466 13.5866 9.84655 13.6048C9.97183 13.5634 10.1081 13.5707 10.2283 13.6252C10.4086 13.7119 10.8487 13.7661 10.8487 13.7661L11.0051 14.0823L9.96206 14.9768L9.52611 15.1923L9.43877 15.2064L9.43948 15.2056Z" fill="#E5C66B"/>
<path fill-rule="evenodd" clip-rule="evenodd" d="M10.8875 13.7445C10.7494 13.8344 10.617 13.9327 10.491 14.0389C10.5346 14.0445 10.6072 14.0734 10.5783 14.1171C10.5494 14.1607 10.3339 14.3121 10.217 14.4551C10.1083 14.5812 10.0138 14.7189 9.93527 14.8657C9.89161 14.9446 9.55989 15.1749 9.4465 15.2038C9.68525 15.2038 10.1656 14.9094 10.3459 14.9094C10.341 14.9552 10.3541 15.001 10.3823 15.0374C10.4105 15.0738 10.4517 15.0978 10.4973 15.1045C10.7746 15.1443 11.0568 15.0801 11.2896 14.9242C11.6861 14.6854 11.5551 14.5072 11.7206 14.391C12.0383 14.1797 12.1664 13.9945 12.3411 13.8783C12.423 13.8199 12.5123 13.7725 12.6066 13.7375C12.6066 13.7375 12.6122 13.6501 12.6637 13.6593C12.6778 13.6609 12.6913 13.6663 12.7026 13.675C12.7139 13.6837 12.7226 13.6953 12.7277 13.7086C12.9366 13.57 13.1722 13.4766 13.4193 13.4346C13.4104 13.4307 13.4031 13.4237 13.3989 13.4149C13.3989 13.4149 13.4278 13.4001 13.4341 13.3853C13.4341 13.3853 13.4546 13.3564 13.4686 13.3705C13.4827 13.3846 13.5039 13.4931 13.5327 13.5367C13.5968 13.5079 13.7194 13.2339 13.7194 13.2339L14.0138 12.3923V11.6211L13.7835 11.6648L12.0552 12.3986L11.0065 13.4853L10.8868 13.7445H10.8875Z" fill="#E6BD62"/>
<path fill-rule="evenodd" clip-rule="evenodd" d="M15.8646 9.9724C15.9581 9.94967 16.0478 9.91336 16.1308 9.86465C16.0956 10.0142 16.0323 10.1557 15.9442 10.2816C15.8378 10.435 15.7436 10.5965 15.6625 10.7647C15.5399 11.0035 15.5259 11.3472 15.4089 11.4986C15.4612 11.4731 15.5174 11.4564 15.5752 11.4493C15.5079 11.5095 15.4517 11.581 15.4089 11.6606C15.3596 11.7683 15.2723 11.9923 15.0568 12.1296C14.8413 12.2669 14.5638 12.3536 14.2729 12.6768C13.9821 13.0001 13.6764 13.3966 13.5243 13.541C13.6249 13.3557 13.6975 13.1566 13.7398 12.9501C13.7694 12.7691 13.7342 12.5536 13.7835 12.3162C13.8328 12.0789 13.8335 11.9057 14.0715 11.4887C14.3096 11.0718 14.718 9.62449 14.718 9.62449L15.5977 9.34277L15.8632 9.9717L15.8646 9.9724Z" fill="#B6933F"/>
<path fill-rule="evenodd" clip-rule="evenodd" d="M15.2308 9.43924C15.2308 9.43924 14.9653 9.82096 14.8927 10.159C14.8202 10.4971 14.8871 10.4675 14.8434 10.6337C14.8174 10.7351 14.8174 10.8415 14.8434 10.9429C14.9351 10.7949 15.0606 10.6708 15.2097 10.5809C15.4604 10.4302 15.6639 10.3217 15.7858 10.1942C15.9076 10.0668 16.0097 9.83294 16.2752 9.66109C16.1675 9.6463 16.0161 9.597 15.9872 9.60334C16.0949 9.4808 16.4182 9.29487 16.7443 9.0702C17.0704 8.84554 17.0471 8.74694 17.5718 8.51734C17.4 8.54622 17.3183 8.50255 17.1753 8.51734C17.2331 8.3948 17.4345 8.33634 17.6359 8.13562C17.8373 7.9349 17.5077 7.6377 17.5077 7.6377L15.9717 8.56664L15.2294 9.44065L15.2308 9.43924Z" fill="#C49937"/>
<path fill-rule="evenodd" clip-rule="evenodd" d="M11.0593 8.74634L11.0945 8.46674L11.534 7.76176L11.9946 6.52433V4.83195L11.9594 3.8537L12.0319 3.21281L12.0876 3.00857L12.146 2.92969L12.5214 3.12477L13.0398 3.82976L13.0891 5.19043L12.5855 7.33707L11.1467 8.90692L11.0593 8.74634Z" fill="#DFC068"/>
<path fill-rule="evenodd" clip-rule="evenodd" d="M12.2024 2.852C12.2024 2.852 11.9721 2.85764 11.9207 3.81616C11.8693 4.77469 11.8502 5.27825 11.8129 5.75293C11.7756 6.22762 11.6967 6.51567 11.6559 6.79527C11.615 7.07487 11.5911 7.45659 11.4608 7.6897C11.403 7.79746 11.2798 8.13551 10.9917 8.38905C10.7295 8.60347 10.4318 8.77032 10.1121 8.88205C9.98389 8.91093 9.33384 8.97502 9.06903 9.1208C8.91157 9.18807 8.76602 9.28035 8.63801 9.39406C8.16342 9.84361 7.77256 10.374 7.4837 10.9604C6.96394 11.9844 6.44559 14.872 6.44559 14.872L6.56179 14.6769C6.56179 14.6769 6.57658 14.4177 6.83576 13.9634C7.09493 13.5092 7.01676 12.9993 7.3689 12.1288C7.51789 11.7427 7.69102 11.3663 7.88725 11.0019C8.21967 10.4047 8.62111 9.89199 9.02607 9.61239C9.4454 9.33278 9.91881 9.14443 10.4156 9.05953L11.1988 8.53343C11.1988 8.53343 11.3361 8.26792 11.5164 7.96508C11.7699 7.54251 12.0925 7.06501 12.1629 6.37481C12.2707 5.3529 12.0115 4.68454 12.0263 4.07675C12.0411 3.46895 12.0467 3.02526 12.1672 2.9175C12.2876 2.80975 12.2017 2.84707 12.2017 2.84707L12.2024 2.852Z" fill="#A88F33"/>
<path fill-rule="evenodd" clip-rule="evenodd" d="M12.2024 7.42426C12.4106 6.90277 12.579 6.36621 12.7059 5.81921C12.7355 5.66779 12.7932 5.51637 12.808 5.39664C12.8785 4.6832 12.901 4.38881 12.808 3.99864C12.7376 3.71059 12.4559 3.45071 12.3101 3.24999C12.1643 3.04927 12.0988 2.96194 12.1298 2.91757C12.1614 2.88202 12.2004 2.85392 12.2441 2.83528C12.2878 2.81665 12.3352 2.80795 12.3827 2.80982C12.5002 2.81324 12.6158 2.84054 12.7225 2.89006C12.8292 2.93958 12.9246 3.01028 13.0031 3.09787C13.2292 3.35423 13.4067 4.23669 13.4067 4.23669L13.5933 5.39734L14.068 6.85943L12.2024 7.42497V7.42426Z" fill="#C99E3D"/>
<path fill-rule="evenodd" clip-rule="evenodd" d="M15.4512 6.53849C15.3926 6.55768 15.3295 6.55768 15.2709 6.53849C15.2757 6.58613 15.2674 6.63419 15.2468 6.67741C15.2262 6.72063 15.1941 6.75736 15.154 6.78358C15.0321 6.73357 13.8863 6.83288 13.8863 6.83288C13.8863 6.83288 13.3531 6.73991 13.1869 6.03493C13.0707 5.56587 13.2743 4.91935 13.2074 4.49396C13.1059 3.86785 12.963 3.74531 12.9482 3.55022C12.9334 3.35514 12.9193 3.30584 12.9193 3.18329C12.8656 3.16475 12.8097 3.15315 12.7531 3.14878C12.739 3.09103 12.7679 3.04032 12.7038 2.9375C12.9146 2.98774 13.1069 3.09636 13.2588 3.2509C13.3697 3.34383 13.4599 3.45899 13.5236 3.58896C13.5672 3.63262 13.9201 3.93476 14.0715 4.23549C14.2229 4.53622 14.5166 5.49686 14.5842 5.65391C14.6039 5.718 14.6483 5.78209 14.7568 5.92787C14.9258 6.13916 15.173 6.48426 15.4526 6.54201L15.4512 6.53849Z" fill="#B58634"/>
<path fill-rule="evenodd" clip-rule="evenodd" d="M13.5638 3.60352C13.7406 3.88826 13.8991 4.18395 14.0384 4.4888C14.2103 4.87615 14.3124 5.19308 14.5314 5.45296C14.4152 5.1149 14.2082 4.45077 14.0863 4.21483C13.949 3.96552 13.6694 3.69648 13.5673 3.60352H13.5638Z" fill="#A88F33"/>
<path fill-rule="evenodd" clip-rule="evenodd" d="M11.5833 8.39192C11.5833 8.39192 11.2889 8.46235 10.7382 8.75251C10.5572 8.84618 10.386 8.92436 10.2198 8.9976C9.81301 9.18557 9.39281 9.34306 8.96267 9.46877C8.97633 9.48597 8.9909 9.50243 9.00633 9.51807C9.00692 9.59943 9.03468 9.67826 9.08521 9.74203C9.04155 9.7864 8.4584 10.1822 8.63095 11.5077C8.74716 11.464 8.88379 11.4055 8.90421 11.4055C8.93943 11.4112 8.94788 11.5077 8.99154 11.5077C9.03521 11.5077 9.17818 11.4499 9.3296 11.2541C9.32396 11.333 9.23663 12.1246 9.70568 12.6577C9.79302 12.5556 10.0142 12.2183 10.0142 12.2183L10.0198 12.1105C10.0364 11.8656 10.0837 11.6238 10.1606 11.3907C10.2434 11.1712 10.3659 10.9688 10.5219 10.7935L11.7678 9.0138L11.5819 8.3877L11.5833 8.39192Z" fill="#E6C367"/>
<path fill-rule="evenodd" clip-rule="evenodd" d="M10.4184 11.0014C10.3614 11.0418 10.2984 11.0732 10.2318 11.0944C10.2117 10.9964 10.2122 10.8954 10.2333 10.7977C10.2544 10.6999 10.2956 10.6077 10.3543 10.5267C10.5551 10.2323 10.9952 9.85062 11.1171 9.54708C11.196 9.35199 11.1607 8.86322 11.8601 8.23641C12.5594 7.6096 12.8327 7.39128 12.8327 7.39128L13.9631 6.82715L15.3519 7.37437L14.6617 10.0823L14.1258 11.35L11.9946 10.9479L10.4184 11.0042V11.0014Z" fill="#DCBA5A"/>
<path fill-rule="evenodd" clip-rule="evenodd" d="M11.2319 10.2675L11.4967 9.93575V9.69981C11.4967 9.69981 11.7911 9.62093 12.1087 9.29767C12.4263 8.9744 12.8658 8.35393 13.2532 8.39126C13.6405 8.42859 13.6757 9.2364 13.6933 9.45754C13.7109 9.67868 13.7574 10.1914 13.8342 10.4654C13.911 10.7393 12.8919 11.7732 12.8919 11.7732L12.1918 12.3064L11.2319 10.2639V10.2675Z" fill="#E9CE77"/>
<path fill-rule="evenodd" clip-rule="evenodd" d="M12.0523 13.0314C12.0523 13.0314 12.2678 12.6933 12.1101 12.6201C12.1836 12.4678 12.2723 12.3234 12.3749 12.1891C12.3749 12.1891 12.4974 11.8862 12.8932 11.5137C13.2891 11.1411 13.5341 10.8932 13.5975 10.6425C13.6372 10.4794 13.6587 10.3124 13.6616 10.1445C13.7043 10.1795 13.7501 10.2106 13.7982 10.2375C13.8623 10.2671 14.1652 10.5192 14.1222 11.0214C14.0793 11.5235 13.8926 11.7348 13.8926 11.7348C13.7955 11.8324 13.6925 11.9239 13.5841 12.0088C13.4475 12.1017 13.3982 12.2095 13.1679 12.22C13.1912 12.2011 13.2177 12.1863 13.2461 12.1764C13.2461 12.1764 13.0073 12.1475 12.8792 12.2637C12.751 12.3799 12.4784 12.7384 12.3418 12.8462C12.2045 12.9335 12.0537 13.0328 12.0537 13.0328L12.0523 13.0314Z" fill="#CDAE50"/>
<path fill-rule="evenodd" clip-rule="evenodd" d="M21.7369 7.36569C21.3928 7.2397 21.0311 7.16841 20.665 7.15441C20.053 7.13398 19.1592 7.1692 18.2824 7.17483C17.3387 7.18047 16.4823 6.85157 15.2941 6.79311C15.0991 6.67691 14.6032 6.16701 13.0545 7.24737C13.1475 7.24174 14.1814 7.00862 14.537 7.45866C14.8927 7.90869 14.7962 8.66157 14.7483 8.84186C14.6547 9.24401 14.3518 9.82786 14.2293 10.2406C14.1067 10.6533 14.1363 10.8667 14.049 11.1561C13.9616 11.4456 13.7673 11.5871 13.8828 11.9189C14.0342 11.8259 14.1131 11.8259 14.3666 11.2583C14.6201 10.6906 14.5673 10.2849 14.9871 9.80462C15.4068 9.3243 16.0815 8.66016 16.3414 8.49395C16.6013 8.32774 18.6655 7.25582 20.827 8.27844C21.3481 8.22351 21.7383 7.36288 21.7383 7.36288L21.7369 7.36569Z" fill="#D2A83E"/>
<path fill-rule="evenodd" clip-rule="evenodd" d="M13.925 6.9694C13.9229 6.94756 13.9181 6.92605 13.911 6.90531C13.8905 6.86272 13.8639 6.82334 13.8321 6.7884C13.8321 6.7884 13.3194 6.69544 13.0574 6.72431C12.6031 6.77432 12.1918 7.33633 12.0009 7.62438C11.8101 7.91243 11.5692 8.35824 11.3101 8.58854C11.3129 8.56619 11.3079 8.54354 11.296 8.52445C11.296 8.52445 11.3101 8.54488 11.2812 8.57446C11.2523 8.60404 11.2523 8.61742 11.2671 8.6315L11.3108 8.67517C11.3248 8.67517 11.727 8.49487 12.2749 7.98427C12.8574 7.45113 13.3025 7.17787 13.5356 7.0842C13.6599 7.03131 13.7899 6.99279 13.9229 6.9694H13.925Z" fill="#C29637"/>
<path fill-rule="evenodd" clip-rule="evenodd" d="M23.8688 4.7793C23.8688 4.7793 23.7758 4.89621 23.6575 5.02439C23.4004 5.29835 23.0617 5.60683 22.7736 5.92727C22.4997 6.23011 22.1912 6.46605 21.8447 6.86185C21.4982 7.25766 21.0953 7.69784 20.9939 7.82601C20.9017 7.95816 20.8445 8.11155 20.8277 8.27182C20.7784 8.23661 20.7206 8.2014 20.7206 8.2014C20.745 8.24741 20.7743 8.29062 20.808 8.33028C20.8784 8.4317 20.9939 8.56058 21.0524 8.63875C21.124 8.73838 21.1755 8.85107 21.2038 8.97047C21.2383 8.9761 21.463 9.02047 21.7426 8.55987C22.0222 8.09927 22.3891 7.59571 22.3891 7.59571L22.9715 6.73086L23.3385 5.997L23.7998 5.17581L23.8702 4.78493L23.8688 4.7793Z" fill="#AC8132"/>
<path fill-rule="evenodd" clip-rule="evenodd" d="M24.466 4.19129C24.2916 4.3324 24.128 4.48636 23.9765 4.65189C23.8399 4.82515 23.5159 5.2787 23.5159 5.2787L23.6321 5.26391L24.2237 4.73993L24.4568 4.32933L24.4688 4.18848L24.466 4.19129Z" fill="#A88F33"/>
<path fill-rule="evenodd" clip-rule="evenodd" d="M24.3583 27.3377C24.3583 27.3377 24.3526 27.0989 24.4864 26.956C24.6202 26.813 24.9696 26.6038 25.3076 25.8171C25.6457 25.0305 25.683 24.853 25.683 24.853C25.683 24.853 25.0773 25.3713 24.7041 25.4939C24.7914 25.3129 24.8407 25.1847 24.8851 25.0917C24.835 25.0481 24.6259 24.9988 24.6033 24.9755C24.7195 24.8586 24.7836 24.5734 25.0196 24.3839C25.3224 24.1536 25.876 23.7578 26.3063 23.405C26.7366 23.0521 27.5817 22.2309 27.6895 21.9922C27.7237 22.0381 27.7504 22.0892 27.7684 22.1436C27.7684 22.1436 27.3458 22.6972 27.1218 23.0493C26.9261 23.3522 26.9408 23.524 26.9408 23.524L27.343 23.3514C27.343 23.3514 27.4592 23.7825 26.9324 24.4382C27.1627 24.3508 27.2557 24.4029 27.3867 24.3297C27.048 24.5268 26.773 24.817 26.5943 25.1657C26.3204 25.6784 25.9478 26.2756 25.3189 26.6482C24.9856 26.86 24.6645 27.0901 24.3568 27.3377H24.3583Z" fill="#A67A2E"/>
<path fill-rule="evenodd" clip-rule="evenodd" d="M22.7792 7.66854C22.7792 7.66854 22.5405 8.16647 22.506 8.55382C22.4996 8.64749 22.4764 8.72003 22.4764 8.82778C22.4708 9.17429 22.4968 9.56165 22.4186 9.74335C22.4041 9.6894 22.3803 9.6384 22.3482 9.59263C22.3045 9.71447 22.2257 10.0962 22.1616 10.2385C22.0975 9.97748 22.0681 9.70918 22.0743 9.44051C22.0806 9.05949 22.089 8.98625 22.089 8.90807C22.0743 9.02428 21.9961 9.18133 21.9665 9.275C21.9228 9.19612 21.8735 9.094 21.8151 9.00949C21.7803 9.07408 21.7415 9.13642 21.6989 9.19612C21.6846 9.11029 21.6748 9.02378 21.6693 8.93695C21.6609 8.80801 21.659 8.67872 21.6637 8.54959C21.7442 8.29955 21.8797 8.07071 22.0602 7.87982C22.3686 7.54177 22.6863 6.89383 22.7792 6.6917C22.8722 6.48957 23.2722 5.6543 23.2722 5.6543H23.5751L23.1349 6.65649C23.1349 6.65649 22.8701 7.20371 22.7335 7.40514C22.5968 7.60656 22.3109 8.17985 22.1799 8.40733C22.2729 8.28478 22.3517 8.22069 22.4447 8.10449C22.5665 7.96647 22.6803 7.82162 22.7856 7.67065L22.7792 7.66854Z" fill="#8C6228"/>
<path fill-rule="evenodd" clip-rule="evenodd" d="M24.4716 4.15332C24.4222 4.30573 24.344 4.44725 24.2413 4.57025C24.0611 4.78576 23.673 5.07381 23.4842 5.30411C23.3117 5.52808 22.9659 6.1401 23.123 6.8648C23.224 6.56607 23.3778 6.28791 23.5772 6.04361C23.866 5.69147 24.1744 5.28651 24.3259 4.97169C24.4141 4.79327 24.4722 4.60145 24.4977 4.40404L24.5555 4.33362L24.5202 4.1667L24.4709 4.15473L24.4716 4.15332Z" fill="#CBA94C"/>
<path fill-rule="evenodd" clip-rule="evenodd" d="M30.3728 23.4726C30.3024 23.2762 30.2517 23.0733 30.2214 22.8669C30.1862 22.5781 30.2791 22.5211 30.1714 22.1908C30.1073 21.99 29.9911 22.0182 29.9601 21.99C29.9291 21.9619 29.9101 21.6576 29.9164 21.4921C29.9248 21.3328 29.913 21.1731 29.8812 21.0167C29.8375 20.9822 29.8108 20.9526 29.7446 20.735C29.7065 20.6029 29.6594 20.4734 29.6037 20.3477C29.5685 20.2836 29.4629 20.2251 29.4629 20.161C29.4629 20.0329 29.5798 19.9659 29.5798 19.9307C29.5741 19.8603 29.4868 19.9159 29.4629 19.8955C29.434 19.861 29.5333 19.6511 29.4981 19.6216C29.4833 19.6075 29.3819 19.73 29.3572 19.692C29.3326 19.654 29.2931 19.3103 29.241 19.08C29.1889 18.8497 29.1389 18.6933 29.1333 18.6257C29.1276 18.5581 28.7311 17.4319 28.6353 17.158C28.5578 16.9269 28.4927 16.6918 28.4402 16.4537C28.4107 16.3171 28.3902 16.0375 28.3762 16.0663C28.3621 16.0952 28.3705 16.2382 28.3466 16.2326C28.3226 16.2269 28.2536 15.729 28.2304 15.6501C28.2071 15.5712 28.0895 15.3043 28.0578 15.1113C28.0261 14.9184 27.9649 14.4071 27.9205 14.0598C27.8761 13.7126 27.8564 13.5669 27.8564 13.4837C27.8635 13.2719 27.8519 13.0598 27.8219 12.8499C27.764 12.4849 27.6723 12.126 27.5479 11.778C27.3528 11.2892 26.8345 10.0363 26.7415 9.725C26.7415 9.64612 26.8436 9.68979 26.8436 9.68979C26.8436 9.68979 27.0965 10.3236 27.2831 10.8166C27.4697 11.3096 27.6352 11.7371 27.6796 11.7808C27.724 11.8245 27.9881 12.3055 28.1106 13.0915C28.2332 13.8774 28.2761 14.6036 28.3494 15.0867C28.3779 15.3295 28.4235 15.5701 28.486 15.8065C28.5649 16.0713 28.6867 16.3452 28.8473 16.7643C28.9674 17.0567 29.0658 17.3575 29.1417 17.6644C29.2058 17.9876 29.2058 18.2327 29.2431 18.3926C29.2783 18.5299 29.3305 18.8032 29.4544 19.199C29.5784 19.5948 29.7572 20.1054 29.877 20.4223C30.0573 20.8894 30.1853 21.375 30.2587 21.8703C30.2904 22.1612 30.3995 23.169 30.3693 23.4719L30.3728 23.4726Z" fill="#A88F33"/>
<path fill-rule="evenodd" clip-rule="evenodd" d="M24.4864 4.11845L24.4716 4.15296C24.4848 4.1588 24.4954 4.16901 24.5019 4.18186C24.5083 4.19471 24.51 4.20938 24.5068 4.22338C24.5075 4.30322 24.5026 4.383 24.4921 4.46214C24.478 4.56426 24.4484 4.64243 24.4428 4.70652C24.4428 4.84738 24.4632 5.00091 24.2702 5.39108C24.2125 5.49884 24.1765 5.5918 24.1477 5.65589C24.1139 5.74933 24.0625 5.83541 23.9962 5.90943C24.0984 5.85168 24.4653 5.62138 24.6512 5.65589C24.4751 5.75563 24.3232 5.89293 24.2061 6.05804C24.3203 6.07822 24.4371 6.07822 24.5512 6.05804C24.8745 6.00874 25.2358 5.89183 25.5534 5.91718C25.8999 5.9376 25.7647 5.50095 25.7647 5.50095L25.3647 4.6213L24.6076 4.08887L24.4878 4.11774L24.4864 4.11845Z" fill="#BE9C44"/>
<path fill-rule="evenodd" clip-rule="evenodd" d="M26.4612 10.7074C26.4612 10.7074 26.1232 10.3694 25.9865 9.20943C25.8499 8.04948 25.8788 6.32963 25.8788 6.32963L25.6048 5.65986C25.6048 5.65986 25.5471 5.21405 25.4041 5.04784C25.2611 4.88163 24.9815 4.60274 24.8505 4.4654C24.7195 4.32807 24.5766 4.14214 24.4892 4.11326C24.5329 4.04283 24.728 3.62942 25.4752 3.62026C26.2225 3.61111 26.4542 4.03086 26.5316 4.18369C26.6091 4.33652 26.9627 4.99009 27.0951 6.23808C27.2275 7.48606 27.2232 7.57621 27.2028 8.00934C27.1588 8.47527 27.0818 8.93749 26.9725 9.39255C26.8472 9.89329 26.7105 10.4532 26.4598 10.706L26.4612 10.7074Z" fill="#A17C34"/>
<path fill-rule="evenodd" clip-rule="evenodd" d="M25.4013 11.7027C25.5136 11.7114 25.626 11.6869 25.7246 11.6323C25.8323 11.6266 26.2232 11.6759 26.5225 11.2949C26.5429 11.3815 26.5929 11.6182 26.4584 11.8274C26.5288 11.7569 26.6394 11.7259 26.6542 11.7055C26.6598 11.8133 26.7613 12.145 26.3302 12.9521C26.4471 12.8239 26.5838 12.8295 26.7063 12.8148C26.712 12.9662 26.7937 13.4761 26.5781 13.75C26.5334 13.8041 26.4746 13.8446 26.4082 13.8673C26.3418 13.8899 26.2705 13.8937 26.2021 13.8782C26.2056 13.8374 26.2056 13.7964 26.2021 13.7557C26.1964 13.6768 26.1675 13.5986 26.188 13.5444C26.0752 13.4926 25.9726 13.4211 25.8851 13.3331C25.6316 13.0944 25.3027 12.6866 25.2794 12.3837C25.2674 12.2938 25.2885 12.2026 25.3388 12.127C25.3891 12.0515 25.4651 11.9968 25.5527 11.9731C25.5274 11.9503 25.5058 11.9237 25.4886 11.8943C25.4757 11.8242 25.4457 11.7584 25.4013 11.7027Z" fill="#8C6228"/>
<path fill-rule="evenodd" clip-rule="evenodd" d="M23.1553 8.03585C23.1553 8.03585 23.1406 8.01543 23.0617 8.10628C23.0765 8.01332 23.0913 7.92599 23.0969 7.84147C23.1335 7.76336 23.1809 7.69081 23.2377 7.62596C23.1941 7.71329 23.1673 7.79217 23.1673 7.79217C23.2355 7.66923 23.3255 7.55969 23.4328 7.46891C23.5406 7.38087 23.6772 7.34073 23.7357 7.25762C23.7618 7.22145 23.7833 7.18218 23.7998 7.14071C23.9371 7.03633 24.0588 6.91276 24.1611 6.77378C24.1899 6.73857 24.2315 6.70336 24.2632 6.66603C24.3125 6.6456 24.4287 6.5956 24.5653 6.52517C24.7019 6.45474 24.8689 6.33924 24.9675 6.29487C25.1611 6.20895 25.3724 6.21811 25.4647 6.08077C25.5351 6.06035 25.6161 5.84202 25.602 5.6582C25.7098 5.70187 26.2626 6.04556 26.4528 6.79702C26.5894 7.33016 26.3443 8.15136 26.2415 8.54787C26.1387 8.94438 26.1246 9.23806 25.9823 9.41836C25.8013 9.65781 25.2189 9.99446 25.0759 10.1614C24.9541 10.2987 24.5871 10.6452 24.6012 10.8952C24.616 11.0819 24.8456 11.1833 24.8956 11.2185C24.9456 11.2537 24.9449 11.2974 25.0365 11.2762C25.128 11.2551 25.164 11.2122 25.202 11.2122C25.24 11.2122 25.2456 11.2269 25.2661 11.2269C25.2808 11.2263 25.2954 11.2241 25.3097 11.2206C25.3097 11.2206 25.2957 11.4861 24.6759 11.5664C24.6322 11.572 24.5886 11.5868 24.535 11.5953C24.6146 11.5727 24.6836 11.5228 24.7301 11.4544C24.6428 11.4396 24.3921 11.4249 24.328 11.4044C24.3665 11.3407 24.4139 11.2829 24.4688 11.2326C24.5181 11.1896 24.4632 11.1755 24.4195 11.1981C24.3444 11.2488 24.2724 11.3041 24.204 11.3636C24.1258 11.4472 24.041 11.5244 23.9505 11.5946C23.9283 11.5088 23.9265 11.4191 23.9452 11.3325C23.9639 11.2459 24.0026 11.1649 24.0582 11.096C24.023 11.1023 23.9561 11.2037 23.892 11.1833C23.8808 11.0772 23.8877 10.9701 23.9124 10.8664C23.9477 10.7347 24.1371 10.5051 24.1371 10.5051L25.0527 8.87043L25.2478 7.63301L23.1539 8.04008L23.1553 8.03585Z" fill="#92723A"/>
<path fill-rule="evenodd" clip-rule="evenodd" d="M23.106 8.10544C23.106 8.10544 23.056 8.14066 23.1553 8.20756C23.1278 8.25684 23.0964 8.30393 23.0617 8.34842C23.0124 8.40546 22.9603 8.44138 22.9398 8.48927C22.9032 8.55713 22.8766 8.62997 22.861 8.70549C22.861 8.74915 22.8469 9.02875 22.7243 9.20905C22.6763 9.28763 22.6335 9.36927 22.5961 9.45343C22.5367 9.54448 22.486 9.64092 22.4447 9.74149C22.4199 9.8675 22.4034 9.99502 22.3954 10.1232L22.4849 10.019C22.4528 10.0953 22.4096 10.1665 22.3567 10.2303C22.3912 10.2007 22.4933 10.1281 22.6652 9.97671C22.9039 9.77599 23.2765 9.43794 23.7314 9.17031C23.6187 9.20447 23.5025 9.22597 23.3849 9.2344C23.4554 9.16398 24.1125 8.38927 24.4561 8.31884C24.4774 8.29268 24.4879 8.25948 24.4857 8.22587L24.1913 8.197L23.592 8.32166L23.5047 7.86035L23.106 8.10262V8.10544Z" fill="#B18E3E"/>
<path fill-rule="evenodd" clip-rule="evenodd" d="M24.0554 10.7267C23.9876 10.8073 23.9362 10.9003 23.904 11.0006C23.8485 10.9422 23.8012 10.8766 23.7631 10.8056C23.6554 10.6253 23.4899 10.395 23.1018 10.5238C23.0919 10.4328 23.0919 10.3409 23.1018 10.2499C23.1659 10.2358 23.361 10.078 23.5561 9.84843C23.7068 9.68181 23.8261 9.48925 23.9082 9.28008C23.966 9.23641 24.0653 9.16387 24.1963 9.07936C24.3829 8.95118 24.6069 8.77652 24.6421 8.58143C24.4687 8.66076 24.279 8.6977 24.0885 8.68919C24.1963 8.63918 24.3618 8.58707 24.3414 8.37156C24.3857 8.34198 24.4202 8.32226 24.4202 8.32226C24.3874 8.31097 24.3528 8.30595 24.3181 8.30747C24.3125 8.28704 24.304 8.25817 24.254 8.27225C24.204 8.28634 24.197 8.28704 24.1899 8.30747C24.1423 8.30828 24.0954 8.32035 24.0533 8.34268C23.978 8.40544 23.8982 8.46264 23.8146 8.51382C23.835 8.47931 23.8638 8.4272 23.8638 8.4272C23.7803 8.43592 23.6982 8.45508 23.6195 8.48424C23.4064 8.56853 23.1991 8.66687 22.999 8.77863C23.0194 8.74412 23.0279 8.72088 23.0427 8.71454C23.0575 8.7082 23.092 8.70046 23.092 8.69412C23.0852 8.66864 23.0833 8.64212 23.0863 8.61594C23.1516 8.47743 23.2287 8.34477 23.3166 8.21943C23.3827 8.11989 23.4247 8.00631 23.4392 7.88772L23.8843 7.66305L25.1372 7.375L25.9499 7.425L25.8478 7.98843L25.3675 8.96949L24.9569 9.86393L24.4878 10.4119L24.0568 10.726L24.0554 10.7267Z" fill="#543E26"/>
<path fill-rule="evenodd" clip-rule="evenodd" d="M26.0851 8.29431C26.0851 8.29431 25.5957 8.89999 25.459 8.99366C25.5464 8.80702 26.0851 7.69708 26.2802 7.3886C26.2366 7.35339 26.1788 7.35339 26.3154 6.8125C26.1992 7.08576 26.1584 7.22873 26.0619 7.3055C26.0399 7.32806 26.0125 7.34449 25.9822 7.35314C25.9519 7.36179 25.9199 7.36236 25.8893 7.3548C25.9011 7.33331 25.906 7.30873 25.9034 7.28437C25.9034 7.28437 25.4928 7.23436 25.2125 7.23436C24.9322 7.23436 24.3765 7.38578 24.0681 7.50833C23.823 7.61045 23.6864 7.61045 23.599 7.67454C23.5117 7.73863 23.4624 7.82596 23.418 7.84638C23.3737 7.86681 23.2173 7.91681 23.1793 7.97386C23.1412 8.03091 23.0863 8.0964 23.0863 8.11471C23.0863 8.13303 23.0715 8.14993 23.1152 8.13514C23.13 8.1295 23.2377 8.07105 23.3603 7.99428C23.5258 7.90132 23.7272 7.79356 23.873 7.72947C24.2892 7.56326 24.4202 7.59284 24.6068 7.55763C24.7935 7.52241 25.0815 7.44142 25.2675 7.44142C25.4744 7.43453 25.6815 7.43924 25.8879 7.45551C25.8534 7.48509 25.8238 7.5196 25.8386 7.64214C25.8245 7.69623 25.8051 7.74883 25.7809 7.7992C25.6935 8.03795 25.528 8.43305 25.4358 8.63518C25.3076 8.90914 25.1618 9.13944 25.09 9.28171C25.0181 9.42397 24.8597 9.80006 24.7026 10.0015C24.5456 10.2029 24.4639 10.3247 24.4146 10.3684C24.3653 10.4121 24.0124 10.6713 24.0385 10.7642C24.3294 10.6595 24.5912 10.4869 24.8019 10.2607C25.0956 9.92965 25.1541 9.72752 25.3844 9.54722C25.6147 9.36692 25.795 9.06338 25.9027 8.81336C25.9929 8.58024 25.9732 8.507 26.0858 8.30064L26.0851 8.29431Z" fill="#806031"/>
<path fill-rule="evenodd" clip-rule="evenodd" d="M15.5385 12.8157C15.5385 12.8157 15.4745 13.0805 15.3273 13.2115C15.1801 13.3425 14.9315 13.4502 14.9047 13.6657C14.8779 13.8813 15.1582 13.989 15.1582 13.989C15.1582 13.989 15.0005 14.2489 15.0005 14.4433C14.995 14.5873 15 14.7316 15.0153 14.875C14.9922 14.8897 14.9725 14.9092 14.9575 14.932C14.9704 15.049 15.0264 15.157 15.1146 15.2349C15.2554 15.3511 15.3801 15.4215 15.4526 15.3926C15.4636 15.4155 15.4733 15.439 15.4815 15.4631C15.4815 15.4631 15.59 15.1891 15.6625 14.9504C15.735 14.7116 15.7991 14.7391 15.828 14.4116C15.8569 14.0841 16.1738 13.5171 16.1738 13.5171L16.39 13.0347L16.0379 12.7607L15.5393 12.8129L15.5385 12.8157Z" fill="#B6903C"/>
<path fill-rule="evenodd" clip-rule="evenodd" d="M16.1942 13.29C16.1213 13.3644 16.0542 13.4442 15.9935 13.5288C15.9005 13.657 15.8273 13.7732 15.6907 13.8232C15.554 13.8732 15.4667 13.8725 15.4751 14.0091C15.4836 14.1457 15.6118 14.2042 15.6864 14.2746C15.7325 14.3152 15.7668 14.3674 15.7857 14.4257C15.8047 14.4841 15.8076 14.5465 15.7942 14.6063C15.8393 14.589 15.8801 14.5621 15.9138 14.5274C15.9475 14.4928 15.9732 14.4512 15.9893 14.4056C16.0597 14.2486 16.571 13.29 16.571 13.29H16.1942Z" fill="#685026"/>
<path fill-rule="evenodd" clip-rule="evenodd" d="M18.2014 11.0801C18.2255 11.0154 18.2255 10.9442 18.2014 10.8794C18.1578 10.7914 17.8929 10.7625 17.7612 10.6632C17.6295 10.5639 17.4584 10.4907 17.3218 10.5357C17.3422 10.4857 17.4239 10.378 17.357 10.3547C17.2901 10.3315 17.0541 10.4421 16.9901 10.4914C16.926 10.5407 16.7788 10.5991 16.7506 10.6322C16.7224 10.6653 16.6724 10.7343 16.6428 10.7026C16.6133 10.671 16.5992 10.6322 16.5499 10.6583C16.5006 10.6843 16.2618 10.8829 16.2182 10.9963C16.1238 11.2458 15.9732 11.4702 15.778 11.652C15.4808 11.9401 15.3554 12.1267 15.4399 12.2345C15.5245 12.3422 15.5681 12.2633 15.5808 12.3563C15.5921 12.4478 15.5871 12.5405 15.566 12.6303C15.5315 12.7817 15.473 12.9247 15.5519 12.9535C15.7526 13.0176 15.9477 12.8958 15.9914 12.9331C16.0787 13.012 15.9421 13.2944 16.1484 13.35C16.2891 13.3802 16.4358 13.3626 16.5654 13.3L17.3281 12.8894L18.0627 12.5021L18.4381 11.7598L18.2366 11.1393L18.1979 11.0752L18.2014 11.0801Z" fill="#D4B968"/>
<path fill-rule="evenodd" clip-rule="evenodd" d="M17.4845 12.8533C17.4489 12.7973 17.4324 12.7312 17.4377 12.665C17.4429 12.5988 17.4694 12.5361 17.5133 12.4864C17.6711 12.3145 17.8951 12.242 17.9824 12.1342C17.9658 12.1137 17.9435 12.0985 17.9183 12.0906C17.9762 11.9867 18.0647 11.9034 18.1718 11.8518C18.1289 11.8047 18.0692 11.7764 18.0056 11.7729C17.8648 11.7729 17.7753 11.8603 17.6443 11.8603C17.5133 11.8603 17.5035 11.7962 17.5035 11.7962C17.5035 11.7962 17.719 11.7757 17.6979 11.68C17.6767 11.5842 17.6408 11.5778 17.6408 11.5778C17.6408 11.5778 18.057 11.4046 18.1296 11.313C18.2021 11.2215 18.1937 11.1116 18.2085 11.0679C18.2578 11.0679 18.5465 10.9165 18.6627 10.9806C18.7789 11.0447 18.6979 11.2194 18.6979 11.2194C18.6979 11.2194 19.0501 10.9545 19.2304 10.6947C19.3874 10.7095 19.4607 10.5869 19.5755 10.5869C19.7163 10.5869 19.9431 10.782 19.9868 11.1982C20.0156 11.437 20.0572 11.5743 20.0156 11.9962C19.9952 12.2356 20.0009 12.7455 20.0734 12.9984C20.1227 13.1991 20.2389 13.1787 20.2389 13.1787C20.2213 13.24 20.186 13.2949 20.1375 13.3364C20.0586 13.4069 20.0502 13.6012 20.0586 13.6745C20.07 13.7277 20.0846 13.7801 20.1023 13.8315C20.0548 13.8857 20.0154 13.9464 19.9854 14.0118C19.9697 14.0482 19.9437 14.0791 19.9107 14.1009C19.8777 14.1227 19.839 14.1343 19.7994 14.1344C19.7567 14.1315 19.7139 14.1315 19.6712 14.1344C19.5783 14.14 19.5487 14.1548 19.4902 14.1344C19.4318 14.114 19.3888 14.0907 19.4121 13.9041C19.4353 13.7174 18.6923 13.2836 18.6923 13.2836L17.483 12.8526L17.4845 12.8533Z" fill="#CCA849"/>
<path fill-rule="evenodd" clip-rule="evenodd" d="M16.0921 14.6941C16.0921 14.6941 16.3569 15.0462 17.4464 15.0462C17.9648 15.0462 18.1458 14.9962 18.2528 14.9674C18.3599 14.9385 18.8064 14.7666 19.2459 14.2476C19.6424 13.7792 19.5551 13.587 19.5551 13.587L19.3248 13.5518L18.5754 13.6539L16.3576 14.5983L16.0893 14.6941H16.0921Z" fill="#585136"/>
<path fill-rule="evenodd" clip-rule="evenodd" d="M16.9049 14.7812C16.9049 14.7812 15.9611 14.9925 15.9611 14.3938C15.9611 13.8114 16.5436 13.1966 16.6893 13.0923C16.8351 12.9881 17.2021 12.8613 17.2021 12.8613H18.0726L18.2388 13.3015L18.1683 14.2509L16.907 14.7812H16.9049Z" fill="#252211"/>
<path fill-rule="evenodd" clip-rule="evenodd" d="M17.7753 13.0408C17.7753 13.0408 17.595 12.8746 17.1844 13.0985C16.7738 13.3225 16.4414 13.7894 16.421 14.2141C16.4006 14.5895 16.7302 14.8698 17.2429 14.8839C17.4872 14.8993 17.7324 14.8798 17.9711 14.8261C17.9415 14.7916 17.7901 14.6022 17.7901 14.6022L17.776 13.0408H17.7753Z" fill="#C3B378"/>
<path fill-rule="evenodd" clip-rule="evenodd" d="M17.5978 13.1328C17.5978 13.1328 17.5542 13.0976 17.4253 13.168C17.3175 13.2251 17.1605 13.3793 17.0379 13.4857C16.9771 13.5285 16.9195 13.5755 16.8654 13.6265C16.6844 13.842 16.533 14.1949 16.6203 14.3695C16.7076 14.5442 16.9964 14.7449 17.7302 14.6083L17.5957 13.1293L17.5978 13.1328Z" fill="#E6D89C"/>
<path fill-rule="evenodd" clip-rule="evenodd" d="M17.3591 13.494C17.2798 13.6374 17.2397 13.7992 17.2429 13.9631C17.2429 14.2575 17.4084 14.7265 18.0176 14.761C18.4867 14.7906 18.8008 14.0856 19.1445 13.8117C19.4036 13.6004 19.5607 13.5962 19.5607 13.5962C19.5607 13.5962 19.2959 13.3081 18.5881 12.9348C17.8803 12.5616 17.1056 12.5123 16.6802 13.0863C16.8816 13.0722 17.5309 12.906 17.5309 12.906L17.8486 13.0081L17.3591 13.494Z" fill="#252211"/>
<path fill-rule="evenodd" clip-rule="evenodd" d="M18.274 13.8755C18.2536 13.8318 18.2388 13.7733 18.3233 13.7593C18.4078 13.7452 18.4458 13.7529 18.4747 13.8163C18.5036 13.8797 18.5324 13.9332 18.4888 13.9572C18.4485 13.9669 18.4062 13.9641 18.3677 13.949C18.3291 13.9338 18.2961 13.9072 18.2733 13.8726L18.274 13.8755ZM18.1366 13.4628C18.1366 13.4628 18.1078 13.4832 18.1219 13.4423C18.1359 13.4015 18.1662 13.3015 18.2592 13.3261C18.3522 13.3508 18.3296 13.448 18.3169 13.4775C18.2996 13.5003 18.2762 13.5178 18.2494 13.5279C18.2227 13.538 18.1936 13.5403 18.1655 13.5346C18.1593 13.5331 18.1535 13.5304 18.1484 13.5267C18.1433 13.5229 18.139 13.5182 18.1357 13.5127C18.1324 13.5073 18.1302 13.5013 18.1293 13.495C18.1284 13.4887 18.1287 13.4823 18.1303 13.4761C18.1314 13.4712 18.1333 13.4664 18.1359 13.462L18.1366 13.4628Z" fill="#6F674D"/>
<path fill-rule="evenodd" clip-rule="evenodd" d="M10.2529 13.6509C10.3988 13.7544 10.5721 13.8122 10.7509 13.8171C11.0157 13.8108 11.3565 13.5354 11.5136 13.3628C11.6066 13.2607 11.6868 13.1515 11.7728 13.0684C11.829 13.0201 11.8815 12.9676 11.9298 12.9114C11.9798 12.8536 12.0319 12.7452 12.0587 12.71C11.9782 12.7802 11.8935 12.8456 11.8052 12.9058C11.6844 12.9792 11.5587 13.0444 11.4291 13.1008C11.3509 13.1297 10.5353 13.5614 10.5353 13.5614L10.2536 13.6509H10.2529Z" fill="#AC924C"/>
<path fill-rule="evenodd" clip-rule="evenodd" d="M10.605 11.4988C10.721 11.4304 10.8481 11.3828 10.9804 11.358C11.2184 11.3115 11.4587 11.2774 11.7002 11.2559L12.096 11.4284L12.2531 12.0256L11.965 12.6461L11.5981 12.8764L11.1818 12.2066L10.6057 11.5024L10.605 11.4988Z" fill="#9F8E57"/>
<path fill-rule="evenodd" clip-rule="evenodd" d="M10.0895 12.0315L9.94867 12.1336C9.983 12.051 10.0046 11.9636 10.0128 11.8744C10.0416 11.6794 10.1931 11.2047 10.4149 10.9307C10.4821 10.8405 10.554 10.754 10.6304 10.6715C10.6099 10.668 10.589 10.6688 10.5688 10.6739C10.5487 10.679 10.5298 10.6883 10.5135 10.7011C10.6179 10.5381 10.7548 10.3983 10.9156 10.2905C11.1023 10.1757 11.1748 10.1391 11.3699 10.2335C11.565 10.3278 11.615 10.3743 11.7573 10.3701C11.8995 10.3659 12.0228 10.213 12.0228 10.213C12.0228 10.213 12.0517 10.306 11.9439 10.5215C11.8361 10.737 11.4108 11.1765 11.4108 11.1765L10.5255 11.7829L10.0895 12.0322V12.0315Z" fill="#EAC970"/>
<path fill-rule="evenodd" clip-rule="evenodd" d="M10.7417 11.4264C10.7417 11.4264 11.3826 11.5138 11.5777 11.3335C11.5833 11.3539 11.6065 11.3539 11.6065 11.368C11.6052 11.3792 11.5999 11.3897 11.5917 11.3976C11.613 11.3941 11.6344 11.392 11.6558 11.3912C11.6815 11.3989 11.708 11.4039 11.7347 11.406C11.7562 11.4056 11.7776 11.4037 11.7988 11.4004C11.7965 11.4144 11.7915 11.4279 11.784 11.44C11.7765 11.452 11.7667 11.4625 11.7551 11.4708C11.7847 11.4708 11.8129 11.4764 11.8129 11.4997C11.8129 11.5229 11.8185 11.5933 11.7833 11.6081C11.7543 11.6159 11.7235 11.6137 11.696 11.6018C11.6987 11.6571 11.7138 11.711 11.7403 11.7596C11.7974 11.8673 11.9206 11.9899 12.0854 11.9546C12.0854 11.9546 12.1728 12.1659 11.8037 12.63C11.7544 12.6941 11.7016 12.7815 11.6382 12.854C11.6128 12.909 11.5934 12.9666 11.5805 13.0259C11.5805 13.0259 12.2009 12.7871 12.3784 12.2427C12.5422 11.7295 12.6037 11.1893 12.5594 10.6524C12.559 10.5434 12.5372 10.4355 12.4953 10.3348C12.4073 10.1545 12.1629 10.1834 12.0636 10.2855C11.9228 10.4264 11.6826 10.7834 11.3502 11.0278C11.0178 11.2722 10.998 11.3159 10.7389 11.4243L10.7417 11.4264Z" fill="#D7BC6B"/>
<path fill-rule="evenodd" clip-rule="evenodd" d="M9.97262 12.2131C9.97262 12.2131 9.85008 12.2835 9.78599 12.5582C9.7219 12.8329 9.84374 13.1787 9.91417 13.2864C9.9846 13.3942 10.1445 13.6886 10.4776 13.7034C10.5599 13.7027 10.6413 13.6857 10.717 13.6534C10.8328 13.6003 10.9414 13.5328 11.0403 13.4526C11.1812 13.3449 11.2995 13.2519 11.2847 13.2414C11.2495 13.2273 10.4051 12.5279 10.4051 12.5279L10.0874 12.1758L9.97403 12.2138L9.97262 12.2131Z" fill="#585136"/>
<path fill-rule="evenodd" clip-rule="evenodd" d="M10.7713 13.3714C10.8666 13.3634 10.9594 13.3369 11.0445 13.2932C11.1466 13.2291 10.448 12.5361 10.448 12.5361L10.4973 13.2848L10.7713 13.3714Z" fill="#453A25"/>
<path fill-rule="evenodd" clip-rule="evenodd" d="M10.0282 12.16C9.99125 12.2269 9.96195 12.2978 9.94092 12.3713C9.93744 12.6174 9.95891 12.8633 10.005 13.1051C10.0395 13.2565 10.229 13.4868 10.4741 13.4868C10.6248 13.4868 10.8346 13.3932 10.8346 13.3699C10.8346 13.3467 10.6191 13.3129 10.5614 13.2044C10.5262 13.1467 10.5114 13.003 10.5036 12.8586C10.498 12.7657 10.498 12.6635 10.5325 12.6283C10.6114 12.541 10.6262 12.2903 10.6262 12.2903L10.9079 11.7705H10.5403L10.1008 12.0445L10.0282 12.16Z" fill="#84754B"/>
<path fill-rule="evenodd" clip-rule="evenodd" d="M9.9205 12.3209C9.9205 12.3209 10.2086 11.9392 10.4677 11.8518C10.7269 11.7645 10.8438 11.8166 10.8438 11.8166L10.6924 12.204L10.4762 12.4427L10.491 12.5653C10.491 12.5653 10.4558 12.8886 10.6713 13.1125C10.8868 13.3365 11.0473 13.3287 11.1403 13.3287C11.2333 13.3287 11.5016 13.2498 11.6389 12.9266C11.7608 12.6237 11.8629 12.235 11.6185 11.8455C11.5383 11.7216 11.4282 11.6198 11.2984 11.5495C11.1686 11.4792 11.0231 11.4427 10.8755 11.4434C10.7938 11.4434 10.1529 11.4758 9.9205 12.3202V12.3209Z" fill="#252211"/>
<path fill-rule="evenodd" clip-rule="evenodd" d="M17.3155 13.6168C17.2077 13.5668 17.3098 13.2647 17.4176 13.171C17.5476 13.0437 17.7191 12.9672 17.9007 12.9555C17.988 12.9498 18.0726 13.0048 18.0585 13.0632C18.038 13.171 17.8866 13.3224 17.7493 13.4302C17.5598 13.5788 17.438 13.6745 17.3155 13.6168Z" fill="#F7F7E7"/>
<path fill-rule="evenodd" clip-rule="evenodd" d="M11.4903 11.9648C11.5343 11.9645 11.5773 11.9779 11.6132 12.0032C11.6492 12.0284 11.6764 12.0643 11.6911 12.1057C11.7115 12.1987 11.6418 12.3874 11.4903 12.3874C11.3678 12.3874 11.3037 12.236 11.3037 12.1923C11.305 12.1565 11.3149 12.1215 11.3326 12.0902C11.3417 12.055 11.3621 12.0238 11.3905 12.0012C11.419 11.9786 11.454 11.9658 11.4903 11.9648Z" fill="#F8F6DE"/>
<path fill-rule="evenodd" clip-rule="evenodd" d="M10.3543 12.0322C10.2286 12.0952 10.1256 12.1959 10.0599 12.3203C9.99361 12.4642 9.97344 12.6251 10.0022 12.7809C10.0323 12.8935 10.0798 13.0006 10.143 13.0985C10.161 13.1272 10.1854 13.1513 10.2142 13.169C10.243 13.1867 10.2755 13.1976 10.3092 13.2006C10.3585 13.1943 10.46 13.0598 10.46 12.9851C10.46 12.9105 10.4663 12.5745 10.5621 12.3935C10.6466 12.2132 10.3585 12.0322 10.3585 12.0322H10.3543Z" fill="#D4C38B"/>
<path fill-rule="evenodd" clip-rule="evenodd" d="M10.3832 12.0169C10.3487 12.0373 10.2902 12.0669 10.3043 12.1042C10.3184 12.1415 10.4417 12.1619 10.4853 12.245C10.5251 12.3128 10.5376 12.3931 10.5205 12.4697C10.5582 12.4524 10.5926 12.4285 10.622 12.3993C10.6861 12.3288 10.7628 12.2274 10.8332 12.2274C10.8769 12.2274 10.9206 12.2479 10.9614 12.2479C11.0255 12.2479 11.0896 12.2274 11.0988 12.1605C11.1128 12.0732 10.9762 11.9943 10.8973 12.0091C10.9121 11.9514 10.9326 11.8682 10.8685 11.8084C10.8044 11.7485 10.6029 11.852 10.5593 11.8788C10.5156 11.9056 10.3846 12.0161 10.3846 12.0161L10.3832 12.0169Z" fill="#E2D59D"/>
<path fill-rule="evenodd" clip-rule="evenodd" d="M15.0117 18.1365L15.4428 18.0098L15.5646 18.0971C15.5646 18.0971 15.6519 18.283 15.7893 18.3084C15.7456 18.402 15.6315 18.4816 15.6378 18.5471C15.6453 18.5923 15.6679 18.6335 15.7019 18.664C15.7019 18.664 15.3146 19.3049 16.0773 19.9501C15.897 20.0205 15.6667 20.1233 15.5449 20.1811C15.6315 20.2015 15.8181 20.2381 15.897 20.3092C15.9759 20.3804 15.9759 20.4022 16.0484 20.4459C16.121 20.4895 16.1646 20.548 16.1506 20.5741C16.1006 20.5452 15.9343 20.4578 15.9055 20.5388C15.8766 20.6198 15.1864 20.5888 15.1864 20.5888L14.0215 20.8128C14.0323 20.7719 14.0306 20.7286 14.0165 20.6887C14.0025 20.6488 13.9767 20.614 13.9426 20.5888C13.8018 20.4607 13.625 20.5945 13.4384 20.4515C13.194 20.2656 13.1855 20.0494 13.1067 19.9684C13.1855 19.9191 13.3454 19.8458 13.7271 19.7951C13.7087 19.7667 13.696 19.7348 13.69 19.7015C13.6839 19.6681 13.6846 19.6339 13.6919 19.6007C13.7271 19.4986 13.8729 19.4345 13.8293 19.3127C13.8933 19.2979 13.9222 19.2979 14.0828 19.0965C14.2434 18.895 14.3272 18.8521 14.4434 18.8373C14.5596 18.8225 14.63 18.8373 14.8455 18.6366C14.9969 18.4957 14.9476 18.3718 14.9476 18.3718C14.9476 18.3718 15.0462 18.3394 15.0117 18.1387V18.1365Z" fill="#CBAC5A"/>
<path fill-rule="evenodd" clip-rule="evenodd" d="M13.7391 18.2019C13.7447 18.173 13.768 18.1582 13.925 18.173C14.0821 18.1878 15.0786 18.0801 15.3498 18.0653C15.6209 18.0505 16.5872 18.0589 17.0563 18.1582C17.5253 18.2575 18 18.3737 18.2303 18.4322C18.4606 18.4907 18.5331 18.5195 18.524 18.5484C18.5167 18.5649 18.5042 18.5787 18.4885 18.5876C18.4728 18.5964 18.4546 18.6 18.4367 18.5977C18.4078 18.5921 17.6443 18.359 17.4091 18.3097C17.1739 18.2604 16.3576 18.1294 15.9111 18.1371C15.4949 18.1434 15.3287 18.1315 14.9765 18.1723C14.6244 18.2132 14.0412 18.2737 13.8666 18.2505C13.6919 18.2273 13.7292 18.2308 13.7384 18.2012L13.7391 18.2019Z" fill="#D6BC6F"/>
<path fill-rule="evenodd" clip-rule="evenodd" d="M16.0829 20.4848C16.0829 20.4848 16.6802 20.8081 16.8957 21.2039C17.0534 21.4983 16.8027 21.6441 16.8027 21.6441C16.8027 21.6441 17.1408 21.6441 17.0971 21.83C17.0767 21.9469 16.5147 22.261 16.1386 22.4273C15.7625 22.5935 15.7716 22.585 15.5857 22.6139C15.3998 22.6428 14.9096 22.5561 14.811 22.7012C14.7124 22.8463 14.7533 22.9956 14.7821 23.0188C14.8689 23.0426 14.9575 23.0591 15.0469 23.0681C15.0469 23.0681 14.9976 23.2048 14.5082 23.2196C14.0187 23.2344 13.8968 23.2689 13.8673 23.3217C13.8377 23.3745 13.9609 23.3421 14.1849 23.3794C14.4089 23.4168 14.7237 23.4365 14.7237 23.4365C14.6132 23.5132 14.4884 23.5669 14.3567 23.5942C14.0539 23.6724 13.582 23.7457 13.4363 23.833C13.506 23.8872 13.5837 23.9304 13.6665 23.9612C13.5546 23.987 13.4461 24.026 13.3433 24.0774C13.387 24.107 13.4454 24.1415 13.4454 24.1415C13.4454 24.1415 13.2003 24.4359 13.0581 24.5084C12.9158 24.5809 12.0939 24.9627 11.8115 24.8901C11.1072 24.7035 11.0192 23.9323 10.8473 23.8738C10.5881 23.7865 10.4656 23.9612 10.2353 23.8386C10.3177 23.774 10.4067 23.7183 10.5008 23.6724C10.3839 23.6154 9.78103 23.2329 9.78103 23.2329C9.71765 23.0953 9.64713 22.9611 9.56975 22.8308C9.45284 22.6301 9.2817 22.3618 9.15282 22.1265C8.8711 21.6082 8.85843 21.3694 8.60559 21.075C8.64926 21.018 8.80068 21.0257 8.80068 21.0257L10.9241 21.7251L14.6892 21.8342L15.6667 20.4355L16.0836 20.4848H16.0829Z" fill="#DFC677"/>
<path fill-rule="evenodd" clip-rule="evenodd" d="M10.5057 22.6191C10.5285 22.6442 10.5548 22.6658 10.5839 22.6832C10.6773 22.7358 10.7627 22.8015 10.8375 22.8783C10.867 22.8346 10.9396 22.7557 11.0678 22.8783C11.1959 23.0008 11.3558 22.9135 11.4551 22.9424C11.5544 22.9713 11.5629 22.9917 11.5629 22.9917C11.6199 22.9489 11.6827 22.9145 11.7495 22.8896C11.8284 22.8607 11.9213 22.8403 12.0235 22.8114C12.1101 22.7872 12.1987 22.7707 12.2883 22.7621C12.3524 22.8058 12.5827 23.0501 13.506 22.6917C14.3765 22.3536 14.5779 22.3163 14.7237 22.3684C14.7378 22.3332 14.7525 22.2663 14.9765 22.2754C14.9765 22.1825 14.7906 21.8648 14.7906 21.8648L13.7623 21.5127H13.1989L11.5129 21.8219L10.5825 22.3494L10.5121 22.6177L10.5057 22.6191Z" fill="#C4A859"/>
<path fill-rule="evenodd" clip-rule="evenodd" d="M9.94373 22.0254C9.94373 22.0254 9.96415 22.1832 10.1973 22.3494C10.3099 22.423 10.4116 22.5122 10.4994 22.6142C10.5277 22.5769 10.554 22.5381 10.5783 22.498C10.6135 22.4332 10.6424 22.3607 10.7008 22.3403C10.817 22.291 11.0825 22.3839 11.1403 22.3691C11.198 22.3543 11.1755 22.2529 11.2276 22.2529C11.3502 22.2473 11.4291 22.3318 11.4727 22.3318C11.5164 22.3318 11.6241 22.3262 11.6382 22.3029C11.6523 22.2797 11.6586 22.0374 11.8249 21.9212C11.8922 21.8768 11.9694 21.8496 12.0497 21.842C12.13 21.8344 12.211 21.8466 12.2855 21.8775C12.2855 21.9212 12.2918 22.029 12.408 22.0346C12.5242 22.0402 12.5362 22.0198 12.6383 22.055C12.7404 22.0902 12.863 22.0494 12.92 22.2205C12.9693 22.2064 13.0862 22.1916 13.0566 22.0254C13.1495 21.9605 13.2281 21.8774 13.2876 21.7811C13.3165 21.7374 13.3658 21.6881 13.4039 21.624C13.4734 21.6144 13.5442 21.6204 13.6112 21.6415C13.6782 21.6625 13.7396 21.6982 13.7912 21.7458C13.7419 21.7811 13.7123 21.8036 13.6982 21.8395C13.7407 21.8817 13.7796 21.9274 13.8145 21.9761C13.8581 22.0339 13.8849 22.1043 13.9426 22.117C14.0652 22.1522 14.2659 22.1022 14.4906 22.117C14.6574 22.1276 14.8197 22.1757 14.9652 22.2578C14.9941 22.2438 14.9941 22.2381 15.0674 22.2522C15.1406 22.2663 15.1948 22.2726 15.1167 22.1818C15.1603 22.2022 15.2096 22.2459 15.2533 22.2022C15.2762 22.1688 15.306 22.1406 15.3405 22.1195C15.3751 22.0983 15.4138 22.0848 15.454 22.0797C15.5766 22.0649 15.6202 22.0853 15.6702 21.9578C15.7343 21.8001 15.5125 21.8001 15.5125 21.8001C15.5125 21.8001 15.6146 21.7071 15.728 21.5846C15.8653 21.4564 16.0224 21.2902 16.0604 21.0866C16.1245 20.7105 15.7576 20.6641 15.7576 20.6641L13.9757 21.2106L11.8002 21.1028L9.94443 22.0261L9.94373 22.0254Z" fill="#927D49"/>
<path fill-rule="evenodd" clip-rule="evenodd" d="M8.3443 16.8847C8.29667 16.9588 8.265 17.0421 8.25134 17.1291C8.21612 17.3009 8.23091 17.2805 8.20204 17.4031C8.17316 17.5256 7.81398 18.7412 7.9485 19.1539C8.08301 19.5666 8.31543 19.7173 8.46121 20.0476C8.48926 20.1061 8.5128 20.1666 8.53164 20.2286C8.58164 20.4441 8.53798 20.6096 8.59573 20.8259C8.62896 20.9176 8.68212 21.0008 8.75138 21.0695C8.92392 21.2498 9.20564 21.4217 9.32677 21.5442C9.49862 21.7245 9.74371 22.0922 10.055 22.1267C10.2212 22.1471 10.4571 22.0774 10.6522 21.9605C10.8248 21.8527 10.9339 21.7013 11.1128 21.6154C11.4316 21.4842 11.7778 21.4341 12.1207 21.4696C12.3319 21.5132 12.8249 21.6647 13.1003 21.6647C13.3143 21.661 13.5271 21.6316 13.7342 21.5773C14.1504 21.4548 14.6547 21.2449 14.9864 21.1548C15.1815 21.097 15.3385 21.0843 15.4991 21.047C15.7731 20.9829 16.0034 20.8956 16.1329 20.7294C16.0456 20.6273 15.9379 20.4702 15.3582 20.4758C14.6969 20.4906 13.9335 20.8576 13.5581 20.916C13.1827 20.9745 13.0193 21.0238 12.5996 20.8723C12.1798 20.7209 12.177 20.6181 12.177 20.6181C12.177 20.6181 11.7453 20.316 11.5643 19.5462C11.3833 18.7764 11.5643 18.2151 12.0333 17.6819C12.068 17.649 12.0944 17.6084 12.1106 17.5634C12.1267 17.5184 12.1321 17.4702 12.1263 17.4228C12.1263 17.4228 12.4355 17.0065 12.351 16.6164C12.2664 16.2262 11.6608 16.3079 11.6608 16.3079L8.35064 16.8868L8.3443 16.8847Z" fill="#6E6342"/>
<path fill-rule="evenodd" clip-rule="evenodd" d="M8.84223 18.1821C8.81682 18.2306 8.8049 18.2851 8.80772 18.3398C8.81335 18.418 8.83659 18.5201 9.07253 18.7504C9.12996 18.8036 9.1741 18.8696 9.20138 18.943C9.22865 19.0164 9.23831 19.0952 9.22958 19.173C9.22958 19.173 9.331 19.1934 9.60567 19.0652C9.82118 18.9631 9.89372 19.1441 9.89372 19.1441C9.9563 19.111 10.0243 19.0893 10.0944 19.08C10.158 19.0738 10.2194 19.0541 10.2747 19.0223C10.4177 19.1677 10.5772 19.2959 10.7501 19.404C10.9508 19.5118 11.0678 19.5843 11.1664 19.5118C11.2649 19.4392 11.2593 19.3167 11.2537 19.2582C11.2305 19.2045 11.2012 19.1537 11.1664 19.1068C11.1023 19.0138 11.0001 18.9054 10.9938 18.8187C10.979 18.618 11.1452 18.3786 11.11 18.3208C11.0748 18.2631 10.9445 18.2504 10.617 18.3645C10.2825 18.4751 8.838 18.1807 8.838 18.1807L8.84223 18.1821Z" fill="#39331F"/>
<path fill-rule="evenodd" clip-rule="evenodd" d="M9.60569 19.4821C9.60569 19.4821 9.43948 19.3251 9.49793 18.5616C9.5689 18.5606 9.63977 18.5674 9.70922 18.5821C9.70922 18.5821 9.79796 19.1736 9.60569 19.4821Z" fill="#292311"/>
<path fill-rule="evenodd" clip-rule="evenodd" d="M8.42319 16.3022C8.44634 16.2851 8.4678 16.2657 8.48728 16.2445C8.42952 16.3522 8.16401 16.7833 8.37952 17.4622C8.59503 18.1411 9.13662 18.6412 9.80358 18.6651C10.4705 18.689 10.8213 18.3623 11.222 17.8728C11.3798 17.6777 11.5601 17.4326 11.7199 17.2671C11.9594 17.0079 12.1425 16.9347 12.1425 16.6847C12.1425 16.172 11.6185 15.9417 10.8466 15.7114C10.0747 15.4811 9.37819 15.5099 9.01549 15.6677C8.66335 15.8388 8.51122 16.0198 8.41826 16.3015L8.42319 16.3022Z" fill="#252211"/>
<path fill-rule="evenodd" clip-rule="evenodd" d="M10.9016 19.7127L10.9593 19.6831C10.9593 19.6831 10.9741 19.4528 11.0671 19.4591C11.1053 19.4709 11.1386 19.4949 11.1617 19.5275C11.1849 19.5601 11.1967 19.5994 11.1952 19.6394C11.1954 19.6549 11.1922 19.6702 11.1859 19.6844C11.1796 19.6985 11.1703 19.7111 11.1586 19.7213C11.147 19.7316 11.1333 19.7392 11.1185 19.7436C11.1036 19.7481 11.088 19.7493 11.0727 19.7472C11.0134 19.7536 10.9537 19.7416 10.9016 19.7127Z" fill="#3F3824"/>
<path fill-rule="evenodd" clip-rule="evenodd" d="M10.6424 18.7342C10.6424 18.7342 10.7001 18.7138 10.7706 18.7842C10.8283 18.7842 11.079 18.7546 11.1579 18.8039C11.1989 18.8267 11.2339 18.8588 11.26 18.8976C11.26 18.8976 10.9657 18.9617 10.8058 18.8976C10.6459 18.8335 10.6424 18.7342 10.6424 18.7342Z" fill="#2D2815"/>
<path fill-rule="evenodd" clip-rule="evenodd" d="M11.939 18.7772C11.8463 18.6983 11.7351 18.6442 11.6157 18.6202C11.5861 18.6138 11.5805 18.6343 11.5579 18.6343C11.5354 18.6343 11.5375 18.585 11.5375 18.585L11.4432 18.635C11.4432 18.635 11.4284 18.6547 11.4777 18.692C11.527 18.7293 11.5946 18.7561 11.615 18.8146C11.6223 18.8444 11.6319 18.8736 11.6439 18.9019C11.6981 18.9059 11.7524 18.896 11.8016 18.873C11.8509 18.8434 11.9425 18.7962 11.9383 18.7765L11.939 18.7772Z" fill="#82764F"/>
<path fill-rule="evenodd" clip-rule="evenodd" d="M10.4677 19.3693C10.4754 19.3137 10.5019 19.2624 10.5428 19.224C10.5837 19.1856 10.6364 19.1623 10.6924 19.158C10.7474 19.1535 10.8021 19.1694 10.8461 19.2026C10.8902 19.2359 10.9204 19.2841 10.9311 19.3383L10.8142 19.4552C10.8142 19.4552 10.7269 19.3298 10.4691 19.3679L10.4677 19.3693Z" fill="#2D2816"/>
<path fill-rule="evenodd" clip-rule="evenodd" d="M11.7347 18.504C11.6384 18.5902 11.5169 18.6432 11.3882 18.6554C11.3671 18.6301 11.3556 18.5982 11.3556 18.5652C11.3556 18.5323 11.3671 18.5004 11.3882 18.4751C11.4523 18.3821 11.5256 18.3525 11.5995 18.3821C11.6313 18.3874 11.661 18.4017 11.6849 18.4233C11.7089 18.4449 11.7262 18.4729 11.7347 18.504Z" fill="#574F35"/>
<path fill-rule="evenodd" clip-rule="evenodd" d="M12.1749 18.6466C12.1805 18.6177 12.1601 18.6121 12.1749 18.5973C12.1897 18.5825 12.2678 18.5536 12.2826 18.5677C12.2974 18.5818 12.2826 18.5973 12.2826 18.6254C12.2855 18.6526 12.2803 18.68 12.2678 18.7043C12.2542 18.7187 12.2372 18.7294 12.2184 18.7356C12.1996 18.7417 12.1796 18.7431 12.1601 18.7395C12.1312 18.7304 12.1249 18.6895 12.1249 18.6818C12.1397 18.6747 12.1749 18.6614 12.1749 18.6466ZM12.6721 18.3325C12.6721 18.3177 12.7214 18.2881 12.7503 18.2881C12.7939 18.2881 12.7939 18.3233 12.8003 18.3325C12.8066 18.3416 12.8144 18.3261 12.8292 18.3522C12.8439 18.3782 12.8644 18.4226 12.8496 18.4543C12.8396 18.468 12.8264 18.4791 12.8112 18.4867C12.796 18.4943 12.7792 18.4982 12.7623 18.498C12.7256 18.4467 12.6953 18.3911 12.6721 18.3325Z" fill="#82764F"/>
<path fill-rule="evenodd" clip-rule="evenodd" d="M11.6706 18.7139C11.7267 18.7319 11.7784 18.7616 11.822 18.8012C11.7993 18.8169 11.7758 18.8315 11.7516 18.8449C11.7417 18.7932 11.7138 18.7468 11.6727 18.7139H11.6706Z" fill="#6E6342"/>
<path fill-rule="evenodd" clip-rule="evenodd" d="M11.5284 18.073C11.5136 18.0589 11.5713 18.0237 11.6065 18.0293C11.6417 18.035 11.6558 18.0589 11.6939 18.0646C11.7319 18.0702 11.7375 18.0498 11.7516 18.0357C11.7657 18.0216 11.8157 18.0293 11.822 18.0357C11.8276 18.0418 11.8325 18.0484 11.8368 18.0554C11.8376 18.0444 11.8405 18.0337 11.8455 18.0239C11.8504 18.0141 11.8573 18.0054 11.8657 17.9984C11.8768 17.99 11.8897 17.9843 11.9034 17.9817C11.9171 17.9791 11.9312 17.9798 11.9446 17.9836C11.9591 18.018 11.9688 18.0543 11.9735 18.0913C11.9678 18.1061 11.8805 18.1265 11.8657 18.1117C11.8918 18.1544 11.921 18.1951 11.953 18.2336C11.9615 18.2484 11.889 18.2836 11.8601 18.2779C11.7379 18.2292 11.6248 18.1601 11.5255 18.0737L11.5284 18.073ZM11.9094 17.5899C11.9043 17.575 11.8941 17.5625 11.8805 17.5547C11.8601 17.549 11.7932 17.5547 11.7932 17.5899C11.8155 17.7063 11.8567 17.8184 11.915 17.9216C11.9854 18.0237 12.0376 18.1082 12.0869 18.1329C12.1025 18.1395 12.1201 18.1403 12.1363 18.1349C12.1525 18.1296 12.1662 18.1186 12.1749 18.104C12.1926 17.9795 12.1973 17.8534 12.189 17.7279C12.1833 17.4744 12.1749 17.23 12.1601 17.2152C12.1451 17.2072 12.1279 17.2044 12.1111 17.207C12.0944 17.2097 12.0789 17.2178 12.0671 17.23C12.0057 17.3464 11.953 17.4671 11.9094 17.5913V17.5899Z" fill="#585136"/>
<path fill-rule="evenodd" clip-rule="evenodd" d="M11.6502 19.0799C11.6204 19.0619 11.5869 19.0506 11.5521 19.0471C11.5174 19.0436 11.4824 19.0478 11.4495 19.0595C11.3565 19.1039 11.3622 19.2757 11.3622 19.2757C11.3832 19.2836 11.4057 19.2864 11.428 19.2839C11.4503 19.2813 11.4717 19.2734 11.4903 19.2609C11.5614 19.2193 11.6174 19.1562 11.6502 19.0806V19.0799Z" fill="#574F35"/>
<path fill-rule="evenodd" clip-rule="evenodd" d="M11.8425 19.3089C11.8368 19.2512 11.7847 19.2512 11.7847 19.2216C11.7884 19.2074 11.7966 19.1948 11.8083 19.1859C11.8199 19.1769 11.8342 19.1722 11.8488 19.1723C11.8784 19.1723 11.9066 19.2068 11.9425 19.23C11.9784 19.2533 12.0298 19.2871 12.0355 19.3315C12.0411 19.3758 11.9777 19.4977 11.9073 19.4977C11.8368 19.4977 11.858 19.3667 11.8432 19.3082L11.8425 19.3089ZM12.4059 19.23C12.4059 19.23 12.2897 19.2653 12.2981 19.23C12.3066 19.1948 12.3334 19.1864 12.3686 19.1864C12.3872 19.1669 12.4122 19.1547 12.439 19.1519C12.4548 19.1507 12.4705 19.1557 12.4827 19.166C12.4827 19.166 12.5615 19.1314 12.5848 19.1519C12.608 19.1723 12.5904 19.1716 12.6052 19.1955C12.6235 19.2215 12.6356 19.2514 12.6404 19.2829C12.6404 19.3061 12.5524 19.3533 12.4827 19.347C12.4045 19.3315 12.4193 19.247 12.4045 19.2322L12.4059 19.23ZM13.0848 19.0991C13.0848 19.0991 13.1193 19.1195 13.0905 19.1427C13.0261 19.1806 12.9537 19.2026 12.8792 19.2068C12.7918 19.2068 12.7137 19.2216 12.7137 19.1927C12.7137 19.1638 12.7841 19.1054 12.8299 19.0906C12.8383 19.0799 12.849 19.0712 12.8611 19.0651C12.8733 19.059 12.8867 19.0557 12.9003 19.0554C12.9348 19.0554 13.0714 19.0413 13.1116 19.035C13.1517 19.0286 13.1757 19.0498 13.1553 19.0786C13.1468 19.0991 13.0848 19.0991 13.0848 19.0991ZM13.2856 18.1997C13.2856 18.1997 13.2419 18.2927 13.1926 18.2927C13.1433 18.2927 13.1433 18.2729 13.1433 18.2581C13.1433 18.2434 13.1926 18.1877 13.187 18.1708C13.1722 18.1708 13.1369 18.1708 13.1433 18.1356C13.1496 18.1004 13.1926 18.0715 13.2362 18.0778C13.2692 18.0511 13.31 18.0357 13.3525 18.0342C13.4025 18.0342 13.4461 18.049 13.4461 18.0778C13.4461 18.1067 13.3884 18.1715 13.3672 18.1863C13.3461 18.2011 13.3144 18.2243 13.2856 18.2004V18.1997ZM12.6214 19.9209C12.6214 19.9209 12.5637 19.9273 12.5637 19.9562C12.5637 19.971 12.5785 19.971 12.5989 19.9618C12.6108 19.9614 12.6226 19.9595 12.6341 19.9562C12.6397 19.9618 12.6397 19.9907 12.6834 19.9907C12.7194 19.9863 12.7542 19.9745 12.7855 19.9562C12.82 19.9414 12.8496 19.9266 12.8496 19.8984C12.8456 19.8783 12.8347 19.8602 12.8187 19.8473C12.8028 19.8344 12.7828 19.8276 12.7623 19.828C12.7399 19.8268 12.7177 19.8319 12.6982 19.8428C12.6982 19.8428 12.6834 19.8139 12.6341 19.8428C12.5848 19.8716 12.5904 19.8724 12.6045 19.8864C12.6306 19.9097 12.6221 19.9252 12.6221 19.9252L12.6214 19.9209ZM12.2925 20.2238C12.2925 20.2097 12.3629 20.1801 12.3855 20.1893C12.4203 20.2261 12.4472 20.2698 12.4644 20.3175C12.4644 20.3315 12.3939 20.3668 12.3622 20.3668C12.3297 20.358 12.3015 20.3374 12.2834 20.309C12.2834 20.3034 12.3186 20.2949 12.3186 20.2886C12.3186 20.2822 12.2925 20.2393 12.2925 20.2245V20.2238ZM12.0615 19.8019C12.0763 19.7956 12.0763 19.7815 12.096 19.7667C12.1025 19.7625 12.1099 19.7599 12.1176 19.7589C12.1252 19.7579 12.133 19.7587 12.1404 19.7611C12.1455 19.7519 12.1525 19.744 12.1611 19.7379C12.1696 19.7318 12.1794 19.7277 12.1897 19.7259C12.2249 19.7202 12.2538 19.7259 12.2474 19.7407C12.2474 19.7843 12.2763 19.8111 12.2763 19.8484C12.2763 19.8857 12.2559 19.9266 12.1834 19.9562C12.1226 19.9726 12.0593 19.9774 11.9967 19.9702C11.9866 19.9572 11.98 19.9419 11.9776 19.9256C11.9751 19.9093 11.9769 19.8927 11.9826 19.8773C12.0026 19.8463 12.0297 19.8205 12.0615 19.8019Z" fill="#82764F"/>
<path fill-rule="evenodd" clip-rule="evenodd" d="M12.1538 19.8203C12.1538 19.8203 12.1038 19.8492 12.1038 19.864C12.0994 19.8781 12.0975 19.8929 12.0981 19.9076C12.0981 19.9161 12.1622 19.902 12.1686 19.8929C12.1749 19.8837 12.1538 19.8351 12.1538 19.8203Z" fill="#6E6342"/>
<path fill-rule="evenodd" clip-rule="evenodd" d="M11.7199 19.6831C11.7593 19.6844 11.7984 19.6893 11.8368 19.6979C11.8657 19.7127 11.8861 19.7416 11.8573 19.7768C11.8284 19.812 11.7995 19.8641 11.7347 19.8549C11.6699 19.8458 11.5939 19.8113 11.5939 19.7845C11.5927 19.766 11.5952 19.7475 11.6013 19.7299C11.6073 19.7124 11.6168 19.6963 11.6291 19.6824C11.658 19.6592 11.6727 19.6739 11.722 19.6824L11.7199 19.6831Z" fill="#585136"/>
<path fill-rule="evenodd" clip-rule="evenodd" d="M11.6854 19.7129C11.6431 19.745 11.604 19.7811 11.5685 19.8206C11.5396 19.8559 11.3967 20.0362 11.3537 20.0742C11.3681 20.0494 11.3846 20.0258 11.403 20.0038C11.3452 20.0403 11.3019 20.0958 11.2805 20.1608C11.2453 20.2693 11.4756 20.327 11.627 20.3721C11.7784 20.4172 11.8383 20.4298 11.8383 20.4298C11.7834 20.346 11.7362 20.2574 11.6974 20.165C11.6396 20.0284 11.6101 20.0136 11.6481 19.9495C11.6861 19.8854 11.7185 19.8418 11.7185 19.7925C11.7091 19.7653 11.698 19.7387 11.6854 19.7129Z" fill="#574F35"/>
<path fill-rule="evenodd" clip-rule="evenodd" d="M8.36475 19.9429C8.38596 19.9464 8.40762 19.9464 8.42884 19.9429C8.4725 19.9365 8.92676 19.7696 9.40215 19.802C9.75743 19.8231 10.1096 19.8809 10.4529 19.9746C11.0502 20.1316 11.7911 20.4436 12.2735 20.6211C12.4017 20.6704 12.527 20.7584 12.6193 20.7929C12.9862 20.9338 13.001 20.9338 13.2165 20.9739C13.4701 21.0085 13.7293 20.9239 13.9997 20.8662C14.3321 20.7958 14.8998 20.7577 15.3977 20.6852C15.5587 20.6627 15.7175 20.6267 15.8724 20.5774C15.8724 20.5774 15.4766 20.9739 14.5272 21.1162C14.1433 21.1746 13.7532 21.1796 13.368 21.131C13.1462 21.1126 12.9267 21.0734 12.7123 21.0141C12.5404 20.9648 12.1883 20.8338 11.7544 20.726C11.4516 20.6479 11.1136 20.5894 10.7262 20.5148C9.77049 20.3394 8.73379 20.1387 8.36475 19.9436V19.9429Z" fill="#252211"/>
<path fill-rule="evenodd" clip-rule="evenodd" d="M7.29283 18.1426C7.06253 18.3377 6.81814 18.5236 6.57939 18.706L5.86384 19.2575C5.61875 19.4377 5.38 19.6244 5.13562 19.8047C4.89123 19.985 4.64262 20.1568 4.38626 20.323C4.61656 20.1279 4.86165 19.9476 5.10604 19.7702C5.35042 19.5927 5.60396 19.418 5.8399 19.2377L6.55967 18.6842C6.80687 18.5039 7.04562 18.3172 7.29635 18.1426H7.29283ZM6.02019 20.1815C6.02019 20.1815 6.27937 19.966 6.60263 19.6631C7.00478 19.287 7.49707 18.8067 7.65412 18.7194L6.02019 20.1815Z" fill="#CFB66C"/>
<path fill-rule="evenodd" clip-rule="evenodd" d="M6.0202 20.1816C6.14838 20.0541 6.28501 19.9288 6.42235 19.8062L6.63363 19.6259C6.69772 19.5682 6.77026 19.5034 6.83435 19.4393C6.96253 19.3111 7.08789 19.1738 7.21607 19.0435C7.27936 18.9775 7.34638 18.9152 7.41679 18.8568C7.45208 18.8258 7.49112 18.7993 7.533 18.778C7.569 18.7484 7.61072 18.7266 7.65554 18.7139C7.62667 18.7575 7.59145 18.778 7.56258 18.816C7.53002 18.8454 7.49899 18.8764 7.46961 18.909C7.40482 18.973 7.32876 19.0315 7.26819 19.09C7.13156 19.2062 6.98648 19.3203 6.85196 19.4421C6.71744 19.5639 6.58715 19.6956 6.44981 19.8175C6.30121 19.9428 6.1681 20.0654 6.02161 20.1823L6.0202 20.1816ZM7.76541 19.0167C7.76541 19.0167 6.81604 19.9464 6.62095 20.0971L7.76541 19.0167Z" fill="#CFB66C"/>
<path fill-rule="evenodd" clip-rule="evenodd" d="M7.76541 19.0166C7.6803 19.1164 7.58878 19.2105 7.49144 19.2983L7.20198 19.5702C7.10902 19.6631 7.02098 19.7568 6.92027 19.8519C6.81956 19.947 6.72519 20.0244 6.61743 20.1054L6.89914 19.8315C6.99211 19.7385 7.09423 19.6596 7.19353 19.5666L7.47525 19.2927C7.5668 19.1948 7.65977 19.1011 7.76541 19.0166ZM7.80907 19.5209C7.72142 19.765 7.61839 20.0032 7.5006 20.2343C7.25551 20.7238 6.88858 21.3351 6.72589 21.6471L7.80555 19.5202L7.80907 19.5209Z" fill="#CFB66C"/>
<path fill-rule="evenodd" clip-rule="evenodd" d="M7.80554 19.5195C7.80272 19.6206 7.78098 19.7202 7.74145 19.8132C7.70781 19.9066 7.66901 19.9981 7.62524 20.0872C7.58158 20.1745 7.53157 20.2682 7.48439 20.3527C7.4372 20.4372 7.37663 20.5238 7.33297 20.6119L7.03858 21.1302C6.93646 21.3028 6.83786 21.4767 6.7301 21.6429C6.80715 21.4599 6.89559 21.2818 6.99491 21.1098C7.09703 20.9372 7.19 20.764 7.28296 20.5851C7.32867 20.4963 7.36958 20.4051 7.40551 20.3118C7.44917 20.2182 7.49284 20.1308 7.52805 20.0463C7.56327 19.9618 7.60623 19.866 7.64989 19.7815C7.6944 19.6896 7.74721 19.6019 7.80765 19.5195H7.80554Z" fill="#CFB66C"/>
<path fill-rule="evenodd" clip-rule="evenodd" d="M8.84225 21.9092C8.66585 22.1625 8.57503 22.4655 8.58307 22.774C8.66195 22.5205 8.76125 22.1331 8.84225 21.9092ZM9.11621 22.2916C9.11621 22.2916 9.01409 23.3283 8.93028 23.841C9.04931 23.2487 9.07255 23.2987 9.11621 22.2916ZM11.0241 23.8995C11.0241 23.8995 10.5931 25.1672 10.5839 25.5193C10.6776 25.1573 10.8579 24.4178 11.0241 23.8995Z" fill="#DEC270"/>
<path fill-rule="evenodd" clip-rule="evenodd" d="M12.0319 21.8311C12.0319 21.8311 12.7313 22.984 13.2553 23.9685C13.1137 23.4734 12.7869 22.5649 12.0319 21.8311Z" fill="#CBAF59"/>
<path fill-rule="evenodd" clip-rule="evenodd" d="M13.9109 23.5283C14.2951 24.2069 14.6417 24.9062 14.9491 25.6228C14.8892 25.1277 14.7321 24.2805 13.9109 23.5283Z" fill="#E3C677"/>
<path fill-rule="evenodd" clip-rule="evenodd" d="M19.4332 25.2291C19.5494 25.1587 19.7797 24.7601 19.9804 24.6615C20.1812 24.5629 20.3326 24.5389 20.5136 24.3382C20.6946 24.1375 20.7439 24.0001 21.1397 23.8339C21.6932 23.5952 21.3122 23.286 21.3122 23.286C21.3733 23.2263 21.4385 23.171 21.5073 23.1205C21.6482 23.0127 21.8165 22.8817 21.8017 22.6514C21.7806 22.2669 21.7101 21.7035 21.3911 21.376C21.6996 21.3119 22.2912 21.2682 22.6588 21.1746C23.0814 21.0668 23.2793 20.9154 23.2793 20.9154C23.2793 20.9154 23.0349 20.4992 23.4307 20.0794C23.8265 19.6597 24.1505 19.4096 24.3892 18.9406C24.1153 18.9061 23.6976 18.7603 22.6328 19.1652C22.6904 19.1921 22.7459 19.2231 22.799 19.2582C22.799 19.2582 22.1433 19.4385 21.9045 19.6399C21.4883 19.9921 21.4355 20.2808 20.984 20.4963C20.5326 20.7118 20.0783 20.6534 19.703 20.8281C19.3276 21.0027 19.2719 21.1513 19.1346 21.2154C19.1642 21.2506 19.129 21.3084 19.1839 21.3563C19.1494 21.4056 18.9451 21.7373 18.7388 21.7373C18.7592 21.8162 18.9339 21.8746 18.9339 21.8746C18.9339 21.8746 18.8057 21.9676 18.4796 21.9908C18.6987 22.239 18.9539 22.4527 19.2367 22.6247C19.2015 22.6951 19.0557 22.805 19.1142 22.9423C19.1726 23.0796 19.3445 23.2656 20.0086 23.417C19.6706 23.4311 19.2747 23.51 18.7409 23.4374C18.2071 23.3649 18.1204 23.3353 17.7908 23.417C17.826 23.4522 17.919 23.4522 18.0021 23.5452C17.9148 23.5508 17.3683 23.4811 17.1809 23.7255C16.9936 23.9698 16.8992 24.3959 16.9161 24.6748C16.814 24.7248 16.7147 24.8122 16.7647 24.9925C16.8147 25.1728 17.0732 25.2319 17.2394 25.3446C17.4056 25.4573 17.4197 25.5101 17.5774 25.4812C17.7352 25.4524 17.9873 25.2805 18.1303 25.2805C18.2225 25.2849 18.3098 25.3233 18.3754 25.3883C18.3754 25.3883 18.7627 25.2016 18.7979 25.2369C18.8332 25.2721 18.8043 25.496 18.8416 25.5305C18.8789 25.565 19.3163 25.2981 19.4332 25.2249V25.2291Z" fill="#ECD592"/>
</g>
</g>
<defs>
<clipPath id="clip0_7599_27727">
<rect width="36" height="36" rx="18" fill="white"/>
</clipPath>
<clipPath id="clip1_7599_27727">
<rect width="36" height="36" fill="white"/>
</clipPath>
</defs>
</svg>
