<svg width="36" height="36" viewBox="0 0 36 36" fill="none" xmlns="http://www.w3.org/2000/svg">
<rect width="36" height="36" rx="18" fill="white"/>
<path d="M30.1991 18.2919C30.2221 20.3607 29.7892 22.3376 28.9387 24.2263C27.7242 26.9158 24.8125 29.115 22.1536 26.7741C19.9852 24.8661 19.5829 20.9928 16.3341 20.4258C12.0355 19.9048 11.9321 24.8891 9.1238 25.4523C5.99373 26.0883 4.95548 20.8242 5.00145 18.4336C5.04743 16.0429 5.6834 12.683 8.40354 12.683C11.5336 12.683 11.7443 17.4222 15.7173 17.1655C19.6519 16.8973 19.7208 11.9666 22.2916 9.85559C24.5098 8.03194 27.1189 9.36902 28.4252 11.5643C29.636 13.5948 30.1685 15.9778 30.1991 18.2919Z" fill="#37E4BB"/>
</svg>
