<svg width="36" height="36" viewBox="0 0 36 36" fill="none" xmlns="http://www.w3.org/2000/svg">
<rect width="36" height="36" rx="18" fill="white"/>
<path d="M26.3601 18.0898C26.3601 22.9951 22.4333 26.9717 17.5894 26.9717C12.7454 26.9717 8.8186 22.9951 8.8186 18.0898C8.8186 13.1845 12.7454 9.20801 17.5894 9.20801C22.4333 9.20801 26.3601 13.1845 26.3601 18.0898Z" fill="url(#paint0_radial_7599_27805)"/>
<path d="M26.0269 18.09C26.0269 13.3648 22.2453 9.54137 17.5894 9.54133C12.9335 9.54133 9.15194 13.3648 9.15194 18.09C9.15201 22.8151 12.9336 26.6383 17.5894 26.6383V26.9716L17.3629 26.9687C12.6988 26.849 8.93973 23.0423 8.82153 18.3191L8.8186 18.09C8.8186 13.1847 12.7455 9.20801 17.5894 9.20801L17.8157 9.21094C22.555 9.3325 26.3603 13.2613 26.3603 18.09L26.3573 18.3191C26.2372 23.1184 22.3577 26.9716 17.5894 26.9716V26.6383C22.2453 26.6383 26.0269 22.8151 26.0269 18.09Z" fill="url(#paint1_linear_7599_27805)" fill-opacity="0.12"/>
<path d="M9.50207 17.2363C9.45547 17.7793 9.52398 18.3629 9.643 18.9089C9.82668 19.7514 10.1363 20.5346 10.367 21.0017L10.4026 21.0743L10.4614 21.0868C11.7886 23.9267 14.6439 25.8913 17.9525 25.8913C21.3338 25.8913 24.2409 23.8393 25.528 20.8983L28.6177 23.2447C28.6577 23.5294 28.6049 23.8206 28.4551 24.066C26.2807 27.6268 22.3906 29.9997 17.9525 29.9997C14.2675 29.9997 10.9604 28.3634 8.69923 25.7699C8.59906 25.655 8.5287 25.5162 8.49446 25.3676C7.62954 21.6159 8.6045 18.7125 9.50207 17.2363Z" fill="url(#paint2_linear_7599_27805)"/>
<path d="M9.50205 17.2363C9.45544 17.7793 9.52399 18.3629 9.643 18.9088C9.82668 19.7513 10.1363 20.5345 10.367 21.0015L10.4024 21.0745L10.4614 21.0868C11.7678 23.8824 14.5549 25.8296 17.7976 25.8898L17.9522 25.8914C21.3334 25.8914 24.2406 23.8393 25.5278 20.8984L28.6176 23.2447L28.4993 23.6248L28.5782 23.8596C26.4297 27.5348 22.4755 29.9997 17.9522 29.9997V29.6664C22.3812 29.6664 26.2512 27.2363 28.3331 23.6167L28.3064 23.4273L25.6547 21.413C24.2395 24.264 21.3242 26.2247 17.9522 26.2247C14.5667 26.2247 11.6403 24.2485 10.2315 21.3788L10.1746 21.3668L10.103 21.2209L10.0675 21.148C9.82655 20.6599 9.5072 19.8515 9.31715 18.9798C9.28488 18.8317 9.25609 18.6799 9.23187 18.526C8.5884 20.1128 8.14533 22.5107 8.85394 25.4377C11.0569 28.0275 14.3155 29.6664 17.9522 29.6664V29.9997L17.6004 29.9949C14.0919 29.8953 10.9502 28.3121 8.76377 25.8436L8.5486 25.5939C7.59051 21.7327 8.58651 18.7421 9.50205 17.2363Z" fill="url(#paint3_linear_7599_27805)" fill-opacity="0.05"/>
<path d="M17.2377 19.6878C24.0655 20.6732 27.2038 15.1337 27.7637 11.9916C27.7827 11.8851 27.9216 11.8521 27.9835 11.9406C31.4658 16.9091 29.7284 22.2895 28.049 24.6924C28.049 24.6924 25.156 18.5942 19.214 23.6975C15.142 27.1948 12.6867 25.8381 11.5489 24.9336C10.4111 24.0292 8.25509 18.3914 17.2377 19.6878Z" fill="url(#paint4_linear_7599_27805)"/>
<path d="M27.7638 11.9906C27.7829 11.8842 27.9216 11.8512 27.9836 11.9395C31.4658 16.908 29.7284 22.2886 28.049 24.6915C28.045 24.683 25.1519 18.597 19.214 23.6967L19.0242 23.8569C15.1911 27.0469 12.8226 25.9027 11.6593 25.0186L11.549 24.9327C10.4112 24.0283 8.25517 18.3903 17.2378 19.6867C24.0656 20.6721 27.2039 15.1327 27.7638 11.9906ZM27.9871 12.5446C27.6066 14.1129 26.6749 16.084 25.0832 17.6259C23.3064 19.3469 20.7132 20.5253 17.1899 20.0168C14.9694 19.6963 13.48 19.8119 12.508 20.1476C11.5513 20.4781 11.0999 21.0184 10.9152 21.5874C10.7245 22.175 10.8019 22.8451 11.0093 23.4392C11.2194 24.0413 11.5391 24.4989 11.7563 24.6716C12.2969 25.1014 13.1245 25.6181 14.285 25.6319C15.4448 25.6457 17.0012 25.1578 18.9969 23.4438C20.5163 22.1389 21.8694 21.5253 23.0578 21.3687C24.2507 21.2114 25.2449 21.5187 26.0324 21.9949C26.8149 22.4682 27.3923 23.1072 27.772 23.6202C27.8881 23.7771 27.986 23.9237 28.0669 24.0515C29.5415 21.6213 30.8045 16.9533 27.9871 12.5446Z" fill="url(#paint5_linear_7599_27805)" fill-opacity="0.2"/>
<path d="M8.84169 10.587C12.9367 5.8402 17.7017 5.60356 20.8804 6.27984C22.9258 6.71501 24.6795 8.49405 24.3684 10.587C23.9962 13.0912 21.6668 15.163 17.0257 15.0125C8.19958 14.7263 7.50107 21.6118 8.66413 25.4712C8.69035 25.5583 8.57715 25.6179 8.52493 25.5435C6.97371 23.3337 3.5566 16.7134 8.84169 10.587Z" fill="url(#paint6_linear_7599_27805)"/>
<path d="M8.84163 10.5871C12.9366 5.8402 17.7016 5.60356 20.8803 6.27984C22.9257 6.71503 24.6794 8.4941 24.3683 10.5871L24.3494 10.7039C23.9227 13.1553 21.5941 15.1606 17.0255 15.0124C7.82762 14.7142 7.45652 22.2048 8.82047 25.9422C7.50707 24.2796 3.25235 17.2547 8.71077 10.7407L8.84163 10.5871ZM20.811 6.60568C17.7191 5.94787 13.0901 6.17253 9.09391 10.8048C6.34352 13.9931 6.02016 17.3046 6.54085 20.0325C6.8467 21.6348 7.44554 23.0346 8.01709 24.0835C7.77192 22.4216 7.87907 20.5012 8.66031 18.8232C9.22371 17.6132 10.1369 16.5323 11.5109 15.7767C12.8821 15.0227 14.6923 14.6034 17.0363 14.6794C19.3078 14.7531 20.976 14.2815 22.1118 13.5186C23.2427 12.7589 23.8662 11.6975 24.0385 10.5379C24.3149 8.67834 22.7496 7.01816 20.811 6.60568Z" fill="url(#paint7_linear_7599_27805)" fill-opacity="0.1"/>
<defs>
<radialGradient id="paint0_radial_7599_27805" cx="0" cy="0" r="1" gradientUnits="userSpaceOnUse" gradientTransform="translate(17.5894 18.0898) rotate(90) scale(8.88183 8.77076)">
<stop stop-color="#8DC0FF"/>
<stop offset="1" stop-color="#154DC6"/>
</radialGradient>
<linearGradient id="paint1_linear_7599_27805" x1="25.6722" y1="14.6068" x2="9.97464" y2="20.3985" gradientUnits="userSpaceOnUse">
<stop stop-color="white" stop-opacity="0.5"/>
<stop offset="1" stop-color="#FBFBFB" stop-opacity="0"/>
</linearGradient>
<linearGradient id="paint2_linear_7599_27805" x1="27.7493" y1="24.3748" x2="9.5724" y2="28.4365" gradientUnits="userSpaceOnUse">
<stop stop-color="#AAC5FF"/>
<stop offset="0.162485" stop-color="#6D98F5"/>
<stop offset="1" stop-color="#0E47C3"/>
</linearGradient>
<linearGradient id="paint3_linear_7599_27805" x1="27.5195" y1="15.0496" x2="6.89939" y2="25.0665" gradientUnits="userSpaceOnUse">
<stop stop-color="white"/>
<stop offset="1" stop-color="white" stop-opacity="0"/>
</linearGradient>
<linearGradient id="paint4_linear_7599_27805" x1="28.2798" y1="9.09023" x2="18.4033" y2="28.6748" gradientUnits="userSpaceOnUse">
<stop stop-color="#5189FF"/>
<stop offset="0.504808" stop-color="#7FA5F6"/>
<stop offset="1" stop-color="#E8E9EE"/>
</linearGradient>
<linearGradient id="paint5_linear_7599_27805" x1="28.8743" y1="12.3744" x2="21.6" y2="32.935" gradientUnits="userSpaceOnUse">
<stop stop-color="white" stop-opacity="0"/>
<stop offset="0.266668" stop-color="#FFFEFE" stop-opacity="0.926967"/>
<stop offset="0.530453" stop-color="#FDF5F5" stop-opacity="0"/>
</linearGradient>
<linearGradient id="paint6_linear_7599_27805" x1="20.733" y1="4.6832" x2="5.93559" y2="24.0848" gradientUnits="userSpaceOnUse">
<stop stop-color="#E8E9EE"/>
<stop offset="0.495192" stop-color="#7FA5F6"/>
<stop offset="1" stop-color="#1049C4"/>
</linearGradient>
<linearGradient id="paint7_linear_7599_27805" x1="16.1019" y1="4.32408" x2="7.64451" y2="26.0384" gradientUnits="userSpaceOnUse">
<stop stop-color="white"/>
<stop offset="1" stop-color="white" stop-opacity="0"/>
</linearGradient>
</defs>
</svg>
