<svg width="36" height="36" viewBox="0 0 36 36" fill="none" xmlns="http://www.w3.org/2000/svg">
<rect width="36" height="36" rx="18" fill="white"/>
<path d="M25.8151 17.5782C25.8151 21.8704 22.3792 25.3499 18.1407 25.3499C13.9022 25.3499 10.4663 21.8704 10.4663 17.5782C10.4663 13.2861 13.9022 9.80664 18.1407 9.80664C22.3792 9.80664 25.8151 13.2861 25.8151 17.5782Z" fill="url(#paint0_radial_7599_27805)"/>
<path d="M25.5236 17.5784C25.5236 13.4439 22.2147 10.0983 18.1408 10.0983C14.0668 10.0983 10.7579 13.4438 10.7579 17.5784C10.758 21.7128 14.0669 25.0582 18.1408 25.0582V25.3498L17.9425 25.3473C13.8615 25.2425 10.5723 21.9116 10.4688 17.7789L10.4663 17.5784C10.4663 13.2862 13.9023 9.80664 18.1408 9.80664L18.3387 9.8092C22.4857 9.91557 25.8152 13.3533 25.8152 17.5784L25.8127 17.7789C25.7076 21.9783 22.3129 25.3498 18.1408 25.3498V25.0582C22.2146 25.0581 25.5235 21.7128 25.5236 17.5784Z" fill="url(#paint1_linear_7599_27805)" fill-opacity="0.12"/>
<path d="M11.0643 16.832C11.0235 17.3072 11.0835 17.8178 11.1876 18.2955C11.3483 19.0327 11.6193 19.718 11.8211 20.1267L11.8522 20.1903L11.9037 20.2012C13.065 22.6861 15.5634 24.4052 18.4585 24.4052C21.417 24.4051 23.9608 22.6096 25.087 20.0362L27.7905 22.0894C27.8255 22.3385 27.7793 22.5933 27.6482 22.808C25.7456 25.9237 22.3417 28 18.4585 28C15.2444 28 12.3589 26.5774 10.3809 24.3207C10.2804 24.206 10.2101 24.0674 10.1762 23.9188C9.43073 20.6497 10.2812 18.12 11.0643 16.832Z" fill="url(#paint2_linear_7599_27805)"/>
<path d="M11.0643 16.832C11.0235 17.3072 11.0835 17.8178 11.1876 18.2955C11.3483 19.0326 11.6192 19.7179 11.8211 20.1266L11.8521 20.1904L11.9037 20.2012C13.0468 22.6473 15.4856 24.3512 18.3229 24.4038L18.4582 24.4052C21.4167 24.4052 23.9605 22.6096 25.0868 20.0363L27.7904 22.0893L27.6869 22.422L27.7559 22.6274C25.876 25.8432 22.416 28 18.4582 28V27.7084C22.3335 27.7083 25.7198 25.582 27.5415 22.4149L27.5181 22.2491L25.1979 20.4866C23.9596 22.9813 21.4086 24.6969 18.4582 24.6969C15.4959 24.6969 12.9353 22.9677 11.7026 20.4567L11.6528 20.4462L11.5901 20.3186L11.559 20.2548C11.3482 19.8277 11.0688 19.1203 10.9025 18.3576C10.8743 18.228 10.8491 18.0952 10.8279 17.9605C10.2648 19.349 9.87717 21.4471 10.4972 24.0082C12.4248 26.2743 15.276 27.7083 18.4582 27.7084V28L18.1503 27.9957C15.0804 27.9086 12.3314 26.5233 10.4183 24.3634L10.23 24.1449C9.3917 20.7664 10.2632 18.1495 11.0643 16.832Z" fill="url(#paint3_linear_7599_27805)" fill-opacity="0.05"/>
<path d="M17.833 18.9767C23.8074 19.8389 26.5533 14.9919 27.0433 12.2425C27.0599 12.1493 27.1814 12.1205 27.2356 12.1979C30.2826 16.5453 28.7624 21.2532 27.2929 23.3558C27.2929 23.3558 24.7615 18.0198 19.5622 22.4852C15.9992 25.5453 13.8509 24.3582 12.8553 23.5668C11.8597 22.7754 9.97321 17.8424 17.833 18.9767Z" fill="url(#paint4_linear_7599_27805)"/>
<path d="M27.0433 12.2415C27.06 12.1484 27.1814 12.1195 27.2356 12.1968C30.2826 16.5442 28.7623 21.2522 27.2929 23.3548C27.2893 23.3474 24.758 18.0221 19.5623 22.4844L19.3962 22.6245C16.0422 25.4158 13.9697 24.4146 12.9519 23.6411L12.8554 23.5659C11.8598 22.7745 9.97328 17.8413 17.8331 18.9756C23.8074 19.8378 26.5534 14.9909 27.0433 12.2415ZM27.2387 12.7263C26.9058 14.0985 26.0906 15.8232 24.6978 17.1724C23.1431 18.6783 20.8741 19.7094 17.7912 19.2644C15.8482 18.984 14.545 19.0852 13.6945 19.3789C12.8574 19.6681 12.4624 20.1409 12.3008 20.6387C12.1339 21.1529 12.2017 21.7392 12.3831 22.2591C12.5669 22.7858 12.8467 23.1863 13.0368 23.3374C13.5098 23.7134 14.2339 24.1656 15.2494 24.1777C16.2642 24.1898 17.6261 23.7628 19.3723 22.2631C20.7017 21.1213 21.8857 20.5844 22.9255 20.4473C23.9694 20.3097 24.8393 20.5786 25.5283 20.9953C26.213 21.4094 26.7182 21.9685 27.0505 22.4175C27.1521 22.5547 27.2378 22.683 27.3085 22.7949C28.5988 20.6684 29.704 16.5839 27.2387 12.7263Z" fill="url(#paint5_linear_7599_27805)" fill-opacity="0.2"/>
<path d="M10.4865 11.0137C14.0696 6.86018 18.239 6.65312 21.0204 7.24486C22.8101 7.62563 24.3446 9.1823 24.0724 11.0136C23.7467 13.2048 21.7085 15.0177 17.6475 14.886C9.96974 14.637 9.32085 20.5902 10.3135 23.9779C10.339 24.0652 10.2266 24.1257 10.1748 24.051C8.80233 22.0697 5.9009 16.3292 10.4865 11.0137Z" fill="url(#paint6_linear_7599_27805)"/>
<path d="M10.4864 11.0137C14.0696 6.86017 18.2389 6.65312 21.0203 7.24486C22.81 7.62565 24.3445 9.18233 24.0723 11.0137L24.0557 11.1159C23.6824 13.2609 21.6449 15.0155 17.6473 14.8859C9.59918 14.6249 9.27447 21.1792 10.4679 24.4495C9.3187 22.9946 5.59582 16.8478 10.3719 11.1481L10.4864 11.0137ZM20.9596 7.52997C18.2542 6.95439 14.2038 7.15097 10.7072 11.2042C8.3006 13.994 8.01765 16.8915 8.47326 19.2784C8.74088 20.6805 9.26486 21.9053 9.76497 22.8231C9.55044 21.3689 9.64421 19.6886 10.3278 18.2203C10.8208 17.1615 11.6198 16.2158 12.822 15.5546C14.0219 14.8949 15.6058 14.528 17.6567 14.5945C19.6443 14.6589 21.1041 14.2463 22.0978 13.5788C23.0874 12.9141 23.6329 11.9854 23.7837 10.9707C24.0256 9.34355 22.6559 7.89089 20.9596 7.52997Z" fill="url(#paint7_linear_7599_27805)" fill-opacity="0.1"/>
<defs>
<radialGradient id="paint0_radial_7599_27805" cx="0" cy="0" r="1" gradientUnits="userSpaceOnUse" gradientTransform="translate(18.1407 17.5782) rotate(90) scale(7.77161 7.67442)">
<stop stop-color="#8DC0FF"/>
<stop offset="1" stop-color="#154DC6"/>
</radialGradient>
<linearGradient id="paint1_linear_7599_27805" x1="25.2132" y1="14.5306" x2="11.4778" y2="19.5983" gradientUnits="userSpaceOnUse">
<stop stop-color="white" stop-opacity="0.5"/>
<stop offset="1" stop-color="#FBFBFB" stop-opacity="0"/>
</linearGradient>
<linearGradient id="paint2_linear_7599_27805" x1="27.0306" y1="23.0782" x2="11.1258" y2="26.6322" gradientUnits="userSpaceOnUse">
<stop stop-color="#AAC5FF"/>
<stop offset="0.162485" stop-color="#6D98F5"/>
<stop offset="1" stop-color="#0E47C3"/>
</linearGradient>
<linearGradient id="paint3_linear_7599_27805" x1="26.8296" y1="14.9187" x2="8.78696" y2="23.6835" gradientUnits="userSpaceOnUse">
<stop stop-color="white"/>
<stop offset="1" stop-color="white" stop-opacity="0"/>
</linearGradient>
<linearGradient id="paint4_linear_7599_27805" x1="27.4949" y1="9.70383" x2="18.8529" y2="26.8403" gradientUnits="userSpaceOnUse">
<stop stop-color="#5189FF"/>
<stop offset="0.504808" stop-color="#7FA5F6"/>
<stop offset="1" stop-color="#E8E9EE"/>
</linearGradient>
<linearGradient id="paint5_linear_7599_27805" x1="28.015" y1="12.5774" x2="21.65" y2="30.5679" gradientUnits="userSpaceOnUse">
<stop stop-color="white" stop-opacity="0"/>
<stop offset="0.266668" stop-color="#FFFEFE" stop-opacity="0.926967"/>
<stop offset="0.530453" stop-color="#FDF5F5" stop-opacity="0"/>
</linearGradient>
<linearGradient id="paint6_linear_7599_27805" x1="20.8914" y1="5.8478" x2="7.94367" y2="22.8242" gradientUnits="userSpaceOnUse">
<stop stop-color="#E8E9EE"/>
<stop offset="0.495192" stop-color="#7FA5F6"/>
<stop offset="1" stop-color="#1049C4"/>
</linearGradient>
<linearGradient id="paint7_linear_7599_27805" x1="16.8392" y1="5.53357" x2="9.43896" y2="24.5336" gradientUnits="userSpaceOnUse">
<stop stop-color="white"/>
<stop offset="1" stop-color="white" stop-opacity="0"/>
</linearGradient>
</defs>
</svg>
