<svg width="36" height="36" viewBox="0 0 36 36" fill="none" xmlns="http://www.w3.org/2000/svg">
<rect width="36" height="36" rx="18" fill="white"/>
<path d="M11.3216 14.0604C11.4517 14.1909 11.6282 14.2643 11.8124 14.2646H28.7454C28.814 14.2647 28.8812 14.2445 28.9383 14.2063C28.9954 14.1682 29.0399 14.114 29.0661 14.0506C29.0924 13.9872 29.0992 13.9174 29.0858 13.85C29.0723 13.7827 29.0392 13.7209 28.9905 13.6724L25.6457 10.3276C25.5812 10.2632 25.5047 10.2121 25.4205 10.1773C25.3363 10.1425 25.2461 10.1246 25.155 10.1246H8.22197C8.15379 10.1251 8.08725 10.1456 8.03065 10.1836C7.97404 10.2216 7.92989 10.2754 7.9037 10.3383C7.8775 10.4013 7.87043 10.4706 7.88336 10.5375C7.89629 10.6044 7.92865 10.6661 7.9764 10.7148L11.3216 14.0604Z" fill="url(#paint0_linear_7599_27815)"/>
<path d="M11.3215 26.5504C11.453 26.6785 11.6287 26.7511 11.8123 26.7529H28.7453C28.8139 26.753 28.8811 26.7327 28.9382 26.6946C28.9953 26.6565 29.0398 26.6023 29.066 26.5389C29.0923 26.4754 29.0991 26.4056 29.0857 26.3383C29.0722 26.271 29.039 26.2092 28.9904 26.1607L25.6456 22.8159C25.5811 22.7515 25.5046 22.7004 25.4204 22.6656C25.3362 22.6308 25.246 22.6129 25.1548 22.6129H8.22186C8.15368 22.6133 8.08714 22.6338 8.03054 22.6718C7.97394 22.7098 7.92978 22.7637 7.90359 22.8266C7.8774 22.8896 7.87032 22.9588 7.88325 23.0258C7.89618 23.0927 7.92854 23.1544 7.97629 23.203L11.3215 26.5504Z" fill="url(#paint1_linear_7599_27815)"/>
<path d="M25.6456 20.3459C25.5811 20.4103 25.5046 20.4613 25.4204 20.4962C25.3362 20.531 25.246 20.5489 25.1549 20.5488H8.22189C8.15329 20.5488 8.08623 20.5285 8.02918 20.4904C7.97214 20.4522 7.92767 20.3981 7.90139 20.3347C7.87512 20.2713 7.86821 20.2016 7.88154 20.1343C7.89488 20.067 7.92786 20.0052 7.97632 19.9566L11.3216 16.6118C11.386 16.5474 11.4625 16.4963 11.5467 16.4615C11.6309 16.4266 11.7212 16.4087 11.8123 16.4088H28.7453C28.8139 16.4087 28.8811 16.429 28.9382 16.4671C28.9953 16.5052 29.0398 16.5594 29.0661 16.6229C29.0923 16.6863 29.0992 16.7561 29.0857 16.8234C29.0722 16.8908 29.0391 16.9526 28.9904 17.001L25.6456 20.3459Z" fill="url(#paint2_linear_7599_27815)"/>
<defs>
<linearGradient id="paint0_linear_7599_27815" x1="27.1279" y1="28.7499" x2="15.4086" y2="6.3037" gradientUnits="userSpaceOnUse">
<stop stop-color="#00FFA3"/>
<stop offset="1" stop-color="#DC1FFF"/>
</linearGradient>
<linearGradient id="paint1_linear_7599_27815" x1="22.0038" y1="23.1571" x2="10.285" y2="0.710496" gradientUnits="userSpaceOnUse">
<stop stop-color="#00FFA3"/>
<stop offset="1" stop-color="#DC1FFF"/>
</linearGradient>
<linearGradient id="paint2_linear_7599_27815" x1="24.5493" y1="21.8285" x2="12.8305" y2="-0.618143" gradientUnits="userSpaceOnUse">
<stop stop-color="#00FFA3"/>
<stop offset="1" stop-color="#DC1FFF"/>
</linearGradient>
</defs>
</svg>
