<svg width="36" height="36" viewBox="0 0 36 36" fill="none" xmlns="http://www.w3.org/2000/svg">
<rect width="36" height="36" rx="18" fill="white"/>
<path fill-rule="evenodd" clip-rule="evenodd" d="M23.2063 16.005C24.1943 17.2317 24.7897 18.7902 24.7897 20.4801C24.7897 22.17 24.1817 23.7723 23.162 25.0116L23.0733 25.118L23.048 24.9803C23.029 24.8676 23.0037 24.7487 22.9783 24.6298C22.4717 22.4204 20.8123 20.5239 18.0763 18.9842C16.2333 17.9515 15.1757 16.706 14.897 15.2914C14.7197 14.3776 14.8527 13.4576 15.106 12.6689C15.3657 11.8803 15.7457 11.2231 16.0687 10.8288L17.1327 9.5457C17.3163 9.32038 17.671 9.32038 17.8547 9.5457L23.2063 16.005ZM24.8847 14.7219L17.766 6.12205C17.633 5.95932 17.3733 5.95932 17.2403 6.12205L10.1153 14.7219L10.09 14.7532C8.78533 16.3617 8 18.4021 8 20.6241C8 25.8002 12.256 30 17.5 30C22.744 30 27 25.8002 27 20.6241C27 18.4021 26.2147 16.3617 24.9037 14.7532L24.8847 14.7219ZM11.819 15.9799L12.4523 15.2101L12.4713 15.354C12.484 15.4667 12.503 15.5793 12.5283 15.692C12.94 17.8263 14.4157 19.6101 16.873 20.9871C19.0137 22.1888 20.255 23.572 20.616 25.093C20.768 25.7251 20.7933 26.351 20.73 26.8956L20.7237 26.9268L20.692 26.9394C19.7293 27.4025 18.64 27.6654 17.4937 27.6654C13.472 27.6654 10.2103 24.4483 10.2103 20.4801C10.2103 18.7777 10.812 17.2067 11.819 15.9799Z" fill="#4DA2FF"/>
</svg>
