<svg width="36" height="36" viewBox="0 0 36 36" fill="none" xmlns="http://www.w3.org/2000/svg">
<rect width="36" height="36" rx="18" fill="white"/>
<path fill-rule="evenodd" clip-rule="evenodd" d="M22.8053 15.7543C23.6373 16.8277 24.1387 18.1914 24.1387 19.6701C24.1387 21.1488 23.6267 22.5508 22.768 23.6352L22.6933 23.7283L22.672 23.6078C22.656 23.5092 22.6347 23.4051 22.6133 23.3011C22.1867 21.3678 20.7893 19.7084 18.4853 18.3612C16.9333 17.4576 16.0427 16.3677 15.808 15.13C15.6587 14.3304 15.7707 13.5254 15.984 12.8353C16.2027 12.1453 16.5227 11.5702 16.7947 11.2252L17.6907 10.1025C17.8453 9.90533 18.144 9.90533 18.2987 10.1025L22.8053 15.7543ZM24.2187 14.6316L18.224 7.10679C18.112 6.9644 17.8933 6.9644 17.7813 7.10679L11.7813 14.6316L11.76 14.659C10.6613 16.0665 10 17.8519 10 19.7961C10 24.3252 13.584 28 18 28C22.416 28 26 24.3252 26 19.7961C26 17.8519 25.3387 16.0665 24.2347 14.659L24.2187 14.6316ZM13.216 15.7324L13.7493 15.0588L13.7653 15.1848C13.776 15.2833 13.792 15.3819 13.8133 15.4805C14.16 17.348 15.4027 18.9089 17.472 20.1137C19.2747 21.1652 20.32 22.3755 20.624 23.7064C20.752 24.2595 20.7733 24.8071 20.72 25.2836L20.7147 25.311L20.688 25.3219C19.8773 25.7272 18.96 25.9572 17.9947 25.9572C14.608 25.9572 11.8613 23.1423 11.8613 19.6701C11.8613 18.1805 12.368 16.8058 13.216 15.7324Z" fill="#4DA2FF"/>
</svg>
