<svg width="36" height="36" viewBox="0 0 36 36" fill="none" xmlns="http://www.w3.org/2000/svg">
<rect width="36" height="36" rx="18" fill="white"/>
<g clip-path="url(#clip0_7599_27719)">
<path d="M16.5274 11.776C16.3 11.7435 16.2891 11.7327 16.3974 11.7219C16.6032 11.6894 17.0798 11.7327 17.4155 11.8085C18.1953 11.9926 18.8992 12.4691 19.6465 13.3031L19.8415 13.5305L20.1231 13.4872C21.3252 13.2922 22.5599 13.4439 23.5888 13.9204C23.8704 14.0504 24.3144 14.3103 24.3686 14.3753C24.3902 14.3969 24.4227 14.5377 24.4444 14.6785C24.5202 15.1876 24.4877 15.5666 24.3252 15.859C24.2386 16.0215 24.2386 16.0648 24.2928 16.2056C24.3361 16.3139 24.466 16.3897 24.5852 16.3897C24.8451 16.3897 25.1159 15.9782 25.2458 15.4042L25.3 15.1767L25.3974 15.285C25.9498 15.9024 26.383 16.758 26.448 17.3645L26.4696 17.5269L26.3722 17.3861C26.2097 17.137 26.0581 16.9746 25.8523 16.8338C25.4841 16.5847 25.0942 16.5089 24.0653 16.4547C23.1339 16.4006 22.6032 16.3247 22.0834 16.1515C21.1953 15.859 20.7404 15.48 19.6899 14.0829C19.2242 13.4655 18.9317 13.1298 18.6393 12.8482C18.0003 12.2309 17.3613 11.906 16.5274 11.776Z" fill="#FF007A"/>
<path d="M24.596 13.1517C24.6177 12.7401 24.6718 12.4693 24.791 12.2202C24.8343 12.1228 24.8776 12.0361 24.8884 12.0361C24.8993 12.0361 24.8776 12.1119 24.8451 12.1986C24.7585 12.4369 24.7476 12.7726 24.8018 13.1517C24.8776 13.639 24.9101 13.704 25.43 14.2347C25.6682 14.4838 25.9498 14.7979 26.0581 14.9278L26.2422 15.1661L26.0581 14.9928C25.8307 14.7762 25.3108 14.3647 25.1917 14.3105C25.1159 14.2672 25.105 14.2672 25.0509 14.3213C25.0076 14.3647 24.9967 14.4296 24.9967 14.7437C24.9859 15.2311 24.9209 15.5343 24.7585 15.8484C24.6718 16.0109 24.661 15.9784 24.7368 15.7943C24.791 15.6535 24.8018 15.5885 24.8018 15.1228C24.8018 14.1805 24.6935 13.9531 24.0328 13.574C23.8704 13.4766 23.5888 13.3358 23.4263 13.26C23.2531 13.1841 23.1231 13.1192 23.1339 13.1192C23.1556 13.0975 23.7946 13.2816 24.0437 13.3899C24.4227 13.5415 24.4877 13.5524 24.531 13.5415C24.5635 13.5091 24.5852 13.4224 24.596 13.1517ZM16.9715 14.7654C16.5166 14.1372 16.2242 13.1625 16.2892 12.4369L16.3108 12.2094L16.4191 12.2311C16.6141 12.2636 16.9498 12.3935 17.1123 12.491C17.5455 12.7509 17.7404 13.1083 17.9245 13.9964C17.9787 14.2563 18.0545 14.5596 18.087 14.6571C18.1412 14.8195 18.3469 15.1986 18.5202 15.4369C18.6393 15.6101 18.5635 15.6968 18.2928 15.6751C17.8812 15.6318 17.3289 15.2527 16.9715 14.7654ZM24.0437 19.4766C21.8993 18.6101 21.1412 17.8628 21.1412 16.5957C21.1412 16.4116 21.152 16.26 21.152 16.26C21.1628 16.26 21.2386 16.3249 21.3361 16.4008C21.7693 16.7473 22.2567 16.8989 23.6105 17.0939C24.4011 17.213 24.856 17.2997 25.2675 17.4405C26.578 17.8737 27.3902 18.7618 27.5852 19.9639C27.6393 20.3105 27.6069 20.9712 27.5202 21.3177C27.4444 21.5885 27.2278 22.0867 27.1736 22.0975C27.1628 22.0975 27.1411 22.0434 27.1411 21.9567C27.1195 21.5018 26.8921 21.0686 26.513 20.7329C26.0581 20.343 25.4733 20.0506 24.0437 19.4766ZM22.5274 19.834C22.5058 19.6715 22.4516 19.4657 22.4191 19.3791L22.365 19.2166L22.4625 19.3358C22.6032 19.4982 22.7115 19.6932 22.809 19.9639C22.8848 20.1697 22.8848 20.2347 22.8848 20.5704C22.8848 20.8953 22.874 20.9712 22.809 21.1553C22.7007 21.4477 22.5708 21.6535 22.3541 21.8809C21.9643 22.2816 21.4552 22.4982 20.7296 22.5957C20.5996 22.6065 20.2314 22.639 19.9065 22.6607C19.0942 22.704 18.5527 22.7906 18.0653 22.9639C18.0004 22.9856 17.9354 23.0073 17.9245 22.9964C17.9029 22.9748 18.2386 22.7798 18.5094 22.6499C18.8884 22.4657 19.2783 22.3683 20.1339 22.2166C20.5563 22.1517 20.9895 22.065 21.0978 22.0217C22.17 21.686 22.7007 20.852 22.5274 19.834Z" fill="#FF007A"/>
<path d="M23.513 21.5777C23.2314 20.9603 23.1664 20.3755 23.3181 19.8231C23.3397 19.769 23.3614 19.7148 23.383 19.7148C23.4047 19.7148 23.4697 19.7473 23.5347 19.7907C23.6646 19.8773 23.9354 20.0289 24.6285 20.408C25.5058 20.8845 26.004 21.2527 26.3506 21.6751C26.6538 22.0434 26.8379 22.4657 26.9246 22.9856C26.9787 23.278 26.9462 23.982 26.8704 24.2744C26.6321 25.195 26.0906 25.9315 25.3 26.3538C25.1809 26.4188 25.0834 26.4621 25.0726 26.4621C25.0617 26.4621 25.1051 26.3538 25.17 26.2239C25.43 25.6715 25.4625 25.1408 25.2675 24.5452C25.1484 24.1769 24.8993 23.7329 24.4011 22.9856C23.8054 22.1192 23.6646 21.8917 23.513 21.5777ZM15.4444 24.8917C16.2459 24.2203 17.2314 23.7437 18.1412 23.5921C18.5311 23.5271 19.1809 23.5488 19.5383 23.6463C20.1123 23.7979 20.6321 24.1228 20.9029 24.5235C21.1628 24.9134 21.282 25.2491 21.4011 25.9964C21.4444 26.2889 21.4986 26.5921 21.5094 26.6571C21.596 27.047 21.7693 27.3502 21.9859 27.5127C22.3217 27.7618 22.9065 27.7726 23.4805 27.556C23.578 27.5235 23.6646 27.491 23.6646 27.5018C23.6863 27.5235 23.3939 27.7185 23.1989 27.8159C22.9282 27.9567 22.7116 28 22.4191 28C21.8993 28 21.4552 27.7293 21.0978 27.1878C21.022 27.0795 20.8704 26.7654 20.7404 26.473C20.3614 25.5957 20.1664 25.3358 19.7224 25.0434C19.3325 24.7943 18.8343 24.7401 18.4552 24.9242C17.9571 25.1625 17.8271 25.8015 18.1737 26.1914C18.3145 26.3538 18.5744 26.4838 18.791 26.5163C19.1917 26.5704 19.5383 26.2564 19.5383 25.8556C19.5383 25.5957 19.4408 25.4441 19.1809 25.325C18.8343 25.1733 18.4552 25.3466 18.4661 25.6824C18.4661 25.8231 18.5311 25.9098 18.6719 25.9748C18.7585 26.0181 18.7585 26.0181 18.6935 26.0073C18.3794 25.9423 18.3036 25.5524 18.5527 25.3033C18.856 25 19.495 25.13 19.7116 25.5524C19.7982 25.7257 19.809 26.0722 19.7332 26.2889C19.5491 26.7654 19.0293 27.0145 18.4986 26.8737C18.1412 26.7762 17.9895 26.6787 17.5563 26.2347C16.7982 25.4549 16.5058 25.3033 15.4228 25.1408L15.217 25.1083L15.4444 24.8917Z" fill="#FF007A"/>
<path d="M9.74762 7.4657C12.2711 10.5307 16.1592 15.296 16.3541 15.556C16.5166 15.7726 16.4516 15.9783 16.1808 16.13C16.0292 16.2166 15.7151 16.3032 15.5635 16.3032C15.3902 16.3032 15.1844 16.2166 15.0436 16.0758C14.9462 15.9783 14.5238 15.361 13.5707 13.8773C12.8451 12.7401 12.2278 11.7978 12.2169 11.787C12.1736 11.7653 12.1736 11.7653 13.4949 14.1264C14.3288 15.6101 14.5996 16.1408 14.5996 16.2058C14.5996 16.3466 14.5563 16.4224 14.383 16.6173C14.0906 16.9422 13.9606 17.3105 13.8631 18.0794C13.7548 18.935 13.4624 19.5415 12.6285 20.5704C12.1411 21.1769 12.0653 21.2852 11.9462 21.5343C11.7946 21.8375 11.7512 22.0108 11.7296 22.4007C11.7079 22.8123 11.7512 23.0722 11.8704 23.4621C11.9787 23.8087 12.0978 24.0361 12.3902 24.4801C12.6393 24.87 12.7909 25.1625 12.7909 25.2708C12.7909 25.3574 12.8126 25.3574 13.2025 25.2708C14.1339 25.0542 14.9029 24.6859 15.3252 24.231C15.5852 23.9495 15.6501 23.7978 15.6501 23.4079C15.6501 23.1588 15.6393 23.1047 15.5743 22.9531C15.466 22.7148 15.2603 22.5199 14.8162 22.2166C14.2314 21.8159 13.9823 21.491 13.9173 21.0578C13.8631 20.6895 13.9281 20.4404 14.253 19.7581C14.5888 19.0542 14.6754 18.7617 14.7296 18.0469C14.7621 17.5921 14.8162 17.4079 14.9462 17.2671C15.087 17.1155 15.2061 17.0614 15.5418 17.0181C16.0942 16.9422 16.4516 16.8014 16.7332 16.5307C16.9823 16.3032 17.0906 16.0758 17.1014 15.7401L17.1122 15.491L16.9714 15.3394C16.4624 14.7545 9.41188 7 9.37939 7C9.36856 7 9.54184 7.20578 9.74762 7.4657ZM13.0725 22.8664C13.1917 22.6606 13.1267 22.4007 12.9317 22.2708C12.7476 22.1516 12.466 22.2058 12.466 22.3682C12.466 22.4116 12.4877 22.4549 12.5527 22.4765C12.6501 22.5307 12.661 22.5848 12.5852 22.704C12.5094 22.8231 12.5094 22.9314 12.6068 23.0072C12.7584 23.1264 12.9642 23.0614 13.0725 22.8664ZM17.4588 17.1697C17.1989 17.2455 16.9498 17.5271 16.874 17.8087C16.8307 17.982 16.8523 18.296 16.9281 18.3935C17.0473 18.5451 17.1556 18.5884 17.4588 18.5884C18.0545 18.5884 18.5635 18.3285 18.6177 18.0144C18.6718 17.7545 18.4444 17.3971 18.1303 17.2347C17.9678 17.148 17.6321 17.1155 17.4588 17.1697ZM18.152 17.7112C18.2386 17.5812 18.2061 17.4404 18.0436 17.343C17.7512 17.1588 17.3072 17.3105 17.3072 17.5921C17.3072 17.7329 17.5346 17.8845 17.7512 17.8845C17.892 17.8845 18.087 17.7978 18.152 17.7112Z" fill="#FF007A"/>
</g>
<defs>
<clipPath id="clip0_7599_27719">
<rect width="21" height="21" fill="white" transform="translate(8 7)"/>
</clipPath>
</defs>
</svg>
