<svg width="36" height="36" viewBox="0 0 36 36" fill="none" xmlns="http://www.w3.org/2000/svg">
<rect width="36" height="36" rx="18" fill="white"/>
<path d="M31.1102 16.9137L26.706 9.48967C26.6152 9.33895 26.4866 9.21452 26.333 9.12865C26.1794 9.04279 26.006 8.99846 25.8301 9.00004H10.7147C10.3645 9.00004 10.0397 9.17637 9.85439 9.46589L5.14919 16.9055C5.02977 17.0932 4.97966 17.3167 5.00751 17.5374C5.03537 17.7582 5.13943 17.9622 5.30174 18.1144L17.4071 29.717C17.8008 30.0943 18.4307 30.0943 18.8244 29.717L30.9462 18.098C31.2709 17.7847 31.339 17.2991 31.1102 16.9137ZM24.8869 18.9772C24.8705 19.7358 22.6028 20.3706 19.5748 20.5273V24.072H16.7166V20.5273C13.6927 20.3747 11.425 19.7399 11.4045 18.9772V17.391C11.4209 16.6324 13.6894 15.9984 16.7166 15.8409V14.3966H12.4083V12.3134H23.8789V14.3966H19.5748V15.8426C22.5987 15.9951 24.8672 16.6299 24.8869 17.3926V18.978V18.9772Z" fill="#009393"/>
<path d="M19.5748 18.4788C18.6227 18.5283 17.6687 18.5283 16.7166 18.4788V16.9648C14.147 17.0977 12.1188 17.575 11.5611 18.1819C12.2197 18.8963 14.918 19.4343 18.1461 19.4343C21.3734 19.4343 24.0717 18.8963 24.7302 18.1819C24.1725 17.575 22.1443 17.0977 19.5748 16.9648V18.4788Z" fill="#009393"/>
</svg>
