<svg width="36" height="36" viewBox="0 0 36 36" fill="none" xmlns="http://www.w3.org/2000/svg">
<rect width="36" height="36" rx="18" fill="white"/>
<path d="M26.5086 8H30.1508L22.5711 15.5049C19.8262 18.2213 15.3758 18.2213 12.6289 15.5049L5.04626 8H8.6914L14.45 13.701C15.289 14.5279 16.4197 14.9915 17.5978 14.9915C18.7758 14.9915 19.9065 14.5279 20.7456 13.701L26.5086 8Z" fill="#080808"/>
<path d="M8.64465 28.8687H5L12.6289 21.3176C15.3738 18.6012 19.8242 18.6012 22.5711 21.3176L30.2 28.8687H26.5578L20.75 23.1214C19.911 22.2945 18.7803 21.8309 17.6022 21.8309C16.4242 21.8309 15.2935 22.2945 14.4544 23.1214L8.64465 28.8687Z" fill="#080808"/>
</svg>
